<svg width="67" height="81" viewBox="0 0 67 81" fill="none" xmlns="http://www.w3.org/2000/svg">
<path d="M57.8545 24.0294L62.6684 19.1961L57.9315 14.4385L52.7818 19.609C48.0772 16.2617 42.5874 14.1986 36.85 13.622V6.72693H43.55V0H23.45V6.72693H30.15V13.622C24.4126 14.1986 18.9228 16.2617 14.2182 19.609L9.06846 14.4385L4.33157 19.1961L9.14551 24.0294C4.65198 28.8062 1.65036 34.7999 0.511335 41.2701C-0.627693 47.7404 0.145756 54.404 2.73617 60.4379C5.32658 66.4718 9.6205 71.6118 15.0876 75.2231C20.5548 78.8344 26.9557 80.7589 33.5 80.7589C40.0443 80.7589 46.4452 78.8344 51.9123 75.2231C57.3795 71.6118 61.6734 66.4718 64.2638 60.4379C66.8542 54.404 67.6277 47.7404 66.4887 41.2701C65.3496 34.7999 62.348 28.8062 57.8545 24.0294ZM33.5 73.9963C28.1995 73.9963 23.018 72.4181 18.6107 69.4615C14.2035 66.5048 10.7685 62.3024 8.74004 57.3857C6.71161 52.4689 6.18089 47.0587 7.21497 41.8391C8.24905 36.6195 10.8015 31.825 14.5495 28.0619C18.2976 24.2988 23.0729 21.7361 28.2716 20.6978C33.4703 19.6596 38.8589 20.1924 43.7559 22.229C48.653 24.2656 52.8386 27.7144 55.7834 32.1394C58.7282 36.5643 60.3 41.7667 60.3 47.0885C60.292 54.2224 57.4659 61.0619 52.4416 66.1063C47.4174 71.1508 40.6053 73.9882 33.5 73.9963Z" fill="#2E7FFF"/>
<path d="M33.5 26.9197V47.259H13.1607C13.1607 51.2817 14.3536 55.2141 16.5885 58.5589C18.8234 61.9036 22 64.5106 25.7165 66.05C29.433 67.5894 33.5225 67.9922 37.468 67.2074C41.4134 66.4226 45.0375 64.4855 47.882 61.641C50.7265 58.7965 52.6637 55.1724 53.4485 51.227C54.2332 47.2815 53.8305 43.192 52.291 39.4755C50.7516 35.7589 48.1447 32.5824 44.7999 30.3475C41.4551 28.1126 37.5227 26.9197 33.5 26.9197Z" fill="#2E7FFF"/>
</svg>
