<svg width="56" height="68" viewBox="0 0 56 68" fill="none" xmlns="http://www.w3.org/2000/svg">
<path d="M50.8492 2.39265H24.3911L24.3129 2.18855C23.8049 0.870645 22.5369 0 21.1235 0H5.4627C2.49469 0 0 2.35574 0 5.32375V62.5736C0 65.5372 2.49252 67.8995 5.4627 67.8995H46.1963C46.8368 67.8995 47.4339 67.5825 47.7943 67.0592C48.1547 66.5338 48.235 65.8629 48.0114 65.2702H50.8513C53.5979 65.2702 55.7061 63.0534 55.7061 60.309V7.37117C55.7039 4.6268 53.5935 2.39265 50.8492 2.39265ZM50.2087 59.5339H45.888L43.4671 53.1354C44.7894 52.8944 45.7859 51.7697 45.7859 50.378C45.7859 48.8082 44.518 47.5793 42.9439 47.5793H41.3611L39.381 42.3207H43.4259C44.9956 42.3207 46.2636 41.018 46.2636 39.4504C46.2636 37.8828 44.9956 36.5845 43.4259 36.5845H37.2597L35.2796 31.3237H43.4259C44.9956 31.3237 46.2636 30.1404 46.2636 28.575C46.2636 27.0052 44.9956 25.8219 43.4259 25.8219H33.1583L31.1782 20.5655H43.4259C44.9956 20.5655 46.2636 19.2628 46.2636 17.6952C46.2636 16.1297 44.9956 14.8292 43.4259 14.8292H29.0591L26.5102 8.13326H50.2065V59.5339H50.2087Z" fill="#2E7FFF"/>
</svg>
