<svg width="68" height="74" viewBox="0 0 68 74" fill="none" xmlns="http://www.w3.org/2000/svg">
<path d="M67.8333 36.9999C67.8333 48.0506 58.8423 57.0416 47.7917 57.0416C36.741 57.0416 27.75 48.0506 27.75 36.9999C27.75 25.9492 36.741 16.9583 47.7917 16.9583C58.8423 16.9583 67.8333 25.9492 67.8333 36.9999ZM46.25 33.4202C46.25 32.674 46.7248 32.156 47.1503 32.156H51.6458C52.9223 32.156 53.9583 31.12 53.9583 29.8435C53.9583 28.567 52.9223 27.531 51.6458 27.531H50.1041V26.9791C50.1041 25.7026 49.0681 24.6666 47.7917 24.6666C46.5152 24.6666 45.4792 25.7026 45.4792 26.9791V27.8362C43.253 28.5947 41.625 30.7962 41.625 33.4202C41.625 36.67 44.104 39.3124 47.1503 39.3124H48.4361C48.8616 39.3124 49.3364 39.8335 49.3364 40.5797C49.3364 41.3258 48.8616 41.8438 48.4361 41.8438H43.9375C42.661 41.8438 41.625 42.8798 41.625 44.1563C41.625 45.4328 42.661 46.4688 43.9375 46.4688H45.4792V47.0207C45.4792 48.2972 46.5152 49.3332 47.7917 49.3332C49.0681 49.3332 50.1041 48.2972 50.1041 47.0207V46.1636C52.3303 45.4051 53.9583 43.2036 53.9583 40.5797C53.9583 37.3298 51.4793 34.6874 48.433 34.6874H47.1472C46.7248 34.6874 46.25 34.1663 46.25 33.4202Z" fill="#2E7FFF"/>
<path d="M43.1666 11.2233V9.25C43.1666 7.55416 41.7791 6.16666 40.0833 6.16666H38.5416C36.8458 6.16666 35.4583 7.55416 35.4583 9.25C35.4583 10.9458 34.0708 12.3333 32.375 12.3333H16.9583C15.2625 12.3333 13.875 10.9458 13.875 9.25C13.875 7.55416 12.4875 6.16666 10.7917 6.16666H9.24999C7.55416 6.16666 6.16666 7.55416 6.16666 9.25V64.75C6.16666 66.4458 7.55416 67.8333 9.24999 67.8333H40.0833C41.7791 67.8333 43.1666 66.4458 43.1666 64.75V62.8075C44.6775 63.0541 46.2191 63.2083 47.7916 63.2083C48.3158 63.2083 48.8091 63.2083 49.3333 63.1775V64.75C49.3333 69.8375 45.1708 74 40.0833 74H9.24999C4.1625 74 0 69.8375 0 64.75V9.25C0 4.1625 4.1625 0 9.24999 0H40.0833C45.1708 0 49.3333 4.1625 49.3333 9.25V10.8225C48.8091 10.7917 48.3158 10.7917 47.7916 10.7917C46.2191 10.7917 44.6775 10.9458 43.1666 11.2233Z" fill="#2E7FFF"/>
</svg>
