<svg width="43" height="43" viewBox="0 0 43 43" fill="none" xmlns="http://www.w3.org/2000/svg">
<path d="M16.918 20.7881C19.549 18.5223 23.4743 18.54 26.0812 20.7881H38.8763C39.3102 20.7881 39.7342 20.8334 40.1434 20.9198C40.1261 16.4267 38.4909 12.0966 35.5351 8.71837C34.6458 7.70234 33.657 6.79334 32.5874 6.00127L31.7814 12.496C31.699 13.1176 31.1688 13.5688 30.5587 13.5688C29.8063 13.5688 29.235 12.9073 29.3327 12.1716L30.2795 4.54144C29.322 4.02931 28.3208 3.60198 27.2866 3.2644C27.3042 3.53076 27.299 2.97689 27.299 11.0633C27.299 14.2613 24.6971 16.8623 21.5 16.8623C18.3029 16.8623 15.701 14.2613 15.701 11.0633C15.701 2.96289 15.6959 3.52903 15.7134 3.2644C14.6793 3.60198 13.678 4.02931 12.7205 4.54144L13.6673 12.1716C13.7571 12.8475 13.2812 13.4684 12.6052 13.5581C11.9331 13.6483 11.3086 13.1755 11.2187 12.496L10.4126 6.00127C9.34303 6.79334 8.35417 7.70234 7.46494 8.71837C4.50906 12.0966 2.87386 16.4267 2.85657 20.9198C3.26578 20.8334 3.68981 20.7881 4.12372 20.7881H16.918Z" fill="white"/>
<path d="M38.8763 23.2581H27.9288C28.7996 25.1891 28.7571 27.4952 27.7279 29.4333H34.9852C34.5619 35.3302 29.6293 39.9987 23.6264 39.9987H19.3736C13.3707 39.9987 8.43815 35.3301 8.01478 29.4333H15.2721C14.244 27.4988 14.1995 25.191 15.0712 23.2581H4.12372C2.0826 23.2581 0.421875 24.9188 0.421875 26.9599V28.1982C0.421875 28.88 0.975176 29.4333 1.65692 29.4333H5.53982C5.9674 36.6932 12.0083 42.4688 19.3736 42.4688H23.6264C30.9917 42.4688 37.0326 36.6932 37.4601 29.4333H41.3431C42.0248 29.4333 42.5781 28.88 42.5781 28.1982V26.9599C42.5781 24.9188 40.9174 23.2581 38.8763 23.2581Z" fill="white"/>
<path d="M22.2252 30.6547C24.7179 30.2506 26.4111 27.9023 26.007 25.4095C25.6029 22.9168 23.2546 21.2236 20.7618 21.6277C18.2691 22.0318 16.5759 24.3801 16.98 26.8729C17.3841 29.3656 19.7324 31.0588 22.2252 30.6547Z" fill="white"/>
<path d="M21.5 14.392C23.3385 14.392 24.8288 12.9017 24.8288 11.0632V3.64128C24.8288 1.80287 23.3385 0.3125 21.5 0.3125C19.6616 0.3125 18.1712 1.80287 18.1712 3.64128V11.0632C18.1712 12.9017 19.6616 14.392 21.5 14.392Z" fill="white"/>
</svg>
