<svg width="50" height="44" viewBox="0 0 50 44" fill="none" xmlns="http://www.w3.org/2000/svg">
<path d="M32.375 26.8786V21.2308C32.375 20.95 32.2687 20.6806 32.0796 20.482C31.8905 20.2834 31.634 20.1719 31.3665 20.1719H11.196C11.0087 20.1719 10.8251 20.2266 10.6658 20.33C10.5065 20.4334 10.3777 20.5814 10.294 20.7572C10.2102 20.9331 10.1748 21.1301 10.1916 21.3259C10.2084 21.5218 10.2768 21.7089 10.3892 21.8662L11.9524 24.0547L10.3892 26.2432C10.2768 26.4005 10.2084 26.5876 10.1916 26.7835C10.1748 26.9793 10.2102 27.1762 10.294 27.3521C10.3777 27.528 10.5065 27.676 10.6658 27.7793C10.8251 27.8827 11.0087 27.9375 11.196 27.9375H31.3665C31.634 27.9375 31.8905 27.8259 32.0796 27.6273C32.2687 27.4288 32.375 27.1594 32.375 26.8786Z" fill="white"/>
<path d="M35.5966 36.2885C35.5129 36.1126 35.3841 35.9647 35.2248 35.8613C35.0655 35.7579 34.8819 35.7031 34.6946 35.7031H14.5241C14.2567 35.7031 14.0001 35.8147 13.811 36.0133C13.6219 36.2119 13.5156 36.4812 13.5156 36.7621V42.4098C13.5156 42.6907 13.6219 42.96 13.811 43.1586C14.0001 43.3572 14.2567 43.4688 14.5241 43.4688H34.6946C34.8819 43.4688 35.0655 43.414 35.2248 43.3106C35.3841 43.2072 35.5129 43.0593 35.5967 42.8834C35.6804 42.7075 35.7159 42.5106 35.6991 42.3147C35.6822 42.1188 35.6138 41.9318 35.5014 41.7744L33.9382 39.5859L35.5014 37.3974C35.6138 37.2401 35.6822 37.053 35.699 36.8572C35.7158 36.6613 35.6804 36.4644 35.5966 36.2885Z" fill="white"/>
<path d="M20.2828 14.1016V19.0625H25.6078V14.1016C27.1602 13.9359 28.5965 13.2044 29.6408 12.0474C30.6851 10.8905 31.2637 9.38974 31.2656 7.83343V5.84292C31.2656 2.52224 29.2128 0.203125 26.2734 0.203125C26.0086 0.203125 25.7547 0.307982 25.5674 0.494629C25.3802 0.681276 25.275 0.934423 25.275 1.19838V7.50168H20.6156V1.19838C20.6156 0.934423 20.5104 0.681276 20.3232 0.494629C20.1359 0.307982 19.882 0.203125 19.6172 0.203125C16.6779 0.203125 14.625 2.52224 14.625 5.84292V7.83343C14.627 9.38971 15.2057 10.8904 16.25 12.0473C17.2942 13.2042 18.7304 13.9358 20.2828 14.1016Z" fill="white"/>
<path d="M30.1563 29.0469H26.8281V32.375L30.1563 29.0469Z" fill="white"/>
<path d="M19.0625 31.2656L15.7344 34.5938H19.0625V31.2656Z" fill="white"/>
<path d="M20.1719 29.0469H25.7188V34.5938H20.1719V29.0469Z" fill="white"/>
<path d="M1.08974 13.9533C2.20671 14.0794 3.3696 14.4381 4.24227 17.2508C4.30547 17.4543 4.43211 17.6322 4.60367 17.7586C4.77524 17.885 4.98273 17.9531 5.19581 17.9531C5.40889 17.9531 5.61638 17.885 5.78795 17.7586C5.95951 17.6322 6.08616 17.4543 6.14936 17.2508C7.02186 14.4384 8.18508 14.0794 9.30188 13.9533C9.52958 13.9274 9.74143 13.824 9.90189 13.6603C10.0623 13.4967 10.1616 13.2829 10.1831 13.0547C10.2046 12.8266 10.1469 12.598 10.0198 12.4073C9.89265 12.2166 9.7038 12.0755 9.48493 12.0076C6.67256 11.1352 6.31361 9.97201 6.18747 8.85504C6.15989 8.6112 6.0435 8.38606 5.86049 8.22259C5.67749 8.05911 5.4407 7.96875 5.19531 7.96875C4.94993 7.96875 4.71314 8.05911 4.53013 8.22259C4.34713 8.38606 4.23073 8.6112 4.20316 8.85504C4.07685 9.97184 3.71823 11.1349 0.905691 12.0076C0.686822 12.0755 0.497976 12.2166 0.370849 12.4073C0.243722 12.598 0.186051 12.8266 0.207516 13.0547C0.228982 13.2829 0.328277 13.4967 0.488735 13.6603C0.649194 13.824 0.86105 13.9274 1.08875 13.9533H1.08974Z" fill="white"/>
<path d="M49.0125 28.0385C49.0002 27.904 48.9534 27.7758 48.8773 27.6685C48.8011 27.5612 48.6987 27.479 48.5816 27.4311L45.6521 26.2348L44.9052 22.9433C44.8753 22.8117 44.8119 22.6918 44.7221 22.5971C44.6323 22.5024 44.5197 22.4368 44.3971 22.4076C44.2745 22.3785 44.1468 22.3869 44.0284 22.4321C43.9101 22.4772 43.8058 22.5572 43.7274 22.663L41.7664 25.3105L38.6425 25.0664C38.5175 25.0566 38.3925 25.0847 38.2816 25.1476C38.1707 25.2104 38.0782 25.3054 38.0147 25.4219C37.9512 25.5384 37.9191 25.6717 37.9221 25.8068C37.9251 25.942 37.963 26.0735 38.0316 26.1866L39.7504 29.0202L38.5656 32.162C38.5183 32.2874 38.5045 32.4245 38.5257 32.5579C38.5469 32.6912 38.6024 32.8155 38.6857 32.9167C38.769 33.0179 38.8769 33.0919 38.9971 33.1303C39.1174 33.1688 39.2452 33.1701 39.3662 33.1343L42.3877 32.2379L44.7793 34.4221C44.875 34.5095 44.9916 34.5663 45.1157 34.586C45.2398 34.6057 45.3665 34.5876 45.4816 34.5336C45.5966 34.4796 45.6954 34.392 45.7666 34.2806C45.8379 34.1692 45.8788 34.0385 45.8848 33.9033L46.0349 30.5148L48.6989 28.7241C48.8052 28.6527 48.8909 28.5506 48.9463 28.4295C49.0017 28.3083 49.0246 28.1729 49.0125 28.0385Z" fill="white"/>
</svg>
