<svg width="41" height="41" viewBox="0 0 41 41" fill="none" xmlns="http://www.w3.org/2000/svg">
<g clip-path="url(#clip10)">
<path d="M36.665 11.7425L21.2242 0.762446C20.7907 0.454185 20.2094 0.454185 19.7759 0.762446L4.33506 11.7425C4.0054 11.9769 3.8096 12.3563 3.8096 12.7609C3.8096 24.5417 9.83285 35.9774 20.0049 40.3665C20.3209 40.5029 20.6792 40.5029 20.9951 40.3665C31.1992 35.9636 37.1904 24.4988 37.1904 12.7609C37.1904 12.3563 36.9946 11.9769 36.665 11.7425ZM26.7117 19.3214L20.6546 32.0306C20.083 33.2299 18.277 32.8163 18.277 31.4929V23.4659H15.4163C14.4989 23.4659 13.8934 22.5073 14.2883 21.6786L20.3455 8.96945C20.9162 7.77194 22.7231 8.1808 22.7231 9.5071V17.5341H25.5837C26.5012 17.5342 27.1066 18.4928 26.7117 19.3214Z" fill="white"/>
</g>
<defs>
<clipPath id="clip10">
<rect width="39.9375" height="39.9375" fill="white" transform="translate(0.53125 0.53125)"/>
</clipPath>
</defs>
</svg>
