<svg width="42" height="26" viewBox="0 0 42 26" fill="none" xmlns="http://www.w3.org/2000/svg">
<path d="M40.715 0.558472H1.15091C0.674248 0.558472 0.287781 0.944896 0.287781 1.4216V24.3087C0.287781 24.7854 0.674248 25.1718 1.15091 25.1718H40.715C41.1917 25.1718 41.5781 24.7854 41.5781 24.3087V1.4216C41.5781 0.944853 41.1917 0.558472 40.715 0.558472ZM8.05679 20.5036H3.98932V5.13238H8.05679V20.5036ZM16.3335 20.7873C14.3943 20.7873 12.1715 20.0779 10.5161 18.5881L12.8336 15.7976C13.9214 16.6726 15.293 17.2874 16.4281 17.2874C17.6578 17.2874 18.1781 16.8854 18.1781 16.1996C18.1781 15.4666 17.3977 15.2301 16.097 14.7098L14.1815 13.9057C12.5261 13.2436 11.0836 11.8484 11.0836 9.62546C11.0836 7.00055 13.4484 4.84854 16.8064 4.84854C18.5564 4.84854 20.4955 5.51069 21.9143 6.90591L19.8806 9.45991C18.8401 8.72686 17.9414 8.34846 16.8064 8.34846C15.8132 8.34846 15.1983 8.70316 15.1983 9.38896C15.1983 10.122 16.0733 10.3822 17.4685 10.926L19.3367 11.6591C21.2522 12.4158 22.34 13.7401 22.34 15.8685C22.3401 18.4699 20.1645 20.7873 16.3335 20.7873ZM31.279 20.7873C27.0223 20.7873 24.1373 17.8077 24.1373 12.747C24.1373 7.68631 27.0224 4.84854 31.279 4.84854C35.5356 4.84854 38.4207 7.70996 38.4207 12.747C38.4208 17.8077 35.5357 20.7873 31.279 20.7873Z" fill="white"/>
<path d="M31.279 8.34863C29.4345 8.34863 28.2993 9.95669 28.2993 12.7472C28.2993 15.5376 29.4345 17.2876 31.279 17.2876C33.1235 17.2876 34.2586 15.5376 34.2586 12.7472C34.2586 9.95669 33.1236 8.34863 31.279 8.34863Z" fill="white"/>
</svg>
