<svg width="30" height="40" viewBox="0 0 30 40" fill="none" xmlns="http://www.w3.org/2000/svg">
<path d="M12.0318 16.6171L11.2832 18.2492H12.7804L12.0318 16.6171Z" fill="white"/>
<path d="M8.32407 7.70899V1.0376L1.65268 7.70899H8.32407Z" fill="white"/>
<path d="M28.6454 0.354126H10.6582V8.87621C10.6582 9.52083 10.1358 10.0433 9.49114 10.0433H0.96875V38.8169C0.96875 39.4615 1.49121 39.984 2.13583 39.984H28.6454C29.29 39.984 29.8125 39.4615 29.8125 38.8169V1.5212C29.8125 0.87659 29.29 0.354126 28.6454 0.354126ZM18.8015 17.0173C18.1568 17.0173 17.6344 16.4949 17.6344 15.8503C17.6344 15.2059 18.1568 14.6832 18.8015 14.6832H19.6248V13.8599C19.6248 13.2153 20.1472 12.6928 20.7918 12.6928C21.4364 12.6928 21.9589 13.2153 21.9589 13.8599V14.6832H22.7822C23.4268 14.6832 23.9493 15.2059 23.9493 15.8503C23.9493 16.4949 23.4268 17.0173 22.7822 17.0173H21.9589V17.8409C21.9589 18.4853 21.4364 19.008 20.7918 19.008C20.1472 19.008 19.6248 18.4853 19.6248 17.8409V17.0173H18.8015ZM6.93808 22.1228L10.9708 13.3317L10.9718 13.332C11.0842 13.0868 11.2808 12.8787 11.545 12.7575C12.131 12.4887 12.8237 12.7457 13.0924 13.3317L17.1252 22.1228C17.394 22.7088 17.137 23.4015 16.5511 23.6703C16.3935 23.7425 16.2281 23.7767 16.0652 23.7767C15.6231 23.7767 15.2001 23.5242 15.0036 23.0961L13.8514 20.5836H10.2122L9.05968 23.0961C8.86346 23.5242 8.44047 23.7767 7.99813 23.7767C7.83546 23.7767 7.67007 23.7425 7.51225 23.6703C6.92629 23.4015 6.66929 22.7088 6.93808 22.1228ZM7.99903 26.0933H22.7822C23.4268 26.0933 23.9493 26.6158 23.9493 27.2604C23.9493 27.905 23.4268 28.4275 22.7822 28.4275H7.99903C7.35442 28.4275 6.83195 27.905 6.83195 27.2604C6.83195 26.6158 7.35442 26.0933 7.99903 26.0933ZM7.99903 29.655H17.7478C18.3921 29.655 18.9148 30.1775 18.9148 30.8221C18.9148 31.4667 18.3921 31.9892 17.7478 31.9892H7.99903C7.35442 31.9892 6.83195 31.4667 6.83195 30.8221C6.83195 30.1775 7.35442 29.655 7.99903 29.655Z" fill="white"/>
</svg>
