<svg width="794" height="570" viewBox="0 0 794 570" fill="none" xmlns="http://www.w3.org/2000/svg">
<g clip-path="url(#clip0)">
<path opacity="0.15" d="M252.699 303.978C143.776 414.78 84.2599 503.858 169.652 535.273C236.688 559.905 396.555 519.687 485.667 546.337C525.937 558.371 632.92 599.8 711.115 532.77C780.658 473.169 857.559 280.154 708.365 307.693C648.526 318.677 697.287 131.234 583.997 121.947C503.7 115.324 344.317 210.782 252.699 303.978Z" fill="#2E7FFF"/>
<path opacity="0.42" d="M756.56 454.433C738.932 483.345 717.018 509.592 696.236 526.148C610.52 594.389 518.093 562.489 475.721 548.195C382 516.457 243.076 571.938 172.32 544.319C129.301 527.521 133.91 482.376 173.372 413.892C190.434 384.253 213.965 350.334 243.076 312.378C327.659 201.979 471.435 101.272 531.112 101.111C652.084 100.788 640.521 306.967 704.646 297.518C820.766 280.235 803.784 377.066 756.56 454.433Z" fill="#2E7FFF" fill-opacity="0.15"/>
<g opacity="0.47">
<path d="M736.146 187.675H722.846V174.388H717.526V187.675H704.226V192.99H717.526V206.276H722.846V192.99H736.146V187.675Z" fill="#2E7FFF"/>
</g>
<g opacity="0.63">
<path d="M165.77 128.408H233.372C233.372 128.408 246.23 128.327 248.737 120.089C250.354 114.921 246.472 109.025 238.143 107.491C228.844 105.795 227.55 105.633 225.609 97.5574C223.669 89.4007 220.03 86.6549 215.016 86.0088C209.437 85.2012 204.423 88.6739 199.652 94.7308C197.307 97.6382 189.625 92.0658 186.229 88.9162C181.943 84.9589 171.835 84.7974 167.873 93.3579C163.344 102.968 170.299 107.249 162.051 111.125C156.228 113.871 153.803 117.263 153.883 121.058C154.045 124.773 160.272 128.408 165.77 128.408Z" fill="#4C91FF"/>
<path opacity="0.48" d="M176.202 128.408C176.202 128.408 168.358 127.358 172.32 120.412C176.364 113.225 186.471 122.512 189.463 112.256C192.536 101.676 204.423 98.6881 208.547 108.056C211.944 115.728 216.229 117.505 227.146 115.648C237.982 113.79 237.982 127.358 231.998 128.408C225.933 129.457 176.202 128.408 176.202 128.408Z" fill="#71B2FF"/>
</g>
<g opacity="0.42">
<path d="M452.41 87.9572C451.941 92.1707 444.441 92.1707 444.441 92.1707H381.919C375.181 90.7662 385.318 89.1862 385.201 85.5579C385.084 81.9297 380.982 71.5716 386.959 69.6989C392.935 67.8263 392.935 71.0449 397.564 71.1034C402.193 71.2205 403.19 55.7711 410.69 54.4837C418.19 53.1377 421.94 57.3512 423.933 65.8366C425.925 74.322 433.073 71.5716 435.417 70.2256C437.761 68.8797 444.675 69.8745 442.449 77.1895C440.222 84.446 446.961 82.0467 448.719 82.4563C450.535 82.9245 452.82 83.8023 452.41 87.9572Z" fill="#4C91FF"/>
<path opacity="0.48" d="M402.486 92.1706C389.713 91.5269 391.529 83.217 398.268 85.1482C405.006 87.0793 405.006 82.1637 408.346 75.5509C411.686 68.9381 419.831 74.0293 420.3 81.1688C420.71 88.3083 427.858 79.1791 434.48 82.3392C441.101 85.4993 434.48 92.1706 434.48 92.1706H402.486Z" fill="#71B2FF"/>
</g>
<path d="M466.421 219.504H610.278C614.725 219.504 618.283 223.058 618.283 227.499V488.029C618.283 492.471 614.725 496.024 610.278 496.024H302.511C296.204 496.024 292.403 489.079 295.718 483.749L459.71 223.219C461.165 220.877 463.672 219.504 466.421 219.504Z" fill="#091D7B"/>
<path d="M627.178 389.503L620.547 382.396C617.717 383.688 614.968 385.142 612.461 386.838L614.968 396.286C612.38 398.305 610.035 400.567 608.014 402.989L598.714 400.163C596.935 402.666 595.318 405.331 593.943 408.077L600.817 415.023C599.604 418.011 598.714 421.08 598.148 424.31L588.606 426.49C588.283 429.559 588.202 432.628 588.445 435.697L597.825 438.2C598.067 439.816 598.31 441.35 598.714 442.965C599.119 444.581 599.604 446.115 600.17 447.569L593.054 454.191C594.348 457.017 595.803 459.763 597.501 462.267L606.962 459.763C608.984 462.348 611.167 464.69 613.674 466.709L610.844 475.996C613.351 477.773 616.019 479.388 618.768 480.761L625.723 473.896C628.715 475.108 631.787 475.996 635.022 476.561L637.205 486.091C640.278 486.414 643.351 486.495 646.424 486.252L648.931 476.884C650.548 476.642 652.084 476.4 653.701 475.996C655.319 475.592 656.855 475.108 658.311 474.542L664.941 481.649C667.772 480.357 670.521 478.903 673.028 477.207L670.521 467.758C673.109 465.739 675.454 463.559 677.475 461.055L686.775 463.882C688.554 461.378 690.171 458.713 691.546 455.968L684.672 449.022C685.885 446.034 686.775 442.965 687.341 439.735L696.883 437.554C697.206 434.486 697.287 431.417 697.044 428.348L687.664 425.844C687.422 424.229 687.179 422.695 686.775 421.08C686.37 419.464 685.885 417.93 685.319 416.476L692.435 409.854C691.141 407.027 689.686 404.282 687.988 401.778L678.527 404.282C676.505 401.697 674.241 399.355 671.815 397.336L674.645 388.049C672.138 386.272 669.47 384.657 666.72 383.284L659.766 390.149C656.774 388.937 653.701 388.049 650.467 387.484L648.284 377.954C645.211 377.631 642.138 377.55 639.065 377.792L636.558 387.161C634.941 387.403 633.405 387.645 631.787 388.049C630.251 388.533 628.715 389.018 627.178 389.503ZM637.044 409.369C649.658 406.22 662.354 413.892 665.427 426.49C668.5 439.008 660.898 451.768 648.284 454.837C635.75 457.906 622.973 450.314 619.901 437.716C616.828 425.198 624.51 412.438 637.044 409.369Z" fill="#2E7FFF"/>
<path d="M633.971 396.933C614.483 401.778 602.677 421.403 607.448 440.866C612.299 460.329 631.949 472.12 651.437 467.355C670.925 462.509 682.732 442.885 677.961 423.422C673.109 403.959 653.459 392.087 633.971 396.933ZM637.044 409.37C649.658 406.22 662.354 413.892 665.427 426.49C668.5 439.008 660.898 451.768 648.284 454.837C635.75 457.906 622.973 450.315 619.901 437.716C616.828 425.198 624.51 412.438 637.044 409.37Z" fill="#6EDCFF"/>
<path d="M706.667 341.209L703.352 336.444C701.573 336.928 699.794 337.574 698.177 338.382L698.824 344.197C697.125 345.166 695.589 346.297 694.134 347.589L688.877 345.085C687.584 346.377 686.451 347.831 685.4 349.365L688.877 354.049C687.907 355.745 687.098 357.441 686.451 359.299L680.629 359.783C680.144 361.56 679.901 363.337 679.74 365.275L685.077 367.617C685.077 368.586 685.077 369.555 685.239 370.524C685.319 371.493 685.481 372.463 685.643 373.351L680.872 376.662C681.357 378.439 682.004 380.215 682.813 381.831L688.635 381.185C689.605 382.881 690.737 384.415 692.031 385.869L689.524 391.118C690.818 392.41 692.274 393.541 693.81 394.591L698.5 391.118C700.117 392.087 701.896 392.895 703.756 393.541L704.241 399.355C706.021 399.84 707.799 400.082 709.74 400.244L712.085 394.914C713.056 394.914 714.026 394.914 714.996 394.752C715.967 394.671 716.937 394.51 717.827 394.348L721.142 399.113C722.921 398.629 724.7 397.983 726.317 397.175L725.67 391.36C727.369 390.391 728.905 389.261 730.36 387.968L735.617 390.472C736.91 389.18 738.043 387.726 739.094 386.192L735.617 381.508C736.587 379.812 737.396 378.116 738.043 376.258L743.865 375.774C744.35 373.997 744.592 372.22 744.754 370.282L739.417 367.94C739.417 366.971 739.417 366.002 739.255 365.033C739.175 364.064 739.013 363.094 738.851 362.206L743.622 358.895C743.137 357.118 742.49 355.342 741.681 353.726L735.859 354.372C734.889 352.676 733.757 351.142 732.463 349.688L734.97 344.439C733.676 343.147 732.22 342.016 730.684 340.966L725.994 344.439C724.296 343.47 722.598 342.662 720.738 342.016L720.253 336.202C718.474 335.717 716.694 335.475 714.835 335.313L712.49 340.643C711.519 340.643 710.549 340.643 709.578 340.805C708.608 340.886 707.638 341.047 706.667 341.209ZM711.034 355.745C717.665 355.099 723.568 359.945 724.215 366.567C724.862 373.189 720.01 379.085 713.379 379.731C706.748 380.377 700.845 375.531 700.198 368.909C699.551 362.287 704.403 356.391 711.034 355.745Z" fill="#2E7FFF"/>
<path d="M710.164 346.889C698.684 348.043 690.209 358.281 691.364 369.75C692.52 381.219 702.768 389.686 714.248 388.531C725.728 387.377 734.203 377.139 733.048 365.67C731.892 354.201 721.645 345.734 710.164 346.889ZM711.089 356.279C717.407 355.664 723.031 360.282 723.648 366.594C724.264 372.906 719.641 378.525 713.323 379.14C707.005 379.756 701.381 375.138 700.764 368.826C700.148 362.514 704.771 356.895 711.089 356.279Z" fill="#6EDCFF"/>
<path opacity="0.12" d="M734.322 502.001C734.322 502.808 734.242 503.616 733.999 504.262H614.24C614.24 504.262 608.741 504.262 599.685 504.262H473.052C474.589 501.193 477.985 498.528 482.271 497.317C487.203 495.944 495.613 493.44 494.885 489.967C492.136 477.207 485.829 468.001 502.082 452.818C507.177 448.053 522.46 443.773 537.096 451.445C548.74 457.583 556.423 434.809 580.762 422.453C581.49 422.129 582.218 421.726 582.946 421.403C596.935 414.942 614.483 415.669 626.046 427.46C630.736 432.224 634.375 438.847 636.477 447.569C643.513 477.773 660.171 457.664 663.001 454.272C671.168 444.419 695.346 449.668 699.066 463.559C706.182 489.644 713.621 485.526 719.929 487.141C726.155 488.675 734.484 494.167 734.322 502.001Z" fill="#8D9294"/>
<path d="M730.441 506.119C730.441 506.927 730.36 507.735 730.118 508.381H610.359C610.359 508.381 604.86 508.381 595.803 508.381H479.279C475.236 508.381 474.346 502.647 478.228 501.516C478.308 501.516 478.308 501.516 478.389 501.516C483.322 500.143 491.732 497.64 491.004 494.167C488.255 481.407 481.947 472.2 498.201 457.018C503.295 452.253 518.578 447.973 533.215 455.645C544.859 461.782 552.541 439.008 576.881 426.652C577.609 426.329 578.337 425.925 579.064 425.602C593.054 419.141 610.601 419.868 622.165 431.659C626.855 436.424 630.494 443.046 632.596 451.768C639.631 481.972 656.289 461.863 659.119 458.471C667.287 448.619 691.465 453.868 695.185 467.759C702.301 493.844 709.74 489.725 716.047 491.34C722.193 492.875 730.603 498.366 730.441 506.119Z" fill="#F7F9FF"/>
<path d="M557.878 521.948H113.532C108.842 521.948 105.284 517.668 106.093 513.065L156.795 225.723C157.441 222.088 160.595 219.504 164.234 219.504H608.58C613.27 219.504 616.828 223.784 616.019 228.388L565.318 515.73C564.671 519.283 561.598 521.948 557.878 521.948Z" fill="#276FE0"/>
<path d="M547.851 496.024H529.252L569.361 251.969L580.358 238.644L547.851 496.024Z" fill="#6ECEDB"/>
<path d="M462.055 501.597H540.897L580.358 238.644L511.786 295.256L462.055 501.597Z" fill="#6ECEDB"/>
<path d="M187.765 238.644H580.358L533.134 505.877" fill="white"/>
<path d="M533.134 505.877H149.274C144.746 505.877 141.269 501.758 142.077 497.236L187.765 238.563H580.358L533.134 505.877Z" fill="white"/>
<path opacity="0.16" d="M533.134 505.877H148.546C144.342 505.877 141.188 502.081 141.916 497.963L187.684 238.563H580.277L533.134 505.877Z" fill="#6ECEDB"/>
<path opacity="0.16" d="M528.12 505.877H147.657C143.937 505.877 141.188 502.566 141.754 498.932L186.876 243.57C187.361 240.744 189.868 238.644 192.779 238.644H573.242C576.962 238.644 579.711 241.955 579.145 245.589L534.023 500.951C533.538 503.777 531.031 505.877 528.12 505.877Z" fill="#276FE0"/>
<path d="M220.111 256.088C219.383 260.368 215.34 263.76 211.054 263.76C206.768 263.76 203.938 260.288 204.747 256.088C205.474 251.808 209.518 248.416 213.803 248.416C218.089 248.416 220.839 251.889 220.111 256.088Z" fill="#57ABEC"/>
<path d="M561.113 256.088C560.385 260.368 556.342 263.76 552.056 263.76C547.77 263.76 544.94 260.288 545.749 256.088C546.476 251.808 550.52 248.416 554.805 248.416C559.01 248.416 561.84 251.889 561.113 256.088Z" fill="#57ABEC"/>
<path d="M257.955 322.15H195.043C193.911 322.15 193.183 321.261 193.426 320.131L198.682 290.573C198.844 289.442 199.895 288.554 201.027 288.554H263.939C265.071 288.554 265.799 289.442 265.556 290.573L260.3 320.131C260.057 321.261 259.006 322.15 257.955 322.15Z" fill="white"/>
<path d="M330.49 321.907H267.659C266.526 321.907 265.799 321.019 266.041 319.888L271.297 290.33C271.459 289.2 272.51 288.311 273.642 288.311H336.554C337.686 288.311 338.414 289.2 338.172 290.33L332.916 319.888C332.673 321.019 331.622 321.907 330.49 321.907Z" fill="white"/>
<path d="M403.51 322.149H340.598C339.466 322.149 338.738 321.261 338.98 320.13L344.237 290.572C344.398 289.442 345.449 288.553 346.582 288.553H409.493C410.626 288.553 411.353 289.442 411.111 290.572L405.855 320.13C405.612 321.261 404.561 322.149 403.51 322.149Z" fill="white"/>
<path d="M475.316 322.149H412.404C411.272 322.149 410.545 321.261 410.787 320.13L416.043 290.572C416.205 289.442 417.256 288.553 418.388 288.553H481.3C482.432 288.553 483.16 289.442 482.917 290.572L477.661 320.13C477.5 321.261 476.448 322.149 475.316 322.149Z" fill="white"/>
<path d="M547.204 322.149H484.373C483.241 322.149 482.513 321.261 482.756 320.13L488.012 290.572C488.174 289.442 489.225 288.553 490.357 288.553H553.269C554.401 288.553 555.129 289.442 554.886 290.572L549.63 320.13C549.388 321.261 548.336 322.149 547.204 322.149Z" fill="white"/>
<path d="M250.92 361.722H188.008C186.876 361.722 186.148 360.834 186.391 359.703L191.647 330.145C191.809 329.014 192.86 328.126 193.992 328.126H256.904C258.036 328.126 258.764 329.014 258.521 330.145L253.265 359.703C253.103 360.834 252.052 361.722 250.92 361.722Z" fill="white"/>
<path d="M323.535 361.479H260.624C259.491 361.479 258.764 360.591 259.006 359.46L264.262 329.902C264.424 328.772 265.475 327.883 266.607 327.883H329.519C330.651 327.883 331.379 328.772 331.137 329.902L325.88 359.46C325.638 360.591 324.587 361.479 323.535 361.479Z" fill="white"/>
<path d="M396.474 361.722H333.562C332.43 361.722 331.703 360.833 331.945 359.703L337.201 330.145C337.363 329.014 338.414 328.126 339.546 328.126H402.458C403.59 328.126 404.318 329.014 404.076 330.145L398.819 359.703C398.658 360.833 397.606 361.722 396.474 361.722Z" fill="white"/>
<path d="M468.362 361.722H405.45C404.318 361.722 403.59 360.833 403.833 359.703L409.089 330.145C409.251 329.014 410.302 328.126 411.434 328.126H474.346C475.478 328.126 476.206 329.014 475.963 330.145L470.707 359.703C470.464 360.833 469.494 361.722 468.362 361.722Z" fill="white"/>
<path d="M540.25 361.722H477.338C476.206 361.722 475.478 360.833 475.721 359.703L480.977 330.145C481.139 329.014 482.19 328.126 483.322 328.126H546.234C547.366 328.126 548.094 329.014 547.851 330.145L542.595 359.703C542.352 360.833 541.301 361.722 540.25 361.722Z" fill="white"/>
<path d="M243.966 401.052H181.135C180.002 401.052 179.275 400.164 179.517 399.033L184.773 369.475C184.935 368.344 185.986 367.456 187.118 367.456H250.03C251.162 367.456 251.89 368.344 251.648 369.475L246.391 399.033C246.149 400.164 245.098 401.052 243.966 401.052Z" fill="white"/>
<path d="M316.581 400.809H253.669C252.537 400.809 251.809 399.921 252.052 398.79L257.308 369.232C257.47 368.101 258.521 367.213 259.653 367.213H322.565C323.697 367.213 324.425 368.101 324.182 369.232L318.926 398.79C318.764 399.921 317.713 400.809 316.581 400.809Z" fill="white"/>
<path d="M389.52 401.051H326.689C325.557 401.051 324.829 400.163 325.072 399.032L330.328 369.474C330.49 368.344 331.541 367.455 332.673 367.455H395.585C396.717 367.455 397.445 368.344 397.202 369.474L391.946 399.032C391.703 400.163 390.652 401.051 389.52 401.051Z" fill="white"/>
<path d="M461.408 401.051H398.496C397.364 401.051 396.636 400.163 396.879 399.032L402.135 369.474C402.297 368.344 403.348 367.455 404.48 367.455H467.392C468.524 367.455 469.252 368.344 469.009 369.474L463.753 399.032C463.591 400.163 462.54 401.051 461.408 401.051Z" fill="white"/>
<path d="M533.296 401.051H470.384C469.252 401.051 468.524 400.163 468.766 399.032L474.023 369.474C474.184 368.344 475.235 367.455 476.368 367.455H539.279C540.412 367.455 541.139 368.344 540.897 369.474L535.641 399.032C535.398 400.163 534.428 401.051 533.296 401.051Z" fill="white"/>
<path d="M237.011 440.624H174.099C172.967 440.624 172.239 439.736 172.482 438.605L177.738 409.047C177.9 407.916 178.951 407.028 180.083 407.028H242.995C244.127 407.028 244.855 407.916 244.612 409.047L239.356 438.605C239.114 439.736 238.143 440.624 237.011 440.624Z" fill="white"/>
<path d="M309.627 440.381H246.715C245.583 440.381 244.855 439.493 245.098 438.362L250.354 408.804C250.515 407.674 251.567 406.785 252.699 406.785H315.611C316.743 406.785 317.471 407.674 317.228 408.804L311.972 438.362C311.729 439.493 310.678 440.381 309.627 440.381Z" fill="white"/>
<path d="M382.566 440.623H319.654C318.522 440.623 317.794 439.735 318.037 438.604L323.293 409.047C323.454 407.916 324.506 407.028 325.638 407.028H388.55C389.682 407.028 390.41 407.916 390.167 409.047L384.911 438.604C384.668 439.735 383.617 440.623 382.566 440.623Z" fill="white"/>
<path d="M454.453 440.623H391.542C390.41 440.623 389.682 439.735 389.924 438.604L395.18 409.047C395.342 407.916 396.393 407.028 397.526 407.028H460.437C461.57 407.028 462.297 407.916 462.055 409.047L456.799 438.604C456.556 439.735 455.505 440.623 454.453 440.623Z" fill="white"/>
<path d="M526.341 440.623H463.429C462.297 440.623 461.569 439.735 461.812 438.604L467.068 409.047C467.23 407.916 468.281 407.028 469.413 407.028H532.325C533.457 407.028 534.185 407.916 533.942 409.047L528.686 438.604C528.444 439.735 527.392 440.623 526.341 440.623Z" fill="white"/>
<path d="M230.138 479.711H167.226C166.094 479.711 165.366 478.823 165.609 477.692L170.865 448.134C171.027 447.004 172.078 446.115 173.21 446.115H236.122C237.254 446.115 237.982 447.004 237.739 448.134L232.483 477.692C232.24 478.823 231.189 479.711 230.138 479.711Z" fill="white"/>
<path d="M302.672 479.549H239.761C238.629 479.549 237.901 478.661 238.143 477.531L243.399 447.973C243.561 446.842 244.612 445.954 245.745 445.954H308.656C309.789 445.954 310.516 446.842 310.274 447.973L305.018 477.531C304.856 478.661 303.805 479.549 302.672 479.549Z" fill="white"/>
<path d="M375.611 479.711H312.7C311.567 479.711 310.84 478.823 311.082 477.692L316.338 448.134C316.5 447.003 317.551 446.115 318.683 446.115H381.595C382.727 446.115 383.455 447.003 383.213 448.134L377.956 477.692C377.795 478.823 376.744 479.711 375.611 479.711Z" fill="white"/>
<path d="M447.499 479.711H384.587C383.455 479.711 382.728 478.823 382.97 477.692L388.226 448.134C388.388 447.003 389.439 446.115 390.571 446.115H453.483C454.615 446.115 455.343 447.003 455.1 448.134L449.844 477.692C449.683 478.823 448.631 479.711 447.499 479.711Z" fill="white"/>
<path d="M519.387 479.711H456.475C455.343 479.711 454.615 478.823 454.858 477.692L460.114 448.215C460.276 447.084 461.327 446.196 462.459 446.196H525.371C526.503 446.196 527.231 447.084 526.988 448.215L521.732 477.773C521.57 478.823 520.519 479.711 519.387 479.711Z" fill="white"/>
<path d="M249.222 299.456H206.93C205.798 299.456 204.989 298.487 205.232 297.356C205.474 296.226 206.526 295.257 207.739 295.257H250.03C251.162 295.257 251.971 296.226 251.729 297.356C251.486 298.487 250.354 299.456 249.222 299.456Z" fill="#091D7B"/>
<path d="M247.766 307.451H205.474C204.342 307.451 203.534 306.482 203.776 305.351C204.019 304.221 205.07 303.252 206.283 303.252H248.575C249.707 303.252 250.516 304.221 250.273 305.351C250.03 306.482 248.979 307.451 247.766 307.451Z" fill="#091D7B"/>
<path d="M223.103 315.608H204.019C202.887 315.608 202.078 314.639 202.321 313.508C202.563 312.378 203.615 311.408 204.828 311.408H223.911C225.043 311.408 225.852 312.378 225.609 313.508C225.367 314.639 224.235 315.608 223.103 315.608Z" fill="#E34899"/>
<path d="M369.385 456.937H327.093C325.961 456.937 325.153 455.968 325.395 454.837C325.638 453.707 326.689 452.737 327.902 452.737H370.194C371.326 452.737 372.134 453.707 371.892 454.837C371.649 456.049 370.517 456.937 369.385 456.937Z" fill="#091D7B"/>
<path d="M368.01 465.013H325.719C324.586 465.013 323.778 464.044 324.02 462.913C324.263 461.782 325.314 460.813 326.527 460.813H368.738C369.87 460.813 370.679 461.782 370.436 462.913C370.274 464.044 369.142 465.013 368.01 465.013Z" fill="#091D7B"/>
<path d="M343.266 473.17H324.182C323.05 473.17 322.242 472.2 322.484 471.07C322.727 469.939 323.778 468.97 324.991 468.97H344.075C345.207 468.97 346.015 469.939 345.773 471.07C345.53 472.2 344.398 473.17 343.266 473.17Z" fill="#E34899"/>
<path d="M519.953 418.415H477.661C476.529 418.415 475.721 417.445 475.963 416.315C476.206 415.184 477.257 414.215 478.47 414.215H520.762C521.894 414.215 522.702 415.184 522.46 416.315C522.217 417.445 521.085 418.415 519.953 418.415Z" fill="#091D7B"/>
<path d="M518.497 426.41H476.206C475.074 426.41 474.265 425.441 474.508 424.31C474.75 423.179 475.802 422.21 477.014 422.21H519.306C520.438 422.21 521.247 423.179 521.004 424.31C520.762 425.521 519.71 426.41 518.497 426.41Z" fill="#091D7B"/>
<path d="M493.834 434.567H474.75C473.618 434.567 472.81 433.597 473.052 432.467C473.295 431.336 474.346 430.367 475.559 430.367H494.643C495.775 430.367 496.584 431.336 496.341 432.467C496.098 433.678 494.966 434.567 493.834 434.567Z" fill="#E34899"/>
<path d="M424.615 432.709L431.569 436.747C431.893 436.908 432.297 436.666 432.297 436.262L432.378 427.702C432.378 427.54 432.459 427.379 432.62 427.298L439.898 421.241C440.222 420.999 440.141 420.514 439.817 420.434L431.488 419.222C431.327 419.222 431.246 419.141 431.165 418.98L428.658 411.227C428.577 410.904 428.092 410.904 427.849 411.227L422.674 418.98C422.593 419.141 422.432 419.222 422.27 419.222L413.456 420.434C413.051 420.514 412.809 420.918 413.051 421.241L418.227 427.298C418.308 427.379 418.308 427.54 418.308 427.702L415.316 436.262C415.154 436.666 415.558 436.908 415.882 436.747L424.291 432.709C424.291 432.628 424.453 432.628 424.615 432.709Z" fill="#FFB600"/>
<path d="M211.701 393.137L218.655 397.175C218.979 397.336 219.383 397.094 219.383 396.69L219.464 388.13C219.464 387.968 219.545 387.807 219.706 387.726L226.984 381.669C227.308 381.427 227.227 380.942 226.903 380.861L218.574 379.65C218.413 379.65 218.332 379.569 218.251 379.408L215.744 371.655C215.663 371.332 215.178 371.332 214.935 371.655L209.76 379.408C209.679 379.569 209.518 379.65 209.356 379.65L200.542 380.861C200.137 380.942 199.895 381.346 200.137 381.669L205.313 387.726C205.394 387.807 205.394 387.968 205.394 388.13L202.402 396.69C202.24 397.094 202.644 397.336 202.968 397.175L211.377 393.137C211.458 393.056 211.62 393.056 211.701 393.137Z" fill="#FFB600"/>
<path d="M369.87 344.681L379.008 337.009C379.574 336.525 379.736 335.717 379.331 335.232C378.927 334.748 378.118 334.748 377.552 335.232L368.415 342.905L361.946 335.232C361.541 334.748 360.733 334.748 360.167 335.232C359.601 335.717 359.439 336.525 359.843 337.009L366.231 344.681L357.094 352.353C356.528 352.838 356.366 353.646 356.77 354.13C356.932 354.372 357.256 354.534 357.579 354.534C357.902 354.534 358.226 354.453 358.549 354.211L367.687 346.539L374.156 354.211C374.318 354.453 374.641 354.534 374.965 354.534C375.288 354.534 375.612 354.372 375.935 354.13C376.501 353.646 376.663 352.838 376.258 352.353L369.87 344.681Z" fill="#E34899"/>
<path d="M374.965 355.503C374.318 355.503 373.752 355.261 373.428 354.776L367.606 347.831L359.196 354.857C358.226 355.665 356.77 355.584 356.043 354.695C355.315 353.807 355.557 352.434 356.528 351.546L364.938 344.52L359.115 337.574C358.388 336.686 358.549 335.313 359.52 334.425C360.49 333.617 361.946 333.698 362.673 334.506L368.496 341.451L376.905 334.425C377.876 333.617 379.331 333.698 380.059 334.586C380.787 335.475 380.544 336.848 379.574 337.736L371.164 344.843L376.986 351.788C377.714 352.676 377.552 354.049 376.582 354.938C376.097 355.261 375.531 355.503 374.965 355.503ZM367.849 345.085L374.884 353.484H374.965C375.046 353.484 375.207 353.403 375.288 353.323C375.531 353.161 375.531 352.919 375.45 352.919L368.415 344.52L378.28 336.282C378.523 336.121 378.523 335.879 378.442 335.879C378.28 335.879 378.118 335.879 378.037 335.959L368.172 344.277L361.137 335.879C360.975 335.879 360.814 335.879 360.733 336.04C360.571 336.202 360.49 336.444 360.571 336.444L367.606 344.843L357.741 353.08C357.498 353.242 357.498 353.484 357.579 353.484C357.741 353.484 357.822 353.484 357.983 353.403L367.849 345.085Z" fill="#E34899"/>
<path d="M296.002 392.659C301.7 387.448 302.774 379.357 298.401 374.588C294.028 369.818 285.864 370.176 280.166 375.386C274.468 380.597 273.394 388.688 277.767 393.457C282.14 398.227 290.304 397.87 296.002 392.659Z" fill="#E34899"/>
<path d="M285.449 391.037C285.044 391.037 284.721 390.876 284.478 390.553L279.384 383.769C278.98 383.203 279.141 382.315 279.788 381.831C280.435 381.346 281.325 381.346 281.729 381.911L285.853 387.403L294.182 378.116C294.748 377.47 295.637 377.308 296.204 377.793C296.77 378.277 296.77 379.085 296.204 379.731L286.581 390.472C286.257 390.795 285.853 391.037 285.449 391.037C285.53 391.037 285.53 391.037 285.449 391.037Z" fill="white"/>
<path d="M209.574 471.391C215.272 466.18 216.347 458.089 211.974 453.32C207.601 448.55 199.436 448.908 193.738 454.118C188.04 459.329 186.966 467.42 191.339 472.19C195.712 476.959 203.876 476.602 209.574 471.391Z" fill="#57ABEC"/>
<path d="M199.005 469.778C198.601 469.778 198.278 469.616 198.035 469.293L192.941 462.509C192.536 461.944 192.698 461.056 193.345 460.571C193.992 460.086 194.881 460.087 195.286 460.652L199.41 466.143L207.739 456.856C208.305 456.21 209.194 456.049 209.76 456.533C210.326 457.018 210.326 457.825 209.76 458.471L200.299 469.212C199.976 469.535 199.571 469.778 199.167 469.778C199.086 469.778 199.086 469.778 199.005 469.778Z" fill="white"/>
<path d="M300.004 316.577C293.697 316.577 289.492 311.489 290.624 305.19C291.756 298.891 297.74 293.803 304.047 293.803C310.355 293.803 314.56 298.891 313.427 305.19C312.376 311.408 306.311 316.577 300.004 316.577ZM303.481 297.195C299.115 297.195 294.91 300.748 294.182 305.109C293.373 309.47 296.365 313.024 300.732 313.024C305.099 313.024 309.303 309.47 310.031 305.109C310.759 300.748 307.848 297.195 303.481 297.195Z" fill="#28B5C8"/>
<path d="M430.922 395.721C424.615 395.721 420.41 390.633 421.542 384.334C422.674 378.035 428.658 372.947 434.965 372.947C441.273 372.947 445.478 378.035 444.346 384.334C443.214 390.633 437.23 395.721 430.922 395.721ZM434.319 376.42C429.952 376.42 425.747 379.973 425.019 384.334C424.211 388.695 427.203 392.249 431.569 392.249C435.936 392.249 440.141 388.695 440.869 384.334C441.596 379.973 438.685 376.42 434.319 376.42Z" fill="#28B5C8"/>
<path d="M442.001 313.508H381.595C378.28 313.508 376.016 310.762 376.582 307.451C377.148 304.14 380.382 301.394 383.698 301.394H444.103C447.418 301.394 449.683 304.14 449.117 307.451C448.551 310.762 445.316 313.508 442.001 313.508Z" fill="#E34899"/>
<path d="M212.348 258.834H212.267C210.65 258.834 209.599 257.542 209.922 256.007L220.596 195.357C220.839 193.742 222.375 192.531 223.992 192.531H224.073C225.69 192.531 226.742 193.823 226.418 195.357L215.744 256.007C215.421 257.542 213.965 258.834 212.348 258.834Z" fill="#091D7B"/>
<path d="M553.35 258.834H553.269C551.652 258.834 550.6 257.542 550.924 256.007L561.598 195.357C561.841 193.742 563.377 192.531 564.994 192.531H565.075C566.692 192.531 567.744 193.823 567.42 195.357L556.746 256.007C556.423 257.542 554.886 258.834 553.35 258.834Z" fill="#091D7B"/>
<path d="M380.706 188.816C379.574 195.842 355.396 210.378 350.301 213.447C349.654 213.851 349.331 214.013 349.331 214.013L348.037 213.205L345.773 211.832L341.083 209.005L364.857 188.493C365.342 188.008 365.423 187.2 365.018 186.635L354.183 168.787C353.536 167.657 351.838 167.899 351.595 169.191L346.986 190.835L344.641 191.804L326.689 199.072L306.392 190.835L301.783 169.191C301.54 167.899 299.761 167.657 299.195 168.787L288.117 186.554C287.713 187.12 287.794 187.927 288.279 188.412L312.053 208.925L303.805 213.932C303.805 213.932 273.642 196.649 272.429 188.735C271.217 180.901 291.999 146.417 304.128 141.329C308.98 139.31 313.023 138.018 316.177 137.21C320.867 135.999 323.535 135.918 323.535 135.918L324.344 138.422L326.446 144.721L328.306 139.31L329.438 135.999C329.438 135.999 336.797 136.322 348.846 141.41C352.808 143.106 357.741 147.951 362.512 153.928C367.121 159.742 371.568 166.607 374.884 172.825C378.846 179.851 381.191 185.989 380.706 188.816Z" fill="#FCCC20"/>
<path d="M323.616 135.999L324.425 138.502C319.331 137.533 316.258 137.372 316.258 137.372C321.029 136.16 323.616 135.999 323.616 135.999Z" fill="#D0EBF5"/>
<path opacity="0.15" d="M362.673 153.927C350.301 145.609 337.525 141.41 328.468 139.31L329.6 135.999C329.6 135.999 336.959 136.322 349.007 141.41C352.97 143.106 357.902 147.951 362.673 153.927Z" fill="url(#paint0_linear)"/>
<path opacity="0.15" d="M380.706 188.816C379.574 195.842 355.396 210.378 350.301 213.447L348.037 213.205L344.56 212.801L345.773 211.751L351.676 206.663C351.676 206.663 377.229 191.723 374.965 172.825C378.846 179.851 381.191 185.989 380.706 188.816Z" fill="url(#paint1_linear)"/>
<path opacity="0.15" d="M344.641 191.723L326.689 198.991L306.392 190.754L301.783 169.11C301.783 169.11 314.64 188.089 340.112 190.915C341.891 191.077 343.347 191.4 344.641 191.723Z" fill="url(#paint2_linear)"/>
<path d="M333.805 123.643V138.18C333.805 142.137 330.571 145.367 326.608 145.367C322.646 145.367 319.411 142.137 319.411 138.18V123.643H333.805Z" fill="#FDD1B1"/>
<path opacity="0.21" d="M319.492 124.612L319.897 123.562H333.805V137.937C326.851 137.21 321.918 133.172 319.411 130.75V124.612H319.492Z" fill="url(#paint3_linear)"/>
<path d="M340.598 105.23C340.598 108.945 338.819 113.063 336.635 115.728C333.805 119.12 331.46 120.574 326.689 120.574C321.918 120.574 319.896 120.655 317.147 117.182C314.964 114.517 312.619 108.945 312.619 105.23C312.619 96.7499 318.198 89.9661 326.689 89.9661C335.099 89.9661 340.598 96.8306 340.598 105.23Z" fill="#202952"/>
<path d="M338.091 105.23V119.766C338.091 125.823 332.916 130.83 326.608 130.83C320.301 130.83 315.125 125.904 315.125 119.766V105.23H338.091Z" fill="#FDD1B1"/>
<path d="M353.94 185.585V215.143C353.94 216.678 352.646 217.97 351.11 217.97H302.106C300.57 217.97 299.276 216.758 299.276 215.143V185.585C299.276 184.051 300.57 182.759 302.106 182.759H351.11C352.646 182.759 353.94 184.051 353.94 185.585Z" fill="#57ABEC"/>
<path opacity="0.3" d="M353.94 201.656V215.143C353.94 216.678 352.646 217.97 351.11 217.97H320.624L305.826 182.839H344.56L353.94 201.656Z" fill="url(#paint4_linear)"/>
<path d="M352.727 217.808H301.298V219.666H352.727V217.808Z" fill="#8ED2E8"/>
<path d="M332.996 200.364C332.996 203.918 330.166 206.744 326.608 206.744C323.05 206.744 320.22 203.918 320.22 200.364C320.22 196.811 323.05 193.984 326.608 193.984C330.166 193.984 332.996 196.811 332.996 200.364Z" fill="#DCF4FE"/>
<path d="M357.983 247.043C357.983 251.889 356.204 270.625 352.242 271.352C350.544 271.675 349.007 257.784 346.986 250.516C346.824 250.031 346.662 249.627 346.501 249.224C344.236 244.217 338.253 243.086 336.474 242.844C336.15 242.763 335.907 242.763 335.907 242.763L336.393 242.601L347.875 238.16C347.875 238.16 350.786 239.29 353.536 241.148C355.8 242.763 357.983 244.863 357.983 247.043Z" fill="#2E2E2E"/>
<path d="M351.352 252.292C350.786 248.335 348.28 247.608 346.501 249.224C344.236 244.216 338.253 243.086 336.474 242.844L336.393 242.601L347.875 238.16C347.875 238.16 350.786 239.29 353.536 241.148C354.344 248.335 351.999 257.057 351.352 252.292Z" fill="#FDD1B1"/>
<path d="M348.441 237.11L342.377 247.689L286.823 219.666L279.222 215.789C278.656 215.547 278.171 215.305 277.605 214.982C272.834 212.074 271.378 205.856 274.37 201.172C277.281 196.407 283.508 194.953 288.198 197.861C288.683 198.184 289.168 198.507 289.573 198.91L337.606 230.003L348.441 237.11Z" fill="#2E2E2E"/>
<path d="M318.603 242.844C318.603 242.844 317.228 242.924 315.449 243.409C312.619 244.217 308.818 246.155 307.605 250.516C305.584 257.703 304.047 271.594 302.349 271.352C298.306 270.625 296.608 251.969 296.608 247.043C296.608 244.378 299.6 242.036 302.349 240.421C304.613 239.048 306.716 238.24 306.716 238.24L316.339 241.955L318.603 242.844Z" fill="#2E2E2E"/>
<path d="M316.258 241.955L315.368 243.409C312.538 244.217 308.737 246.155 307.524 250.516C306.311 250.193 304.694 250.274 303.077 251.969C299.6 255.523 302.43 246.639 302.268 240.421C304.532 239.048 306.635 238.24 306.635 238.24L316.258 241.955Z" fill="#FDD1B1"/>
<path d="M376.42 215.062C381.11 212.155 382.647 205.937 379.655 201.253C376.744 196.568 370.517 195.034 365.827 198.022C365.342 198.345 364.857 198.668 364.372 199.072L305.422 237.19L311.487 247.77L374.722 215.87C375.369 215.628 375.935 215.385 376.42 215.062Z" fill="#2E2E2E"/>
<path d="M338.091 105.23V107.895C337.04 107.249 335.665 107.006 333.805 107.975C329.6 110.156 325.153 109.833 321.352 107.733C318.441 106.118 316.743 105.795 315.125 107.168V105.23H338.091Z" fill="#E8AF95"/>
<path d="M315.126 108.299C315.126 108.299 314.64 104.584 318.037 105.23C321.433 105.876 327.255 109.429 332.188 107.329C337.201 105.23 338.091 107.329 338.091 107.329C338.091 107.329 341.325 107.814 340.032 104.826C338.738 101.757 335.746 99.0919 331.864 99.6573C327.983 100.303 319.735 102.645 317.794 102.645C315.853 102.645 312.942 103.938 312.942 103.938L315.126 108.299Z" fill="#202952"/>
<path d="M311.972 119.524H314.398C314.802 119.524 315.045 119.201 315.045 118.878V109.025C315.045 108.621 314.721 108.379 314.398 108.379H311.972C311.568 108.379 311.325 108.702 311.325 109.025V118.797C311.325 119.201 311.648 119.524 311.972 119.524Z" fill="#333147"/>
<path d="M338.819 119.524H341.245C341.649 119.524 341.891 119.201 341.891 118.878V109.025C341.891 108.621 341.568 108.379 341.245 108.379H338.819C338.414 108.379 338.172 108.702 338.172 109.025V118.797C338.091 119.201 338.414 119.524 338.819 119.524Z" fill="#333147"/>
<path d="M334.452 124.612H328.63V124.289H334.452C337.444 124.289 339.87 121.866 339.87 118.878V118.07H340.193V118.878C340.193 122.028 337.606 124.612 334.452 124.612Z" fill="#333147"/>
<path d="M327.74 125.419H329.519C329.681 125.419 329.843 125.258 329.843 125.096V123.804C329.843 123.643 329.681 123.481 329.519 123.481H327.74C327.578 123.481 327.417 123.643 327.417 123.804V125.096C327.417 125.258 327.578 125.419 327.74 125.419Z" fill="#333147"/>
<path opacity="0.22" d="M147.576 536.404C217.558 536.404 274.289 531.957 274.289 526.471C274.289 520.985 217.558 516.537 147.576 516.537C77.5943 516.537 20.8628 520.985 20.8628 526.471C20.8628 531.957 77.5943 536.404 147.576 536.404Z" fill="#9FAAD4"/>
<path opacity="0.22" d="M339.951 530.024C464.417 530.024 565.318 525.577 565.318 520.091C565.318 514.605 464.417 510.157 339.951 510.157C215.484 510.157 114.584 514.605 114.584 520.091C114.584 525.577 215.484 530.024 339.951 530.024Z" fill="#9FAAD4"/>
<path opacity="0.12" d="M322.186 553.907C322.186 554.875 322.102 555.843 321.848 556.618H196.609C196.609 556.618 190.859 556.618 181.388 556.618H48.8769C50.4836 552.938 54.0353 549.743 58.5171 548.291C63.6755 546.645 72.4701 543.643 71.709 539.48C68.8339 524.181 62.2379 513.143 79.2352 494.94C84.5627 489.227 100.545 484.096 115.851 493.294C128.028 500.653 136.062 473.348 161.515 458.534C162.277 458.146 163.038 457.662 163.799 457.275C178.428 449.529 196.778 450.4 208.871 464.537C213.776 470.25 217.581 478.189 219.78 488.646C227.137 524.859 244.557 500.75 247.517 496.683C256.057 484.87 281.342 491.164 285.232 507.818C292.673 539.092 300.453 534.154 307.049 536.091C313.561 537.93 322.355 544.515 322.186 553.907Z" fill="#8D9294"/>
<path d="M315.675 556.327C315.675 557.296 315.59 558.264 315.336 559.039H190.098C190.098 559.039 184.348 559.039 174.876 559.039H53.0205C48.7923 559.039 47.8621 552.164 51.9212 550.808C52.0057 550.808 52.0057 550.808 52.0903 550.808C57.2487 549.162 66.0433 546.161 65.2822 541.997C62.407 526.699 55.8111 515.661 72.8083 497.458C78.1358 491.745 94.1183 486.613 109.424 495.812C121.601 503.17 129.635 475.866 155.089 461.051C155.85 460.664 156.611 460.18 157.372 459.793C172.001 452.047 190.352 452.918 202.444 467.054C207.349 472.767 211.154 480.707 213.353 491.164C220.71 527.377 238.13 503.267 241.09 499.2C249.631 487.388 274.915 493.681 278.805 510.335C286.247 541.61 294.026 536.672 300.622 538.608C307.134 540.351 315.844 546.935 315.675 556.327Z" fill="#F7F9FF"/>
<path opacity="0.22" d="M521.166 553.04C549.927 553.04 573.242 549.967 573.242 546.176C573.242 542.385 549.927 539.311 521.166 539.311C492.405 539.311 469.09 542.385 469.09 546.176C469.09 549.967 492.405 553.04 521.166 553.04Z" fill="#9FAAD4"/>
<path d="M532.667 301.637C533.233 296.306 527.088 288.715 531.94 280.639C536.791 272.563 531.293 260.368 535.498 252.858C538.732 247.124 545.929 243.57 552.317 247.689C558.705 251.808 568.086 245.509 571.886 255.846C576.657 268.687 584.905 266.183 584.097 279.347C583.207 292.43 593.477 297.114 587.331 305.594C581.186 314.073 565.983 314.073 555.875 310.52C545.767 307.047 531.131 314.962 532.667 301.637Z" fill="#FFB600"/>
<path d="M487.303 319.242C487.303 319.242 484.554 316.496 483.098 315.608C481.642 314.72 480.106 314.154 478.731 313.589C476.144 312.458 475.173 313.508 476.952 314.558C478.731 315.608 480.025 317.142 479.217 317.062C478.408 316.981 473.88 316.496 472.343 315.769C470.564 314.962 467.976 314.235 467.249 314.8C465.793 316.012 468.462 318.031 469.513 319.484C470.564 320.938 475.739 322.23 478.57 322.634C481.4 323.038 483.826 324.572 483.826 324.572L487.303 319.242Z" fill="#FDD1B1"/>
<path d="M540.35 293.641C540.35 293.641 530.808 296.71 526.118 308.097C521.427 319.565 513.503 331.033 512.452 330.629C511.481 330.225 486.979 317.385 486.979 317.385L483.017 324.007C483.017 324.007 508.893 342.097 515.363 343.066C524.824 344.439 535.579 320.13 535.579 320.13L540.35 293.641Z" fill="#FCCC20"/>
<path d="M515.443 518.718V546.095H510.834V538.665C510.834 538.665 507.276 545.772 505.093 546.095C503.718 546.338 498.139 546.257 493.529 546.176C492.397 546.176 491.993 544.642 492.963 543.995C497.168 541.653 503.233 539.231 504.527 532.285C505.659 526.228 506.225 518.314 506.225 518.314L515.443 518.718Z" fill="#37193B"/>
<path d="M569.784 518.072L572.452 544.965C572.533 545.611 571.967 546.257 571.32 546.257H558.382C557.654 546.257 557.169 545.611 557.25 544.965C557.412 543.349 560.242 540.442 560.97 537.454C562.587 530.832 561.617 517.183 561.617 517.183L569.784 518.072Z" fill="#37193B"/>
<path d="M570.916 354.372C570.916 354.372 579.973 368.182 577.062 406.139C574.151 444.096 574.312 446.034 574.312 446.034L571.967 520.656C571.967 520.656 565.175 522.271 561.374 520.656L548.032 401.213C548.032 401.213 531.616 440.462 528.058 449.184C524.5 457.906 528.058 480.842 516.171 521.302C516.171 521.302 509.055 522.998 504.608 521.302C504.608 521.302 503.961 449.992 507.195 438.201C510.43 426.329 529.595 364.871 532.91 357.845C536.145 350.819 570.916 354.372 570.916 354.372Z" fill="#202952"/>
<path d="M571.886 356.715C570.512 358.33 568.894 359.622 567.196 360.672C561.051 364.548 553.288 365.517 546.657 365.517C538.166 365.517 532.506 360.187 532.506 360.187C532.506 360.187 535.093 339.351 535.336 333.779C535.578 328.206 529.109 320.938 529.756 316.658C531.616 304.544 540.269 293.722 540.269 293.722C557.654 287.504 571.806 293.722 571.806 293.722C571.806 293.722 571.401 299.456 570.754 306.563C569.946 315.527 568.733 326.834 567.277 332.083C564.851 341.451 571.886 356.715 571.886 356.715Z" fill="#FCCC20"/>
<path opacity="0.15" d="M571.886 356.715C570.511 358.33 568.894 359.622 567.196 360.672L562.021 361.802C562.021 361.802 545.929 335.879 555.147 331.195C564.366 326.51 568.733 316.012 570.592 306.563H570.835C570.026 315.527 568.813 326.834 567.358 332.083C564.851 341.451 571.886 356.715 571.886 356.715Z" fill="url(#paint5_linear)"/>
<path d="M560.889 361.721H536.387L518.112 330.064H542.614L560.889 361.721Z" fill="#091D7B"/>
<path d="M542.371 346.054C542.371 346.054 537.762 344.924 535.498 344.439C533.719 344.035 531.293 343.47 531.454 344.439C531.616 345.408 534.527 345.893 534.527 346.458C534.446 347.023 529.999 346.458 526.603 344.762C523.206 343.066 525.794 350.9 532.101 351.384C538.409 351.869 543.988 350.254 543.988 350.254L542.371 346.054Z" fill="#FDD1B1"/>
<path d="M571.886 293.641C560.727 295.983 574.716 335.636 571.886 338.22C569.056 340.805 541.077 345.327 541.077 345.327L542.048 351.788C542.048 351.788 576.657 351.788 583.045 343.874C588.625 336.928 579.245 292.107 571.886 293.641Z" fill="#FCCC20"/>
<path d="M561.293 292.188C558.463 298.81 547.142 300.425 546.414 294.772C546.091 292.026 546.091 287.988 546.172 284.677C546.253 281.204 546.414 278.459 546.414 278.459C546.414 278.459 558.139 267.314 558.382 272.482C558.625 277.57 561.293 292.188 561.293 292.188Z" fill="#FDD1B1"/>
<path opacity="0.15" d="M558.382 276.197C556.927 283.546 549.244 287.181 546.172 288.392C546.252 284.919 546.414 282.174 546.414 282.174C546.414 282.174 558.14 271.109 558.382 276.197Z" fill="url(#paint6_linear)"/>
<path d="M540.754 258.43C539.622 257.865 538.328 258.592 538.247 259.884C537.6 266.425 536.468 283.062 541.158 284.435C551.104 287.342 555.148 277.813 556.522 276.359C557.897 274.905 562.91 275.147 563.476 271.998C564.042 268.848 561.374 268.444 559.999 269.01C558.625 269.575 556.118 270.221 557.735 265.456C559.352 260.692 550.943 262.307 546.899 261.015C544.635 260.207 542.371 259.238 540.754 258.43Z" fill="#FDD1B1"/>
</g>
<defs>
<linearGradient id="paint0_linear" x1="338.849" y1="142.862" x2="385.935" y2="154.868" gradientUnits="userSpaceOnUse">
<stop stop-color="white"/>
<stop offset="1"/>
</linearGradient>
<linearGradient id="paint1_linear" x1="355.679" y1="184.861" x2="385.454" y2="242.15" gradientUnits="userSpaceOnUse">
<stop stop-color="white"/>
<stop offset="1"/>
</linearGradient>
<linearGradient id="paint2_linear" x1="226.669" y1="95.8717" x2="447.53" y2="309.558" gradientUnits="userSpaceOnUse">
<stop stop-color="white"/>
<stop offset="1"/>
</linearGradient>
<linearGradient id="paint3_linear" x1="395.94" y1="136.774" x2="204.298" y2="118.301" gradientUnits="userSpaceOnUse">
<stop stop-color="white"/>
<stop offset="0.6599" stop-color="#6E6B6C"/>
<stop offset="1" stop-color="#231F20"/>
</linearGradient>
<linearGradient id="paint4_linear" x1="365.079" y1="168.929" x2="293.515" y2="231.519" gradientUnits="userSpaceOnUse">
<stop stop-color="white"/>
<stop offset="1"/>
</linearGradient>
<linearGradient id="paint5_linear" x1="552.3" y1="334.136" x2="571.903" y2="334.136" gradientUnits="userSpaceOnUse">
<stop stop-color="white"/>
<stop offset="1"/>
</linearGradient>
<linearGradient id="paint6_linear" x1="545.48" y1="282.331" x2="558.918" y2="280.841" gradientUnits="userSpaceOnUse">
<stop stop-color="white"/>
<stop offset="1"/>
</linearGradient>
<clipPath id="clip0">
<rect width="794" height="570" fill="white"/>
</clipPath>
</defs>
</svg>
