<svg width="427" height="426" viewBox="0 0 427 426" fill="none" xmlns="http://www.w3.org/2000/svg">
<path d="M322.335 260.865C297.714 318.818 232.111 351.294 175.22 342.522C165.959 341.103 140.595 336.846 118.103 316.819C74.8628 278.28 65.6015 201.945 100.485 148.121C125.88 108.969 171.412 86.7817 214.685 87.8782C224.011 88.1039 259.701 89.5874 291.099 115.452C295.713 119.257 305.878 128.287 315.042 142.606C336.534 176.242 338.405 223.101 322.335 260.865Z" fill="#E3EEFF"/>
<path d="M372.574 238.419C371.033 247.411 368.52 254.268 366.483 259.687C342.789 323.333 282.119 350.326 269.033 355.752C249.678 363.777 212.326 379.284 169.766 367.417C105.354 349.493 66.1699 279.26 64.4913 216.58C64.1791 205.116 61.1179 142.392 111.08 98.3387C141.327 71.6698 185.884 54.3296 229.604 58.8553C321.472 68.3172 384.12 170.312 372.574 238.419Z" fill="#F2F7FF" fill-opacity="0.64"/>
<path d="M105.131 84.2984C104.905 83.2987 106.099 82.5892 106.874 83.2664C114.747 90.1679 133.851 111.033 130.559 148.733C126.429 196.044 136.82 212.91 149.405 222.972C149.405 222.972 132.431 218.618 121.298 201.526C93.9016 159.601 109.391 102.165 105.131 84.2984Z" fill="url(#paint0_linear)"/>
<path d="M105.131 84.2984C104.905 83.2987 106.099 82.5892 106.874 83.2664C114.747 90.1679 133.851 111.033 130.559 148.733C126.429 196.044 136.82 212.91 149.405 222.972C149.405 222.972 132.431 218.618 121.298 201.526C93.9016 159.601 109.391 102.165 105.131 84.2984Z" fill="url(#paint1_linear)"/>
<path d="M111.456 98.8111C112.585 104.035 113.618 109.26 114.457 114.517C115.328 119.773 116.038 125.062 116.555 130.351C117.071 135.64 117.49 140.961 117.684 146.283C117.91 151.604 117.878 156.925 117.878 162.246C117.878 167.6 117.845 172.953 118.362 178.371C118.878 183.757 120.04 189.175 122.169 194.206C122.686 195.463 123.267 196.721 123.88 197.914C124.493 199.14 125.138 200.333 125.816 201.494C127.171 203.848 128.688 206.106 130.398 208.266C133.786 212.556 137.82 216.297 142.209 219.457C142.66 219.78 143.306 219.683 143.661 219.231C143.983 218.78 143.887 218.135 143.435 217.812C142.37 217.006 141.337 216.2 140.337 215.361C139.821 214.942 139.337 214.491 138.853 214.071C138.368 213.62 137.884 213.201 137.4 212.717C135.529 210.911 133.754 208.944 132.141 206.88C128.914 202.752 126.3 198.14 124.267 193.335C123.267 190.916 122.46 188.433 121.847 185.885C121.234 183.337 120.814 180.757 120.524 178.145C119.975 172.921 119.975 167.6 119.911 162.246C119.878 156.893 119.781 151.539 119.491 146.186C119.362 143.509 119.168 140.832 118.91 138.156C118.813 136.833 118.652 135.479 118.523 134.157C118.362 132.834 118.233 131.48 118.039 130.158C117.361 124.837 116.522 119.548 115.522 114.291C114.489 109.034 113.328 103.81 111.94 98.6498C111.908 98.4886 111.746 98.4241 111.617 98.4563C111.488 98.5208 111.424 98.6498 111.456 98.8111Z" fill="white"/>
<path d="M119.394 237.613C118.91 239.452 116.716 240.226 115.199 239.065C106.777 232.776 84.6403 212.813 83.2205 176.565C82.0265 145.96 78.4446 129.48 76.3149 122.127C75.8631 120.579 77.6702 119.354 78.9609 120.321C93.1594 131.222 136.723 170.824 119.394 237.613Z" fill="url(#paint2_linear)"/>
<path d="M119.394 237.613C118.91 239.452 116.716 240.226 115.199 239.065C106.777 232.776 84.6403 212.813 83.2205 176.565C82.0265 145.96 78.4446 129.48 76.3149 122.127C75.8631 120.579 77.6702 119.354 78.9609 120.321C93.1594 131.222 136.723 170.824 119.394 237.613Z" fill="url(#paint3_linear)"/>
<path d="M116.845 237.872C116.813 237.904 116.78 237.936 116.716 237.936C116.361 238.13 115.909 238.001 115.716 237.614C115.49 237.194 93.9016 196.012 90.2874 153.539C90.2551 153.119 90.5456 152.765 90.9651 152.732C91.3846 152.7 91.7395 152.99 91.7718 153.41C95.3214 195.56 116.813 236.517 117.006 236.904C117.2 237.259 117.103 237.646 116.845 237.872Z" fill="white"/>
<path d="M94.0952 326.365C94.0952 328.654 95.9668 330.525 98.2902 330.525H324.4C326.692 330.525 328.595 328.654 328.595 326.365L330.467 196.495C330.467 194.206 327.756 189.723 322.787 190.045L101.808 184.337C98.9356 184.273 96.1282 185.369 94.0952 187.401C92.0623 189.433 90.9328 192.206 90.9974 195.109L94.0952 326.365Z" fill="#2E7FFF"/>
<path d="M98.2257 322.333C98.2257 324.494 100 326.3 102.195 326.3H318.947C321.109 326.3 322.916 324.526 322.916 322.333L324.691 204.429C324.497 197.334 318.269 194.786 314.494 194.947L102.679 189.271C100.646 189.207 98.6775 190.013 97.2576 191.432C95.8378 192.851 95.031 194.818 95.0956 196.85L98.2257 322.333Z" fill="#FCCC20"/>
<g opacity="0.67">
<path opacity="0.67" d="M320.56 266.348C320.238 266.348 319.98 266.09 319.98 265.767L320.109 256.222C320.109 255.899 320.367 255.641 320.69 255.641C321.012 255.641 321.27 255.899 321.27 256.222L321.141 265.767C321.141 266.09 320.883 266.348 320.56 266.348Z" fill="#91B3FA"/>
<path opacity="0.67" d="M320.915 242.902C320.593 242.902 320.335 242.644 320.335 242.322L320.883 205.719C320.883 203.558 320.205 201.816 318.915 200.559C316.495 198.237 312.654 198.366 312.493 198.366L244.792 196.56C244.47 196.56 244.211 196.269 244.244 195.979C244.244 195.657 244.502 195.399 244.825 195.431L312.493 197.237C312.913 197.205 316.979 197.14 319.721 199.752C321.238 201.204 322.045 203.235 322.045 205.751L321.496 242.386C321.496 242.644 321.238 242.902 320.915 242.902Z" fill="#91B3FA"/>
</g>
<path d="M77.6056 341.296H340.535C341.535 341.296 342.374 340.49 342.374 339.458V331.686C342.374 330.686 341.568 329.848 340.535 329.848H77.6056C76.6053 329.848 75.7663 330.654 75.7663 331.686V339.458C75.7663 340.49 76.573 341.296 77.6056 341.296Z" fill="#2D74E6"/>
<g opacity="0.3">
<path opacity="0.3" d="M307.943 125.707C307.427 125.675 307.007 125.255 307.04 124.707C307.072 123.707 307.072 122.675 307.04 121.643C307.007 121.127 307.427 120.676 307.911 120.644C307.911 120.644 307.911 120.644 307.943 120.644C308.46 120.611 308.911 121.031 308.944 121.547C308.976 122.611 309.008 123.707 308.944 124.772C308.911 125.255 308.524 125.642 308.072 125.675C308.008 125.707 307.976 125.707 307.943 125.707ZM306.459 116.709C306.265 115.709 306.039 114.71 305.781 113.71C305.652 113.194 305.943 112.678 306.459 112.549C306.975 112.42 307.491 112.71 307.621 113.226C307.911 114.258 308.137 115.322 308.33 116.354C308.427 116.87 308.072 117.354 307.556 117.451C307.524 117.451 307.491 117.451 307.459 117.451C306.975 117.483 306.556 117.161 306.459 116.709ZM304.135 109.002C303.748 108.066 303.296 107.131 302.812 106.228C302.554 105.777 302.748 105.196 303.2 104.938C303.651 104.68 304.232 104.874 304.49 105.325C305.007 106.26 305.459 107.26 305.878 108.228C306.072 108.711 305.878 109.26 305.394 109.485C305.297 109.518 305.2 109.55 305.071 109.55C304.684 109.614 304.297 109.389 304.135 109.002ZM300.166 102.036C299.553 101.197 298.908 100.423 298.262 99.6491C297.908 99.2621 297.972 98.6494 298.359 98.3269C298.747 97.9721 299.36 98.0366 299.682 98.4236C300.392 99.2299 301.07 100.068 301.683 100.939C302.006 101.358 301.909 101.939 301.489 102.261C301.328 102.358 301.167 102.423 301.005 102.455C300.683 102.455 300.36 102.294 300.166 102.036ZM294.745 96.1339C293.971 95.4567 293.164 94.8117 292.357 94.2312C291.938 93.9087 291.841 93.3282 292.164 92.9089C292.486 92.4897 293.067 92.393 293.487 92.7154C294.358 93.3604 295.197 94.0377 296.004 94.7149C296.391 95.0697 296.455 95.6502 296.1 96.0372C295.939 96.2307 295.681 96.3597 295.455 96.3597C295.165 96.3597 294.939 96.2952 294.745 96.1339ZM288.13 91.5545C287.226 91.0707 286.291 90.6192 285.355 90.2322C284.871 90.0387 284.645 89.4582 284.871 88.9745C285.064 88.4907 285.645 88.265 286.129 88.4907C287.097 88.91 288.098 89.3937 289.034 89.9097C289.485 90.1677 289.679 90.716 289.421 91.1997C289.259 91.49 288.969 91.6835 288.646 91.6835C288.453 91.6835 288.291 91.6512 288.13 91.5545ZM252.957 91.103C252.698 90.6515 252.892 90.071 253.344 89.813C254.28 89.297 255.28 88.8455 256.248 88.4262C256.732 88.2327 257.281 88.4585 257.474 88.91C257.668 89.3937 257.442 89.942 256.99 90.1355C256.054 90.5225 255.119 90.974 254.215 91.4577C254.086 91.5222 253.957 91.5545 253.828 91.5545C253.505 91.6512 253.15 91.4577 252.957 91.103ZM280.676 88.5552C279.708 88.2972 278.675 88.0392 277.675 87.878C277.158 87.7812 276.836 87.2975 276.9 86.7815C276.997 86.2655 277.481 85.943 277.997 86.0075C279.062 86.201 280.095 86.459 281.128 86.717C281.644 86.846 281.934 87.362 281.773 87.878C281.676 88.265 281.321 88.5552 280.934 88.5552C280.869 88.6197 280.773 88.5875 280.676 88.5552ZM260.572 87.878C260.443 87.362 260.733 86.846 261.25 86.717C262.282 86.4268 263.347 86.201 264.412 86.0075C264.928 85.9108 265.412 86.2655 265.509 86.7815C265.606 87.2975 265.251 87.7812 264.735 87.878C263.734 88.0715 262.734 88.2972 261.734 88.5552C261.669 88.5875 261.605 88.5875 261.54 88.5875C261.088 88.6197 260.669 88.3295 260.572 87.878ZM272.738 87.3298C271.737 87.2975 270.705 87.2975 269.672 87.3298C269.156 87.362 268.704 86.9428 268.672 86.4268C268.639 85.9108 269.059 85.4593 269.543 85.427C269.543 85.427 269.543 85.427 269.575 85.427C270.64 85.3948 271.737 85.3948 272.802 85.427C273.318 85.4593 273.738 85.8785 273.706 86.4268C273.673 86.9105 273.286 87.2975 272.834 87.3298C272.802 87.3298 272.77 87.3298 272.738 87.3298Z" fill="#87B6FF"/>
<path opacity="0.3" d="M248.31 95.2632C248.503 95.2632 248.665 95.1987 248.826 95.0697C249.213 94.7794 249.6 94.4569 249.988 94.1667C250.407 93.8442 250.504 93.2637 250.181 92.8444C249.859 92.4252 249.278 92.3285 248.858 92.6509C248.439 92.9412 248.019 93.2637 247.632 93.5862C247.213 93.9087 247.148 94.5214 247.471 94.9084C247.697 95.1664 248.019 95.2632 248.31 95.2632Z" fill="#87B6FF"/>
</g>
<g opacity="0.3">
<path opacity="0.3" d="M234.498 120.579C234.95 120.547 235.337 120.192 235.37 119.74C235.402 119.257 235.467 118.773 235.531 118.289C235.596 117.773 235.241 117.289 234.724 117.225C234.208 117.16 233.724 117.515 233.659 118.031C233.595 118.547 233.53 119.063 233.466 119.579C233.401 120.095 233.789 120.547 234.305 120.611C234.402 120.579 234.466 120.579 234.498 120.579Z" fill="#87B6FF"/>
<path opacity="0.3" d="M271.64 160.987C271.124 160.987 270.672 160.568 270.672 160.052C270.672 159.536 271.092 159.117 271.608 159.085C272.608 159.085 273.609 159.02 274.609 158.923C275.125 158.859 275.577 159.246 275.642 159.762C275.706 160.278 275.319 160.729 274.803 160.794C274.351 160.826 273.931 160.858 273.48 160.891C272.867 160.955 272.253 160.955 271.64 160.987ZM278.772 159.246C278.643 158.73 278.965 158.214 279.482 158.117C280.45 157.891 281.45 157.601 282.386 157.311C282.87 157.15 283.419 157.408 283.58 157.924C283.741 158.407 283.483 158.956 282.967 159.117C281.966 159.439 280.934 159.73 279.901 159.988C279.837 159.988 279.804 160.02 279.74 160.02C279.288 160.02 278.869 159.697 278.772 159.246ZM266.477 160.697C265.445 160.568 264.38 160.407 263.347 160.181C262.831 160.084 262.508 159.568 262.605 159.052C262.702 158.536 263.218 158.214 263.734 158.311C264.702 158.504 265.703 158.698 266.703 158.794C267.219 158.859 267.607 159.343 267.542 159.859C267.478 160.31 267.123 160.665 266.671 160.697C266.606 160.697 266.542 160.697 266.477 160.697ZM286.484 156.73C286.258 156.247 286.452 155.699 286.904 155.473C287.807 155.021 288.711 154.538 289.55 154.022C290.001 153.764 290.582 153.893 290.84 154.344C291.099 154.796 290.97 155.376 290.518 155.634C289.614 156.182 288.678 156.698 287.71 157.15C287.581 157.214 287.484 157.246 287.355 157.246C287 157.279 286.645 157.085 286.484 156.73ZM258.41 158.762C257.41 158.407 256.442 157.988 255.473 157.569C254.989 157.343 254.796 156.795 255.022 156.311C255.248 155.827 255.796 155.634 256.28 155.86C257.184 156.279 258.12 156.666 259.088 156.988C259.572 157.15 259.83 157.698 259.668 158.214C259.539 158.569 259.217 158.827 258.829 158.827C258.636 158.827 258.507 158.827 258.41 158.762ZM250.923 155.118C250.02 154.538 249.149 153.957 248.31 153.312C247.89 152.99 247.826 152.409 248.116 151.99C248.439 151.571 249.02 151.506 249.439 151.796C250.246 152.409 251.085 152.99 251.924 153.506C252.376 153.796 252.505 154.376 252.214 154.796C252.053 155.054 251.762 155.215 251.472 155.247C251.311 155.279 251.085 155.247 250.923 155.118ZM244.437 149.926C243.695 149.184 242.953 148.41 242.275 147.604C241.953 147.217 241.985 146.604 242.372 146.282C242.759 145.959 243.373 145.991 243.695 146.378C244.341 147.152 245.018 147.894 245.728 148.604C246.083 148.958 246.083 149.571 245.728 149.926C245.567 150.087 245.341 150.184 245.115 150.216C244.889 150.216 244.631 150.119 244.437 149.926ZM239.21 143.444C238.629 142.541 238.113 141.638 237.629 140.702C237.37 140.251 237.564 139.67 238.016 139.412C238.468 139.187 239.048 139.348 239.307 139.799C239.758 140.67 240.275 141.573 240.823 142.412C241.114 142.863 240.985 143.444 240.533 143.702C240.404 143.798 240.242 143.831 240.081 143.863C239.726 143.895 239.403 143.734 239.21 143.444ZM235.563 135.962C235.208 134.962 234.886 133.962 234.628 132.93C234.498 132.414 234.789 131.898 235.305 131.769C235.822 131.64 236.338 131.93 236.467 132.446C236.725 133.414 237.015 134.381 237.37 135.317C237.532 135.8 237.306 136.349 236.79 136.542C236.693 136.574 236.628 136.574 236.531 136.607C236.08 136.607 235.692 136.381 235.563 135.962ZM233.627 127.867C233.53 127.093 233.466 126.319 233.401 125.545C233.369 125.255 233.369 124.997 233.369 124.707C233.337 124.191 233.756 123.739 234.273 123.707C234.789 123.675 235.241 124.094 235.273 124.61C235.273 124.868 235.305 125.126 235.305 125.416C235.337 126.158 235.434 126.9 235.499 127.641C235.563 128.157 235.208 128.641 234.692 128.706C234.66 128.706 234.66 128.706 234.628 128.706C234.144 128.738 233.692 128.383 233.627 127.867Z" fill="#87B6FF"/>
<path opacity="0.3" d="M294.261 152.893C294.455 152.893 294.648 152.829 294.777 152.7C295.165 152.377 295.584 152.055 295.971 151.7C296.359 151.345 296.391 150.765 296.068 150.378C295.713 149.991 295.132 149.958 294.745 150.281C294.39 150.603 294.003 150.926 293.616 151.216C293.196 151.539 293.132 152.151 293.454 152.538C293.648 152.796 293.971 152.925 294.261 152.893Z" fill="#87B6FF"/>
</g>
<path d="M296.036 136.768C296.133 136.607 296.133 136.414 296.036 136.252L292.906 131.866C293.874 129.544 294.455 127.061 294.616 124.481L299.36 121.934C299.521 121.837 299.618 121.643 299.586 121.482L298.521 115.129C298.488 114.935 298.359 114.806 298.166 114.774L292.874 113.871C291.873 111.485 290.518 109.324 288.84 107.421L290.389 102.261C290.453 102.068 290.389 101.874 290.227 101.778L284.968 98.0366C284.806 97.9398 284.613 97.9398 284.451 98.0366L280.063 101.165C277.739 100.197 275.255 99.6168 272.673 99.4555L270.124 94.7148C270.027 94.5536 269.833 94.4568 269.672 94.4891L263.315 95.5533C263.121 95.5856 262.992 95.7146 262.96 95.9081L262.056 101.197C259.669 102.197 257.506 103.551 255.603 105.228L250.44 103.68C250.246 103.616 250.052 103.68 249.955 103.841L246.148 109.034C246.051 109.195 246.051 109.388 246.148 109.55L249.278 113.936C248.31 116.258 247.729 118.741 247.568 121.321L242.824 123.869C242.663 123.965 242.566 124.159 242.598 124.32L243.663 130.673C243.695 130.867 243.824 130.996 244.018 131.028L249.31 131.931C250.31 134.317 251.666 136.478 253.344 138.381L251.795 143.541C251.73 143.734 251.795 143.928 251.956 144.025L257.216 147.766C257.377 147.862 257.571 147.862 257.732 147.766L262.121 144.637C264.444 145.605 266.929 146.185 269.511 146.347L272.06 151.087C272.157 151.249 272.35 151.345 272.512 151.313L278.869 150.249C279.062 150.217 279.191 150.088 279.224 149.894L280.127 144.605C282.515 143.605 284.677 142.251 286.581 140.574L291.744 142.122C291.938 142.186 292.131 142.122 292.228 141.961L296.036 136.768Z" fill="#87B6FF"/>
<path d="M270.576 129.383C266.994 129.093 264.348 125.932 264.638 122.385C264.767 120.643 265.574 119.095 266.929 117.967C268.252 116.838 269.93 116.322 271.673 116.451C275.255 116.741 277.901 119.902 277.61 123.449C277.352 126.706 274.706 129.19 271.544 129.383C271.189 129.383 270.898 129.383 270.576 129.383ZM267.897 119.095C266.897 119.966 266.251 121.159 266.155 122.482C265.929 125.223 267.962 127.609 270.705 127.867C273.447 128.093 275.835 126.061 276.094 123.32C276.319 120.579 274.286 118.193 271.544 117.935C271.285 117.902 271.06 117.902 270.801 117.935C269.704 117.999 268.704 118.418 267.897 119.095Z" fill="url(#paint4_linear)"/>
<path d="M271.963 138.736C272.512 138.704 273.06 138.639 273.609 138.542C273.77 138.51 273.964 138.478 274.125 138.446C274.964 138.284 275.803 138.059 276.578 137.736H276.61C276.642 137.736 276.674 137.704 276.707 137.704C276.771 137.672 276.836 137.672 276.9 137.639C277.062 137.575 277.158 137.414 277.126 137.252C277.126 137.22 277.126 137.188 277.094 137.123C277.029 136.93 276.803 136.833 276.61 136.898C275.609 137.285 274.545 137.575 273.48 137.768C268.155 138.639 263.024 136.64 259.668 132.899C257.797 130.835 256.474 128.19 255.99 125.255C255.893 124.739 255.828 124.223 255.796 123.707C255.57 120.224 256.538 116.806 258.604 113.936C260.959 110.646 264.477 108.453 268.478 107.776C276.739 106.389 284.613 112.001 285.968 120.289C286.065 120.805 286.097 121.321 286.129 121.837C286.258 124.062 285.936 126.287 285.097 128.351C285.064 128.416 285.064 128.448 285.064 128.513C285.064 128.642 285.161 128.771 285.29 128.835C285.484 128.9 285.71 128.803 285.774 128.609C286.646 126.449 287 124.094 286.839 121.772C286.807 121.224 286.742 120.708 286.646 120.16C285.193 111.485 276.965 105.583 268.284 107.034C264.089 107.744 260.378 110.034 257.926 113.484C255.764 116.516 254.731 120.095 254.957 123.74C254.989 124.288 255.054 124.836 255.151 125.384C255.861 129.577 258.152 133.286 261.605 135.737C264.735 137.962 268.317 138.962 271.963 138.736Z" fill="url(#paint5_linear)"/>
<g opacity="0.3">
<path opacity="0.3" d="M341.858 148.54C342.116 148.54 342.342 148.346 342.407 148.088C342.504 147.605 342.6 147.121 342.697 146.605C342.762 146.282 342.536 145.992 342.213 145.928C341.89 145.863 341.6 146.089 341.536 146.411C341.471 146.863 341.374 147.347 341.277 147.798C341.213 148.121 341.406 148.411 341.729 148.508C341.761 148.54 341.794 148.54 341.858 148.54Z" fill="#87B6FF"/>
<path opacity="0.3" d="M342.374 144.057C342.052 144.057 341.794 143.767 341.826 143.444C341.858 142.638 341.858 141.799 341.794 140.993C341.794 140.832 341.761 140.638 341.761 140.477C341.729 140.155 341.987 139.864 342.31 139.832C342.6 139.832 342.923 140.058 342.955 140.38C342.955 140.574 342.988 140.735 342.988 140.929C343.052 141.767 343.052 142.638 343.02 143.509C343.02 143.799 342.762 144.057 342.471 144.057C342.439 144.057 342.407 144.057 342.374 144.057ZM341.31 137.575C341.116 136.607 340.858 135.64 340.535 134.704C340.438 134.414 340.6 134.059 340.89 133.963C341.181 133.866 341.535 134.027 341.632 134.317C341.955 135.285 342.245 136.317 342.471 137.317C342.536 137.639 342.342 137.929 342.02 137.994C341.987 137.994 341.955 137.994 341.923 137.994C341.632 138.026 341.374 137.833 341.31 137.575ZM339.406 131.963C338.986 131.092 338.47 130.222 337.954 129.383C337.792 129.125 337.857 128.738 338.115 128.577C338.373 128.416 338.76 128.48 338.922 128.738C339.503 129.609 340.019 130.512 340.471 131.447C340.6 131.737 340.503 132.092 340.212 132.221C340.148 132.253 340.083 132.286 339.987 132.286C339.728 132.286 339.503 132.189 339.406 131.963ZM336.179 126.997C335.533 126.255 334.856 125.513 334.114 124.868C333.888 124.642 333.855 124.288 334.081 124.03C334.307 123.804 334.662 123.772 334.92 123.997C335.695 124.707 336.405 125.449 337.082 126.255C337.276 126.513 337.244 126.868 337.018 127.093C336.921 127.19 336.792 127.222 336.663 127.222C336.469 127.222 336.308 127.126 336.179 126.997ZM331.822 122.965C331.016 122.385 330.177 121.869 329.305 121.385C329.015 121.224 328.918 120.869 329.08 120.579C329.241 120.289 329.596 120.192 329.886 120.353C330.79 120.837 331.693 121.418 332.532 121.998C332.791 122.192 332.855 122.546 332.661 122.804C332.565 122.965 332.403 123.03 332.21 123.062C332.048 123.094 331.919 123.062 331.822 122.965ZM326.627 120.128C325.724 119.773 324.756 119.45 323.82 119.192C323.497 119.096 323.303 118.805 323.4 118.483C323.497 118.16 323.787 117.999 324.11 118.064C325.11 118.322 326.111 118.644 327.079 119.031C327.369 119.16 327.531 119.483 327.402 119.805C327.305 120.031 327.111 120.16 326.885 120.16C326.788 120.16 326.692 120.16 326.627 120.128ZM320.883 118.644C319.915 118.515 318.915 118.451 317.914 118.451C317.592 118.451 317.334 118.193 317.334 117.87C317.334 117.548 317.592 117.29 317.914 117.29C318.947 117.29 320.012 117.354 321.012 117.515C321.335 117.548 321.561 117.838 321.529 118.16C321.496 118.451 321.27 118.644 320.98 118.676C320.948 118.644 320.915 118.644 320.883 118.644ZM311.332 118.709C311.267 118.386 311.461 118.064 311.751 117.999C312.622 117.773 313.526 117.612 314.397 117.515C314.526 117.483 314.655 117.483 314.817 117.451C315.139 117.419 315.43 117.644 315.462 117.967C315.494 118.289 315.268 118.58 314.946 118.612C314.817 118.612 314.688 118.644 314.558 118.676C313.687 118.805 312.848 118.934 312.009 119.16C311.977 119.16 311.945 119.16 311.912 119.16C311.654 119.16 311.396 118.967 311.332 118.709Z" fill="#87B6FF"/>
</g>
<g opacity="0.3">
<path opacity="0.3" d="M319.012 167.728C317.979 167.792 316.979 167.76 315.946 167.696C315.623 167.664 315.365 167.405 315.397 167.083C315.43 166.761 315.688 166.535 316.011 166.535C316.979 166.599 317.947 166.599 318.915 166.567C319.237 166.535 319.528 166.793 319.528 167.115C319.56 167.438 319.334 167.696 319.012 167.728ZM321.367 166.922C321.303 166.599 321.529 166.309 321.851 166.245C322.819 166.083 323.755 165.858 324.691 165.567C325.014 165.471 325.336 165.664 325.433 165.954C325.53 166.277 325.336 166.599 325.046 166.696C324.078 166.986 323.077 167.212 322.077 167.405C322.045 167.405 322.045 167.405 322.013 167.405C321.69 167.405 321.432 167.212 321.367 166.922ZM312.913 167.277C311.912 167.083 310.912 166.825 309.944 166.503C309.621 166.406 309.46 166.083 309.557 165.761C309.653 165.438 309.976 165.277 310.299 165.374C311.235 165.664 312.17 165.922 313.139 166.116C313.461 166.18 313.655 166.47 313.59 166.793C313.526 167.051 313.3 167.244 313.042 167.277C313.009 167.309 312.945 167.309 312.913 167.277ZM327.143 165.342C327.014 165.051 327.143 164.697 327.434 164.568C328.337 164.181 329.209 163.729 330.048 163.245C330.338 163.084 330.693 163.181 330.854 163.439C331.016 163.729 330.919 164.084 330.661 164.245C329.789 164.761 328.854 165.245 327.95 165.632C327.886 165.664 327.821 165.664 327.757 165.664C327.466 165.696 327.24 165.567 327.143 165.342ZM307.104 165.406C306.168 164.987 305.265 164.471 304.426 163.955C304.168 163.794 304.071 163.439 304.232 163.149C304.394 162.891 304.749 162.794 305.039 162.955C305.878 163.471 306.717 163.923 307.621 164.342C307.911 164.471 308.04 164.826 307.911 165.116C307.814 165.309 307.621 165.438 307.427 165.438C307.298 165.438 307.201 165.438 307.104 165.406ZM301.909 162.149C301.102 161.504 300.36 160.827 299.65 160.085C299.424 159.859 299.424 159.472 299.65 159.246C299.876 159.021 300.263 159.021 300.489 159.246C301.167 159.956 301.877 160.601 302.651 161.214C302.909 161.407 302.941 161.794 302.748 162.02C302.651 162.149 302.49 162.213 302.328 162.246C302.167 162.31 302.038 162.246 301.909 162.149ZM297.649 157.795C297.036 156.989 296.455 156.118 295.939 155.247C295.778 154.957 295.875 154.602 296.165 154.441C296.455 154.28 296.81 154.377 296.972 154.635C297.456 155.473 298.004 156.279 298.585 157.053C298.779 157.311 298.746 157.666 298.488 157.86C298.392 157.924 298.295 157.956 298.166 157.989C297.972 158.021 297.778 157.956 297.649 157.795Z" fill="#87B6FF"/>
<path opacity="0.3" d="M332.855 162.6C332.952 162.6 333.081 162.568 333.178 162.471C333.565 162.181 333.952 161.859 334.339 161.536C334.598 161.31 334.598 160.956 334.404 160.698C334.178 160.44 333.823 160.44 333.565 160.633C333.21 160.956 332.855 161.246 332.468 161.536C332.21 161.73 332.177 162.117 332.371 162.342C332.5 162.536 332.694 162.633 332.855 162.6Z" fill="#87B6FF"/>
</g>
<path d="M334.404 151.603C334.469 151.507 334.469 151.378 334.404 151.249L332.306 148.314C332.952 146.766 333.339 145.089 333.468 143.38L336.631 141.67C336.727 141.606 336.792 141.477 336.792 141.348L336.082 137.091C336.05 136.962 335.953 136.865 335.824 136.833L332.274 136.22C331.597 134.608 330.693 133.157 329.596 131.899L330.628 128.448C330.661 128.319 330.628 128.19 330.532 128.126L327.014 125.61C326.918 125.546 326.788 125.546 326.659 125.61L323.723 127.706C322.174 127.061 320.496 126.674 318.786 126.545L317.075 123.385C317.011 123.288 316.882 123.224 316.753 123.224L312.493 123.933C312.364 123.965 312.267 124.062 312.235 124.191L311.622 127.739C310.008 128.416 308.556 129.319 307.298 130.415L303.845 129.383C303.716 129.351 303.587 129.383 303.522 129.48L301.005 132.995C300.941 133.092 300.941 133.221 301.005 133.35L303.103 136.285C302.457 137.833 302.07 139.51 301.941 141.219L298.779 142.928C298.682 142.993 298.617 143.122 298.617 143.251L299.327 147.508C299.36 147.637 299.456 147.733 299.586 147.766L303.135 148.378C303.813 149.991 304.716 151.442 305.813 152.7L304.781 156.151C304.749 156.28 304.781 156.409 304.878 156.473L308.395 158.989C308.492 159.053 308.621 159.053 308.75 158.989L311.686 156.892C313.235 157.537 314.913 157.924 316.624 158.053L318.334 161.214C318.398 161.311 318.528 161.375 318.657 161.375L322.916 160.666C323.045 160.633 323.142 160.537 323.174 160.408L323.787 156.86C325.401 156.183 326.853 155.28 328.111 154.183L331.564 155.215C331.693 155.248 331.822 155.215 331.887 155.119L334.404 151.603Z" fill="#87B6FF"/>
<path d="M317.366 146.733C316.204 146.637 315.107 146.088 314.365 145.185C313.59 144.282 313.235 143.154 313.332 141.96C313.526 139.542 315.688 137.736 318.108 137.929C320.528 138.123 322.335 140.283 322.142 142.702C322.045 143.863 321.496 144.96 320.593 145.701C319.851 146.314 318.979 146.669 318.011 146.733C317.785 146.733 317.592 146.733 317.366 146.733ZM314.494 142.057C314.429 142.928 314.688 143.766 315.268 144.444C315.817 145.121 316.624 145.508 317.495 145.572C318.366 145.637 319.205 145.379 319.851 144.798C320.528 144.25 320.916 143.444 320.98 142.573C321.141 140.799 319.786 139.219 318.011 139.058C317.85 139.058 317.689 139.058 317.527 139.058C315.946 139.187 314.623 140.412 314.494 142.057Z" fill="url(#paint6_linear)"/>
<path d="M318.334 153.248C318.689 153.216 319.076 153.184 319.431 153.119C320.173 152.99 320.883 152.797 321.593 152.539C321.625 152.539 321.658 152.506 321.69 152.506C321.916 152.41 322.077 152.184 322.045 151.926C322.045 151.861 322.013 151.797 322.013 151.732C321.883 151.442 321.561 151.281 321.238 151.41C320.593 151.668 319.915 151.861 319.205 151.958C319.173 151.958 319.141 151.958 319.076 151.99C317.43 152.248 315.785 152.087 314.268 151.539C313.429 151.249 312.654 150.829 311.912 150.313C311.912 150.313 311.912 150.313 311.88 150.313C311.848 150.313 311.848 150.281 311.816 150.281C309.686 148.765 308.266 146.476 307.846 143.896C307.782 143.573 307.75 143.218 307.717 142.896C307.588 140.638 308.201 138.413 309.524 136.575C311.041 134.446 313.332 133.027 315.914 132.608C318.495 132.189 321.109 132.769 323.239 134.317C325.369 135.833 326.788 138.123 327.208 140.703C327.272 141.025 327.305 141.38 327.337 141.703C327.434 143.154 327.208 144.573 326.659 145.927C326.627 146.024 326.627 146.089 326.627 146.185C326.627 146.411 326.788 146.605 326.982 146.701C327.272 146.83 327.627 146.669 327.757 146.379C328.337 144.863 328.595 143.251 328.499 141.67C328.466 141.283 328.434 140.929 328.37 140.574C327.886 137.671 326.304 135.124 323.916 133.414C321.529 131.705 318.624 131.028 315.72 131.512C312.816 131.995 310.267 133.576 308.556 135.962C307.072 138.058 306.362 140.509 306.523 143.057C306.556 143.444 306.588 143.799 306.652 144.186C307.717 149.668 312.784 153.603 318.334 153.248Z" fill="url(#paint7_linear)"/>
<path d="M263.057 116.548L120.169 115.677C115.457 115.645 111.714 119.58 111.94 124.256L121.524 321.785C121.685 324.817 124.17 327.171 127.171 327.171H275.384C278.417 327.171 280.934 324.784 281.063 321.753L289.614 145.895L263.057 116.548Z" fill="white"/>
<path d="M268.994 145.025C264.348 144.864 260.766 140.865 261.121 136.221L262.637 116.839L289.614 145.767L268.994 145.025Z" fill="#F3F3F3"/>
<path d="M144.306 153.055C164.119 153.603 240.146 155.667 259.346 156.183C261.766 156.247 263.702 157.795 263.605 159.601C263.508 161.311 261.637 162.633 259.313 162.601L144.338 159.892C142.112 159.827 140.272 158.537 140.079 156.892L140.014 156.473C139.756 154.57 141.757 152.99 144.306 153.055Z" fill="url(#paint8_linear)"/>
<path d="M142.015 173.114C142.338 173.566 142.918 173.824 143.596 173.856L222.494 176.629C223.495 176.661 224.301 176.113 224.334 175.372L224.527 171.469C224.559 170.695 223.753 170.05 222.72 170.018L145.984 168.212C142.563 168.148 140.369 170.857 142.015 173.114Z" fill="url(#paint9_linear)"/>
<path d="M142.37 188.207C162.183 188.755 238.209 190.819 257.41 191.335C259.83 191.4 261.766 192.948 261.669 194.754C261.572 196.463 259.701 197.785 257.377 197.753L142.402 195.044C140.176 194.979 138.336 193.689 138.143 192.045L138.078 191.625C137.82 189.723 139.821 188.142 142.37 188.207Z" fill="url(#paint10_linear)"/>
<path d="M140.079 208.299C140.401 208.75 140.982 209.008 141.66 209.04L220.558 211.814C221.558 211.846 222.365 211.298 222.397 210.556L222.591 206.654C222.623 205.88 221.817 205.235 220.784 205.203L144.048 203.397C140.627 203.3 138.433 206.009 140.079 208.299Z" fill="url(#paint11_linear)"/>
<path d="M149.534 272.217C150.211 263.607 153.116 255.189 157.698 247.804C159.989 244.128 162.699 240.645 165.797 237.581C166.604 236.839 167.378 236.065 168.185 235.324C169.024 234.614 169.831 233.905 170.702 233.195C171.573 232.55 172.445 231.873 173.348 231.228L174.736 230.325L175.414 229.873L175.768 229.648C175.898 229.583 176.059 229.486 176.22 229.39C178.64 228.067 182.093 228.003 184.417 230.357C184.997 230.905 185.385 231.583 185.675 232.26C185.804 232.582 185.933 232.937 186.03 233.26C186.127 233.582 186.191 233.905 186.256 234.259C186.45 235.549 186.417 236.775 186.288 237.936C186.224 238.516 186.127 239.097 186.03 239.645L185.707 241.225C185.514 242.29 185.256 243.321 185.03 244.386C184.578 246.482 184.029 248.546 183.481 250.642C181.254 258.93 178.285 266.993 174.607 274.733L173.187 277.635C172.703 278.603 172.219 279.538 171.703 280.505L170.928 281.924L170.541 282.634L170.121 283.376C169.541 284.343 168.895 285.311 168.153 286.214C167.411 287.117 166.539 287.987 165.475 288.729C164.41 289.439 163.087 290.051 161.602 290.116C161.247 290.148 160.86 290.116 160.505 290.084C160.118 290.051 159.795 289.955 159.44 289.858C158.73 289.664 158.085 289.342 157.504 288.923C156.342 288.084 155.503 286.955 154.955 285.698C154.439 284.472 154.245 283.182 154.213 281.957C154.213 280.699 154.374 279.538 154.632 278.409C154.89 277.28 155.213 276.248 155.568 275.216L156.084 273.668L156.665 272.153C158.246 268.089 160.376 264.252 162.829 260.672C165.281 257.092 168.185 253.803 171.348 250.868L171.928 250.32L172.542 249.804L173.8 248.739C174.22 248.385 174.671 248.062 175.091 247.74C175.51 247.417 175.93 247.062 176.382 246.772C177.285 246.159 178.156 245.514 179.092 244.966L179.77 244.547L180.125 244.321C180.189 244.289 180.222 244.257 180.318 244.224L180.544 244.095C181.157 243.773 181.835 243.547 182.513 243.483C183.9 243.322 185.385 243.741 186.45 244.708C186.998 245.192 187.45 245.901 187.644 246.611C187.869 247.32 187.837 248.03 187.773 248.643C187.708 249.255 187.579 249.836 187.418 250.384L186.998 251.932L186.127 254.996C184.997 259.059 183.804 263.123 182.642 267.186L180.867 266.864C180.996 265.509 181.383 264.123 182.126 262.865C182.513 262.252 182.965 261.672 183.578 261.188C184.158 260.704 184.868 260.382 185.578 260.156C186.321 259.962 187.095 259.866 187.869 259.995C188.257 260.059 188.644 260.156 188.999 260.349C189.192 260.414 189.354 260.543 189.547 260.64L189.902 260.865C190.774 261.349 191.871 261.446 192.774 261.059C193 260.962 193.194 260.833 193.42 260.704C193.517 260.64 193.613 260.543 193.71 260.478L193.839 260.349L194.001 260.188L195.291 258.801L197.905 256.028L200.519 253.254L201.81 251.868C202.132 251.545 202.584 251.223 203.1 251.126C203.617 251.029 204.133 251.094 204.585 251.287C205.037 251.481 205.424 251.835 205.682 252.255C205.94 252.674 206.069 253.222 206.005 253.738C206.005 253.867 205.972 253.996 205.94 254.093C205.908 254.19 205.876 254.351 205.843 254.415L205.682 254.867L205.392 255.738C205.004 256.931 204.682 258.124 204.424 259.317C204.165 260.543 203.939 261.736 203.778 262.994C203.746 263.155 203.746 263.316 203.714 263.445V263.832C203.714 263.961 203.714 264.09 203.746 264.187C203.778 264.316 203.746 264.445 203.81 264.542C203.907 265.026 204.165 265.445 204.488 265.832C204.811 266.219 205.23 266.477 205.682 266.67C205.908 266.767 206.166 266.832 206.392 266.896C206.65 266.928 206.876 266.961 207.134 266.928C207.618 266.896 208.102 266.767 208.522 266.477L208.683 266.38L208.812 266.251L209.103 266.025L209.78 265.38C211.587 263.607 213.298 261.801 214.911 259.866C218.17 256.028 221.074 251.932 223.591 247.578L224.527 245.934L224.979 245.095L225.205 244.676L225.269 244.579C225.269 244.579 225.269 244.579 225.269 244.611C225.269 244.676 225.302 244.708 225.302 244.676C225.302 244.676 225.302 244.676 225.334 244.676C225.366 244.676 225.399 244.676 225.399 244.644L225.334 244.74L225.173 244.902C225.076 244.998 224.947 245.127 224.85 245.224C224.624 245.45 224.43 245.676 224.237 245.901C223.43 246.837 222.72 247.804 222.075 248.836C221.752 249.352 221.462 249.9 221.171 250.416C221.042 250.674 220.913 250.965 220.784 251.255L220.59 251.674L220.494 251.868L220.429 252.061C220.074 253.029 220.074 254.125 220.526 255.06C220.978 255.996 221.752 256.77 222.752 257.124C223.236 257.35 223.753 257.382 224.269 257.382C224.785 257.318 225.302 257.253 225.753 256.995L226.108 256.834L226.496 256.608C226.754 256.447 227.044 256.286 227.302 256.125C227.851 255.802 228.367 255.48 228.884 255.125C233.046 252.384 236.757 248.997 239.855 245.095C240.178 244.708 240.726 244.644 241.146 244.934C241.533 245.256 241.598 245.805 241.307 246.224C238.08 250.287 234.208 253.803 229.916 256.641C229.368 256.995 228.819 257.35 228.27 257.673C228.012 257.834 227.722 257.995 227.431 258.156L227.012 258.414L226.496 258.64C225.818 258.963 225.076 259.124 224.301 259.156C223.559 259.156 222.785 259.059 222.075 258.769C220.655 258.253 219.526 257.124 218.88 255.77C218.235 254.415 218.235 252.738 218.751 251.384L218.848 251.126L218.945 250.9L219.138 250.449C219.267 250.158 219.429 249.868 219.558 249.546C219.848 248.965 220.171 248.385 220.526 247.836C221.204 246.708 222.01 245.643 222.849 244.644C223.075 244.386 223.269 244.16 223.527 243.902C223.624 243.773 223.753 243.676 223.882 243.547L224.043 243.386L224.14 243.289C224.205 243.225 224.269 243.193 224.334 243.128C224.592 242.935 224.914 242.773 225.269 242.773C225.624 242.741 225.947 242.838 226.237 242.999C226.786 243.289 227.206 243.934 227.141 244.644C227.109 244.805 227.109 244.998 227.044 245.127C227.012 245.192 226.98 245.289 226.947 245.353L226.883 245.45L226.657 245.869L226.205 246.708L225.269 248.385C222.688 252.835 219.719 257.028 216.395 260.93C214.75 262.897 212.975 264.768 211.168 266.541L210.49 267.219L210.038 267.573L209.812 267.767L209.554 267.928C208.909 268.347 208.134 268.573 207.36 268.638C206.973 268.67 206.586 268.638 206.198 268.573C205.811 268.476 205.456 268.412 205.101 268.251C204.391 267.96 203.746 267.509 203.23 266.928C202.713 266.348 202.326 265.638 202.165 264.864C202.1 264.671 202.1 264.477 202.068 264.284C202.036 264.09 202.003 263.897 202.036 263.703L202.068 263.123L202.132 262.639C202.294 261.349 202.52 260.059 202.81 258.801C203.1 257.544 203.423 256.286 203.843 255.06L204.165 254.125L204.327 253.674C204.359 253.577 204.359 253.577 204.359 253.512C204.359 253.48 204.391 253.448 204.391 253.416C204.391 253.287 204.391 253.19 204.327 253.061C204.262 252.964 204.165 252.867 204.036 252.803C203.778 252.706 203.552 252.738 203.326 252.964L202.036 254.351L199.422 257.124L196.808 259.898L195.517 261.285L195.356 261.446L195.162 261.639C195.033 261.768 194.872 261.897 194.711 262.026C194.388 262.252 194.065 262.446 193.71 262.607C192.258 263.22 190.58 263.091 189.225 262.317L188.773 262.026C188.676 261.962 188.579 261.897 188.483 261.865C188.289 261.768 188.031 261.704 187.805 261.672C187.321 261.575 186.805 261.639 186.321 261.768C185.32 262.059 184.513 262.736 183.933 263.671C183.352 264.606 183.061 265.735 182.932 266.864L181.157 266.541C182.19 262.446 183.19 258.318 184.223 254.222L184.997 251.158L185.385 249.642C185.514 249.159 185.578 248.707 185.611 248.256C185.643 247.836 185.611 247.449 185.514 247.159C185.417 246.869 185.256 246.643 185.03 246.417C184.513 245.966 183.771 245.772 183.061 245.869C182.706 245.901 182.351 246.03 182.029 246.224L181.9 246.288L181.738 246.385L181.416 246.611L180.77 247.03C179.899 247.578 179.092 248.223 178.253 248.836C177.834 249.126 177.446 249.481 177.027 249.804C176.64 250.126 176.22 250.449 175.833 250.771L174.671 251.803L174.09 252.319L173.542 252.867C170.573 255.705 167.863 258.866 165.604 262.284C163.345 265.703 161.409 269.379 159.957 273.217L159.408 274.668L158.924 276.119C158.601 277.087 158.311 278.087 158.117 279.022C157.698 280.925 157.698 282.731 158.343 284.214C158.666 284.924 159.118 285.504 159.698 285.891C159.989 286.085 160.279 286.246 160.602 286.31C160.925 286.407 161.247 286.439 161.57 286.407C162.215 286.375 162.893 286.117 163.571 285.633C164.248 285.149 164.894 284.504 165.475 283.795C166.055 283.085 166.604 282.279 167.088 281.408L167.443 280.763L167.798 280.086L168.54 278.699C169.024 277.764 169.476 276.829 169.96 275.894L171.315 273.056C174.8 265.477 177.672 257.608 179.834 249.546C180.351 247.514 180.867 245.514 181.319 243.483C181.545 242.451 181.771 241.451 181.964 240.419L182.255 238.871C182.351 238.387 182.416 237.904 182.48 237.452C182.577 236.517 182.61 235.614 182.48 234.808C182.351 234.001 182.093 233.389 181.738 233.034C181.577 232.84 181.351 232.711 181.093 232.582C180.802 232.486 180.512 232.357 180.189 232.357C179.544 232.292 178.834 232.453 178.221 232.776C178.124 232.808 178.06 232.84 177.963 232.905L177.64 233.098L176.995 233.518L175.704 234.356C174.865 234.937 174.058 235.549 173.219 236.162C172.412 236.775 171.638 237.452 170.831 238.097C170.057 238.774 169.315 239.484 168.572 240.161C165.636 242.999 162.958 246.159 160.667 249.578C156.084 256.383 152.922 264.219 151.502 272.411C151.405 272.894 150.953 273.249 150.437 273.152C149.824 273.12 149.501 272.701 149.534 272.217Z" fill="url(#paint12_linear)"/>
<path d="M244.276 244.58C243.986 244.58 243.663 244.418 243.502 244.16C243.243 243.741 243.372 243.161 243.792 242.903L252.892 237.194C253.311 236.936 253.892 237.065 254.15 237.485C254.408 237.904 254.279 238.484 253.86 238.742L244.76 244.451C244.599 244.515 244.437 244.58 244.276 244.58Z" fill="url(#paint13_linear)"/>
<path d="M287.291 342.134C290.098 342.392 294.971 342.779 298.811 342.941C301.134 343.037 302.457 342.812 303.232 342.521C303.232 342.618 303.232 342.683 303.232 342.779C303.2 343.198 302.877 343.521 302.49 343.521C295.229 343.94 289.453 343.65 287.388 343.521C286.968 343.489 286.71 343.037 286.936 342.683C287 342.489 287.162 342.296 287.291 342.134Z" fill="url(#paint14_linear)"/>
<path d="M298.811 342.941C294.971 342.779 290.098 342.392 287.291 342.134C290.066 338.748 298.811 336.458 298.811 336.458H301.296C303.006 338.909 303.232 341.231 303.232 342.489C302.457 342.812 301.134 343.037 298.811 342.941Z" fill="url(#paint15_linear)"/>
<path d="M301.715 332.427L301.489 337.007C301.457 337.49 301.102 337.91 300.586 338.006C300.102 338.071 299.424 338.071 298.714 337.845C298.295 337.716 297.972 337.329 297.875 336.878L297.068 332.427H301.715Z" fill="url(#paint16_linear)"/>
<path d="M333.855 342.908C335.082 342.747 335.63 342.102 335.856 341.425C335.856 341.425 335.856 341.425 335.856 341.457C336.05 342.167 335.63 342.908 334.791 343.263C333.791 343.682 332.694 343.747 331.822 343.715C330.919 343.682 330.08 343.295 329.596 342.683C330.532 343.134 331.822 343.166 333.855 342.908Z" fill="url(#paint17_linear)"/>
<path d="M328.111 332.395H330.144C333.242 332.331 335.211 338.877 335.856 341.425C335.63 342.102 335.082 342.747 333.855 342.908C331.822 343.199 330.532 343.134 329.628 342.683C327.95 340.457 327.111 337.232 326.724 335.362C326.272 333.201 328.111 332.395 328.111 332.395Z" fill="url(#paint18_linear)"/>
<path d="M329.886 328.138L331.016 332.653C331.145 333.201 330.887 333.782 330.37 334.04C329.725 334.362 328.854 334.717 328.015 334.62C327.627 334.588 327.305 334.298 327.176 333.943L325.498 329.202L329.886 328.138Z" fill="url(#paint19_linear)"/>
<path d="M331.242 329.428C329.822 330.686 325.239 330.847 325.239 330.847C308.718 291.212 301.973 285.601 301.973 285.601C304.361 300.565 302.361 333.685 302.361 333.685C299.618 334.878 296.133 333.685 296.133 333.685C295.907 309.208 292.131 287.826 287.678 270.992C298.843 270.734 304.781 266.928 306.717 265.38C316.043 280.376 331.242 329.428 331.242 329.428Z" fill="url(#paint20_linear)"/>
<path d="M303.877 219.779C306.007 230.325 305.233 249.191 304.749 257.769C304.62 260.188 306.298 263.542 307.653 265.832C307.879 266.186 307.75 266.638 307.362 266.831C305.071 267.992 297.327 271.636 288.356 272.088C287.743 272.12 287.226 271.701 287.065 271.12C280.418 246.288 272.673 230.389 272.673 230.389C281.224 216.844 303.877 219.779 303.877 219.779Z" fill="#2E7FFF"/>
<path d="M300.844 284.633C300.941 284.633 301.038 284.601 301.134 284.569C301.393 284.408 301.457 284.085 301.296 283.827C301.199 283.666 299.069 280.215 294.745 278.151C294.487 278.022 294.164 278.119 294.035 278.409C293.906 278.667 294.003 278.99 294.293 279.119C298.327 281.054 300.392 284.375 300.392 284.408C300.489 284.569 300.65 284.633 300.844 284.633Z" fill="url(#paint21_linear)"/>
<path d="M317.14 250.03C316.462 254.932 314.462 260.285 310.428 265.993L308.911 264.735C308.911 264.735 310.686 257.608 309.686 249.481C312.17 249.03 315.075 249.514 317.14 250.03Z" fill="url(#paint22_linear)"/>
<path d="M301.522 232.808L303.877 219.812C303.877 219.812 319.657 231.873 317.14 250.062C315.075 249.546 312.138 249.03 309.686 249.514C308.944 243.644 306.814 237.323 301.522 232.808Z" fill="#2E7FFF"/>
<path d="M272.447 230.551L281.579 241.774C282.58 249.675 279.288 254.061 275.158 256.447C273.996 253.029 272.382 250.417 271.092 248.675C275.254 241.387 272.447 230.551 272.447 230.551Z" fill="#2E7FFF"/>
<path d="M271.059 248.675C272.383 250.417 273.964 253.029 275.125 256.447C264.412 264.058 259.088 259.35 259.088 259.35V257.834C259.088 256.512 259.959 255.319 261.25 254.996C265.541 253.867 269.511 251.32 271.059 248.675Z" fill="url(#paint23_linear)"/>
<path d="M278.288 214.265L281.224 225.068C281.547 226.294 282.87 226.939 284.032 226.455C285.29 225.939 286.904 225.262 288.259 224.52C289.743 223.714 290.195 221.843 289.259 220.457L283.161 211.362L278.288 214.265Z" fill="url(#paint24_linear)"/>
<path d="M271.866 206.073C271.834 206.267 274.319 218.393 274.319 218.393L281.224 216.845L280.579 204.977C280.579 204.977 272.318 202.945 271.866 206.073Z" fill="url(#paint25_linear)"/>
<path d="M279.03 207.621L279.869 213.845C279.869 213.91 279.869 214.007 279.869 214.071C279.804 214.555 279.449 216.232 277.771 215.748C276.255 215.329 274.867 214.942 273.899 215.232C273.48 215.361 273.222 215.813 273.286 216.232C273.512 217.328 274.061 219.812 274.867 221.876C275.029 222.295 275.48 222.521 275.932 222.392C277.255 222.005 279.966 221.134 282.031 219.908C282.321 219.747 282.483 219.457 282.451 219.134C282.386 217.554 282.192 212.781 282.354 211.459C282.483 210.201 284.032 209.459 284.709 209.169C284.935 209.072 285.097 208.911 285.193 208.685C285.516 207.911 285.936 206.105 283.677 205.364C283.193 205.202 282.967 204.686 283.128 204.235C283.451 203.3 283.612 201.881 281.837 201.107C280.063 200.3 278.74 201.268 277.997 202.042C277.707 202.364 277.255 202.397 276.868 202.171C276.674 202.042 276.384 202.01 276.093 202.203C275.674 202.461 275.093 202.3 274.867 201.848C274.448 200.978 273.576 200.042 271.834 200.333C268.736 200.849 268.381 204.299 269.22 206.299C270.027 208.298 273.351 207.557 275.029 206.525C276.287 205.751 277.933 206.557 278.643 207.008C278.836 207.137 278.998 207.363 279.03 207.621Z" fill="url(#paint26_linear)"/>
<path d="M282.612 213.749C282.612 213.749 281.353 210.201 282.644 209.331C283.967 208.46 285.871 208.911 285.452 211.491C284.935 214.684 282.612 213.749 282.612 213.749Z" fill="url(#paint27_linear)"/>
<path d="M333.791 235.582L217.654 273.669L223.204 290.761L340.019 253.609C342.504 252.835 344.052 250.352 343.697 247.772C343.342 245.128 342.149 241.484 338.889 237.162C337.728 235.614 335.662 234.969 333.791 235.582Z" fill="url(#paint28_linear)"/>
<path d="M186.805 292.019L200.584 283.827C201.907 285.569 203.068 288.245 203.133 292.309L187.256 293.502C186.417 293.567 186.062 292.47 186.805 292.019Z" fill="url(#paint29_linear)"/>
<path d="M217.654 273.668C224.721 281.602 223.204 290.761 223.204 290.761L203.165 292.277C203.101 288.213 201.939 285.536 200.616 283.795L217.654 273.668Z" fill="url(#paint30_linear)"/>
<path d="M335.856 240.581C335.953 240.484 336.017 240.355 335.985 240.194C335.921 240 335.727 239.936 335.566 239.968L224.56 276.604C224.366 276.668 224.301 276.862 224.334 277.023C224.398 277.216 224.592 277.281 224.753 277.249L335.727 240.613C335.791 240.613 335.824 240.581 335.856 240.581Z" fill="#EAC853"/>
<path d="M338.405 246.966C338.502 246.869 338.567 246.74 338.534 246.579C338.47 246.385 338.276 246.321 338.115 246.353L227.141 283.021C226.947 283.086 226.883 283.279 226.915 283.44C226.98 283.634 227.173 283.698 227.335 283.666L338.308 247.03C338.341 247.03 338.373 246.998 338.405 246.966Z" fill="#EAC853"/>
<path d="M309.557 264.542L302.425 263.961L299.327 266.799C299.327 266.799 300.069 267.799 302.328 267.219C304.619 266.638 307.75 266.509 307.75 266.509C307.75 266.509 310.912 267.928 310.944 265.284L309.557 264.542Z" fill="url(#paint31_linear)"/>
<path d="M263.799 262.317C263.186 262.8 261.088 261.801 259.797 261.091C259.152 260.769 258.862 260.027 259.088 259.35C259.41 258.382 259.927 257.092 260.54 256.931C261.605 256.673 266.348 260.349 263.799 262.317Z" fill="url(#paint32_linear)"/>
<defs>
<linearGradient id="paint0_linear" x1="104.531" y1="152.988" x2="149.405" y2="152.988" gradientUnits="userSpaceOnUse">
<stop stop-color="#FEBBBA"/>
<stop offset="1" stop-color="#FF928E"/>
</linearGradient>
<linearGradient id="paint1_linear" x1="113.033" y1="68.2068" x2="169.235" y2="76.9854" gradientUnits="userSpaceOnUse">
<stop stop-color="#6EDCFF"/>
<stop offset="1" stop-color="#2E7FFF"/>
</linearGradient>
<linearGradient id="paint2_linear" x1="120.811" y1="76.5353" x2="80.1992" y2="259.079" gradientUnits="userSpaceOnUse">
<stop stop-color="#FF928E"/>
<stop offset="1" stop-color="#FE7062"/>
</linearGradient>
<linearGradient id="paint3_linear" x1="85.1744" y1="107.334" x2="143.537" y2="118.545" gradientUnits="userSpaceOnUse">
<stop stop-color="#6EDCFF"/>
<stop offset="1" stop-color="#2E7FFF"/>
</linearGradient>
<linearGradient id="paint4_linear" x1="264.608" y1="122.902" x2="277.594" y2="122.902" gradientUnits="userSpaceOnUse">
<stop stop-color="#DAE3FE"/>
<stop offset="1" stop-color="#E9EFFD"/>
</linearGradient>
<linearGradient id="paint5_linear" x1="255.027" y1="122.815" x2="286.962" y2="122.815" gradientUnits="userSpaceOnUse">
<stop stop-color="#DAE3FE"/>
<stop offset="1" stop-color="#E9EFFD"/>
</linearGradient>
<linearGradient id="paint6_linear" x1="313.304" y1="142.32" x2="322.15" y2="142.32" gradientUnits="userSpaceOnUse">
<stop stop-color="#DAE3FE"/>
<stop offset="1" stop-color="#E9EFFD"/>
</linearGradient>
<linearGradient id="paint7_linear" x1="306.64" y1="142.259" x2="328.672" y2="142.259" gradientUnits="userSpaceOnUse">
<stop stop-color="#DAE3FE"/>
<stop offset="1" stop-color="#E9EFFD"/>
</linearGradient>
<linearGradient id="paint8_linear" x1="139.981" y1="157.835" x2="263.578" y2="157.835" gradientUnits="userSpaceOnUse">
<stop stop-color="#DAE3FE"/>
<stop offset="1" stop-color="#E9EFFD"/>
</linearGradient>
<linearGradient id="paint9_linear" x1="141.462" y1="172.435" x2="224.542" y2="172.435" gradientUnits="userSpaceOnUse">
<stop stop-color="#DAE3FE"/>
<stop offset="1" stop-color="#E9EFFD"/>
</linearGradient>
<linearGradient id="paint10_linear" x1="138.041" y1="192.993" x2="261.638" y2="192.993" gradientUnits="userSpaceOnUse">
<stop stop-color="#DAE3FE"/>
<stop offset="1" stop-color="#E9EFFD"/>
</linearGradient>
<linearGradient id="paint11_linear" x1="139.522" y1="207.593" x2="222.602" y2="207.593" gradientUnits="userSpaceOnUse">
<stop stop-color="#DAE3FE"/>
<stop offset="1" stop-color="#E9EFFD"/>
</linearGradient>
<linearGradient id="paint12_linear" x1="219.745" y1="208.18" x2="176.868" y2="290.115" gradientUnits="userSpaceOnUse">
<stop stop-color="#09005D"/>
<stop offset="1" stop-color="#1A0F91"/>
</linearGradient>
<linearGradient id="paint13_linear" x1="243.366" y1="240.806" x2="254.283" y2="240.806" gradientUnits="userSpaceOnUse">
<stop stop-color="#09005D"/>
<stop offset="1" stop-color="#1A0F91"/>
</linearGradient>
<linearGradient id="paint14_linear" x1="303.224" y1="342.919" x2="286.828" y2="342.919" gradientUnits="userSpaceOnUse">
<stop stop-color="#09005D"/>
<stop offset="1" stop-color="#1A0F91"/>
</linearGradient>
<linearGradient id="paint15_linear" x1="302.153" y1="330.928" x2="294.788" y2="343.104" gradientUnits="userSpaceOnUse">
<stop stop-color="#4F52FF"/>
<stop offset="1" stop-color="#4042E2"/>
</linearGradient>
<linearGradient id="paint16_linear" x1="301.71" y1="335.225" x2="297.092" y2="335.225" gradientUnits="userSpaceOnUse">
<stop stop-color="#FEBBBA"/>
<stop offset="1" stop-color="#FF928E"/>
</linearGradient>
<linearGradient id="paint17_linear" x1="335.909" y1="342.566" x2="329.626" y2="342.566" gradientUnits="userSpaceOnUse">
<stop stop-color="#09005D"/>
<stop offset="1" stop-color="#1A0F91"/>
</linearGradient>
<linearGradient id="paint18_linear" x1="338.87" y1="317.97" x2="329.905" y2="341.357" gradientUnits="userSpaceOnUse">
<stop stop-color="#4F52FF"/>
<stop offset="1" stop-color="#4042E2"/>
</linearGradient>
<linearGradient id="paint19_linear" x1="331.07" y1="331.377" x2="325.551" y2="331.377" gradientUnits="userSpaceOnUse">
<stop stop-color="#FEBBBA"/>
<stop offset="1" stop-color="#FF928E"/>
</linearGradient>
<linearGradient id="paint20_linear" x1="319.825" y1="269.435" x2="297.261" y2="336.523" gradientUnits="userSpaceOnUse">
<stop stop-color="#09005D"/>
<stop offset="1" stop-color="#1A0F91"/>
</linearGradient>
<linearGradient id="paint21_linear" x1="305.075" y1="265.286" x2="292.078" y2="293.59" gradientUnits="userSpaceOnUse">
<stop stop-color="#4F52FF"/>
<stop offset="1" stop-color="#4042E2"/>
</linearGradient>
<linearGradient id="paint22_linear" x1="248.098" y1="-123.606" x2="243.102" y2="-152.954" gradientUnits="userSpaceOnUse">
<stop stop-color="#FEBBBA"/>
<stop offset="1" stop-color="#FF928E"/>
</linearGradient>
<linearGradient id="paint23_linear" x1="274.311" y1="253.203" x2="258.532" y2="257.192" gradientUnits="userSpaceOnUse">
<stop stop-color="#FEBBBA"/>
<stop offset="1" stop-color="#FF928E"/>
</linearGradient>
<linearGradient id="paint24_linear" x1="283.992" y1="211.295" x2="284.161" y2="240.172" gradientUnits="userSpaceOnUse">
<stop stop-color="#FEBBBA"/>
<stop offset="1" stop-color="#FF928E"/>
</linearGradient>
<linearGradient id="paint25_linear" x1="274.616" y1="206.546" x2="285.996" y2="227.193" gradientUnits="userSpaceOnUse">
<stop stop-color="#FEBBBA"/>
<stop offset="1" stop-color="#FF928E"/>
</linearGradient>
<linearGradient id="paint26_linear" x1="284.719" y1="212.586" x2="267.904" y2="210.158" gradientUnits="userSpaceOnUse">
<stop stop-color="#09005D"/>
<stop offset="1" stop-color="#1A0F91"/>
</linearGradient>
<linearGradient id="paint27_linear" x1="293.106" y1="224.258" x2="283.494" y2="211.047" gradientUnits="userSpaceOnUse">
<stop stop-color="#FEBBBA"/>
<stop offset="1" stop-color="#FF928E"/>
</linearGradient>
<linearGradient id="paint28_linear" x1="207.602" y1="265.119" x2="414.287" y2="259.202" gradientUnits="userSpaceOnUse">
<stop stop-color="#FCCC20"/>
<stop offset="1" stop-color="#FFE484"/>
</linearGradient>
<linearGradient id="paint29_linear" x1="219.573" y1="290.129" x2="190.467" y2="288.475" gradientUnits="userSpaceOnUse">
<stop stop-color="#09005D"/>
<stop offset="1" stop-color="#1A0F91"/>
</linearGradient>
<linearGradient id="paint30_linear" x1="187.178" y1="279.717" x2="302.846" y2="296.053" gradientUnits="userSpaceOnUse">
<stop stop-color="#FEBBBA"/>
<stop offset="1" stop-color="#FF928E"/>
</linearGradient>
<linearGradient id="paint31_linear" x1="239.003" y1="-122.058" x2="234.007" y2="-151.406" gradientUnits="userSpaceOnUse">
<stop stop-color="#FEBBBA"/>
<stop offset="1" stop-color="#FF928E"/>
</linearGradient>
<linearGradient id="paint32_linear" x1="264.548" y1="259.685" x2="259.007" y2="259.685" gradientUnits="userSpaceOnUse">
<stop stop-color="#FEBBBA"/>
<stop offset="1" stop-color="#FF928E"/>
</linearGradient>
</defs>
</svg>
