<svg width="427" height="427" viewBox="0 0 427 427" fill="none" xmlns="http://www.w3.org/2000/svg">
<path d="M319.444 312.684C313.758 318.632 308.421 322.493 304.165 325.52C254.353 361.175 195.367 350.774 182.844 348.235C164.322 344.478 128.568 337.243 102.72 306.909C63.5819 261.027 69.6863 188.742 100.034 141.016C105.58 132.285 134.916 83.8284 194.495 76.0712C230.563 71.3751 272.632 80.8716 303.049 106.3C366.988 159.696 362.419 267.567 319.444 312.684Z" fill="#D5E5FF"/>
<path d="M170.972 373.369C161.933 370.88 155.176 367.614 149.841 364.981C87.1596 334.285 65.7165 269.5 61.4964 255.567C55.2552 234.958 43.1913 195.185 59.6485 152.868C84.5202 88.8164 160.323 55.8772 224.593 60.5261C236.348 61.3709 300.805 64.6104 340.781 120.178C364.983 153.818 378.191 201.146 369.122 245.396C350.117 338.384 239.449 392.093 170.972 373.369Z" fill="#F2F7FF" fill-opacity="0.48"/>
<path d="M80.151 78.228C79.7324 76.454 82.244 75.2712 83.7788 76.5235C99.3363 89.0812 136.695 126.754 127.382 192.569C115.696 275.115 135.684 305.24 160.52 323.642C160.52 323.642 133.8 308.579 112.312 278.003C59.5705 202.935 87.5461 109.744 80.151 78.228Z" fill="#BDD0FB"/>
<path d="M80.151 78.228C79.7324 76.454 82.244 75.2712 83.7788 76.5235C99.3363 89.0812 136.695 126.754 127.382 192.569C115.696 275.115 135.684 305.24 160.52 323.642C160.52 323.642 133.8 308.579 112.312 278.003C59.5705 202.935 87.5461 109.744 80.151 78.228Z" fill="url(#paint0_linear)"/>
<path d="M91.9761 104.039C94.0342 113.223 95.848 122.406 97.3131 131.659C98.813 140.912 99.999 150.165 100.801 159.453C101.604 168.741 102.197 178.063 102.301 187.351C102.476 196.674 102.197 205.962 101.883 215.319C101.604 224.676 101.29 234.068 102.092 243.53C102.859 253.027 104.952 262.523 109.034 271.428C110.045 273.655 111.126 275.846 112.312 278.003C113.464 280.16 114.754 282.281 116.045 284.369C118.696 288.543 121.696 292.543 125.01 296.37C131.672 303.988 139.66 310.701 148.451 316.372C149.392 316.963 150.683 316.789 151.381 315.989C152.078 315.189 151.904 314.11 151.032 313.484C148.939 312.058 146.881 310.597 144.893 309.066C143.881 308.301 142.904 307.536 141.928 306.771C140.986 305.971 140.009 305.205 139.067 304.37C135.335 301.135 131.847 297.657 128.707 293.969C122.359 286.664 117.266 278.455 113.359 269.967C111.475 265.689 109.94 261.306 108.824 256.853C107.708 252.401 106.975 247.844 106.557 243.252C105.72 234.068 105.929 224.746 106.138 215.388C106.243 206.066 106.348 196.674 105.999 187.282C105.824 182.586 105.58 177.889 105.231 173.228C105.057 170.898 104.848 168.532 104.638 166.201C104.394 163.871 104.15 161.54 103.871 159.21C102.755 149.887 101.325 140.599 99.5456 131.346C97.6968 122.128 95.6039 112.944 93.0575 103.831C92.9877 103.587 92.6738 103.413 92.3947 103.483C92.1156 103.518 91.9063 103.796 91.9761 104.039Z" fill="white"/>
<path d="M119.045 253.026C117.126 255.044 113.778 254.452 112.626 251.948C106.313 237.999 91.9761 197.021 115.626 149.782C135.614 109.883 142.625 86.3327 145.067 75.4447C145.59 73.1489 148.765 72.8358 149.706 74.9925C160.276 98.8208 188.112 179.941 119.045 253.026Z" fill="#91B3FA"/>
<path d="M119.045 253.026C117.126 255.044 113.778 254.452 112.626 251.948C106.313 237.999 91.9761 197.021 115.626 149.782C135.614 109.883 142.625 86.3327 145.067 75.4447C145.59 73.1489 148.765 72.8358 149.706 74.9925C160.276 98.8208 188.112 179.941 119.045 253.026Z" fill="url(#paint1_linear)"/>
<path d="M115.591 251.565C115.522 251.565 115.452 251.6 115.382 251.565C114.789 251.565 114.301 251.078 114.301 250.452C114.301 249.791 115.626 182.063 140.881 125.328C141.125 124.771 141.753 124.527 142.311 124.771C142.869 125.014 143.114 125.641 142.869 126.197C117.789 182.55 116.463 249.826 116.463 250.521C116.463 251.043 116.08 251.461 115.591 251.565Z" fill="white"/>
<path d="M319.758 282.56L312.188 273.55C310.13 271.115 309.467 267.845 310.304 264.784C312.397 257.096 313.548 249.235 313.828 241.443C313.932 238.277 315.537 235.321 318.223 233.616L328.094 227.215C332.245 224.537 334.234 219.493 333.048 214.693L329.49 200.361C328.304 195.56 324.188 192.047 319.234 191.595L307.514 190.551C304.34 190.273 301.549 188.429 299.944 185.681C296.038 178.898 291.328 172.532 285.887 166.688C283.724 164.358 282.782 161.157 283.445 158.061L285.887 146.582C286.933 141.747 284.771 136.773 280.515 134.233L267.818 126.615C263.562 124.076 258.155 124.493 254.353 127.659L245.319 135.172C242.877 137.225 239.598 137.886 236.528 137.051C228.819 134.964 220.936 133.816 213.122 133.537C209.948 133.433 206.983 131.833 205.274 129.154L198.855 119.31C196.17 115.171 191.112 113.188 186.298 114.371L171.926 117.919C167.113 119.101 163.589 123.206 163.136 128.146L162.09 139.834C161.81 142.999 159.962 145.782 157.206 147.382C150.404 151.278 144.021 155.974 138.16 161.401C135.823 163.558 132.614 164.497 129.509 163.836L117.998 161.401C113.15 160.357 108.162 162.514 105.615 166.758L97.9759 179.42C95.4295 183.664 95.8481 189.056 99.0224 192.847L106.557 201.891C108.615 204.326 109.278 207.596 108.441 210.657C106.348 218.345 105.197 226.207 104.917 233.999C104.813 237.164 103.208 240.121 100.522 241.825L90.6506 248.226C86.4996 250.905 84.5113 255.949 85.6973 260.749L89.2553 275.081C90.4413 279.881 94.5574 283.394 99.5107 283.847L111.231 284.89C114.405 285.169 117.196 287.012 118.801 289.76C122.707 296.543 127.417 302.909 132.858 308.753C135.021 311.084 135.963 314.284 135.3 317.38L132.858 328.859C131.812 333.695 133.974 338.669 138.23 341.208L150.927 348.826C155.183 351.366 160.59 350.948 164.392 347.783L173.426 340.269C175.868 338.217 179.147 337.556 182.217 338.391C189.926 340.478 197.809 341.626 205.623 341.904C208.797 342.008 211.762 343.609 213.471 346.287L219.89 356.131C222.575 360.271 227.633 362.254 232.447 361.071L246.819 357.523C251.632 356.34 255.156 352.235 255.609 347.296L256.655 335.608C256.935 332.442 258.783 329.66 261.539 328.059C268.341 324.163 274.725 319.467 280.585 314.041C282.922 311.884 286.131 310.945 289.236 311.606L300.747 314.041C305.595 315.084 310.583 312.928 313.13 308.684L320.769 296.022C323.35 291.743 322.932 286.351 319.758 282.56ZM172.589 315.467C129.544 295.222 111.092 243.982 131.428 201.057C151.729 158.131 203.111 139.729 246.156 160.009C289.201 180.255 307.653 231.494 287.317 274.42C267.016 317.345 215.634 335.712 172.589 315.467Z" fill="#2E7FFF"/>
<path d="M229.657 362.532C225.401 362.532 221.32 360.41 218.948 356.723L212.529 346.878C211.029 344.548 208.413 343.121 205.588 343.017C197.6 342.739 189.612 341.556 181.903 339.469C179.182 338.738 176.287 339.365 174.159 341.139L165.159 348.652C160.973 352.131 155.043 352.618 150.369 349.8L137.672 342.182C132.998 339.365 130.626 333.938 131.777 328.616L134.219 317.137C134.812 314.423 133.974 311.606 132.056 309.518C126.614 303.709 121.835 297.239 117.824 290.317C116.429 287.882 113.917 286.247 111.161 286.003L99.4409 284.96C93.9993 284.473 89.4646 280.611 88.174 275.324L84.5811 261.027C83.2556 255.74 85.4531 250.209 90.0227 247.252L99.8944 240.851C102.232 239.356 103.662 236.747 103.766 233.929C104.045 225.963 105.231 217.997 107.324 210.309C108.057 207.596 107.429 204.709 105.65 202.587L98.1154 193.578C94.6272 189.403 94.1388 183.49 96.9643 178.828L104.604 166.236C107.429 161.575 112.871 159.209 118.208 160.357L129.719 162.792C132.44 163.384 135.265 162.549 137.358 160.635C143.183 155.209 149.671 150.443 156.613 146.443C159.055 145.051 160.694 142.547 160.938 139.799L161.985 128.111C162.473 122.684 166.345 118.197 171.647 116.875L186.019 113.327C191.321 112.005 196.867 114.196 199.832 118.753L206.251 128.598C207.75 130.928 210.367 132.355 213.192 132.459C221.18 132.737 229.168 133.92 236.877 136.007C239.598 136.738 242.493 136.111 244.621 134.337L253.656 126.824C257.841 123.345 263.771 122.858 268.446 125.676L281.143 133.294C285.817 136.111 288.189 141.538 287.038 146.86L284.596 158.34C284.003 161.053 284.84 163.871 286.759 165.958C292.201 171.767 296.979 178.237 300.991 185.159C302.386 187.594 304.898 189.229 307.653 189.473L319.374 190.516C324.816 191.003 329.35 194.865 330.641 200.152L334.199 214.484C335.524 219.771 333.327 225.302 328.757 228.259L318.885 234.66C316.548 236.155 315.118 238.764 315.014 241.582C314.735 249.548 313.549 257.514 311.456 265.201C310.723 267.915 311.351 270.802 313.13 272.924L320.665 281.933C324.153 286.108 324.641 292.021 321.816 296.683L314.176 309.345C311.351 314.006 305.909 316.371 300.572 315.223L289.061 312.788C286.34 312.197 283.48 313.032 281.422 314.945C275.597 320.372 269.108 325.137 262.167 329.138C259.725 330.529 258.086 333.034 257.841 335.782L256.795 347.47C256.307 352.896 252.435 357.418 247.133 358.705L232.761 362.254C231.715 362.393 230.703 362.532 229.657 362.532ZM179.635 336.86C180.577 336.86 181.554 336.999 182.496 337.243C190.03 339.26 197.844 340.443 205.658 340.686C209.25 340.826 212.529 342.634 214.448 345.591L220.866 355.436C223.308 359.158 227.843 360.967 232.168 359.888L246.54 356.34C250.865 355.262 254.039 351.574 254.458 347.122L255.504 335.434C255.818 331.92 257.841 328.79 260.946 326.981C267.748 323.085 274.062 318.424 279.782 313.101C282.399 310.666 286.026 309.658 289.445 310.388L300.956 312.823C305.316 313.762 309.816 311.814 312.118 307.988L319.758 295.326C322.06 291.499 321.676 286.629 318.816 283.22L311.281 274.211C309.014 271.532 308.212 267.845 309.153 264.401C311.177 256.888 312.363 249.096 312.607 241.304C312.746 237.721 314.56 234.451 317.525 232.538L327.397 226.137C331.129 223.702 332.943 219.18 331.862 214.866L328.304 200.535C327.222 196.221 323.525 193.056 319.06 192.638L307.339 191.595C303.816 191.282 300.677 189.264 298.863 186.168C294.956 179.385 290.282 173.089 284.945 167.384C282.503 164.775 281.492 161.157 282.224 157.748L284.666 146.269C285.608 141.921 283.654 137.433 279.817 135.137L267.12 127.519C263.283 125.224 258.4 125.606 254.981 128.459L245.947 135.972C243.261 138.233 239.563 139.033 236.11 138.094C228.575 136.077 220.762 134.894 212.948 134.65C209.355 134.511 206.076 132.702 204.158 129.746L197.739 119.901C195.298 116.179 190.763 114.37 186.437 115.449L172.066 118.997C167.74 120.075 164.566 123.763 164.148 128.215L163.101 139.903C162.787 143.416 160.764 146.547 157.66 148.356C150.857 152.252 144.544 156.913 138.823 162.236C136.207 164.671 132.579 165.679 129.161 164.949L117.65 162.514C113.289 161.575 108.789 163.523 106.487 167.349L98.8479 180.011C96.5457 183.838 96.9294 188.673 99.7898 192.117L107.324 201.126C109.592 203.805 110.394 207.492 109.452 210.936C107.429 218.449 106.243 226.241 105.999 234.033C105.859 237.616 104.045 240.886 101.08 242.799L91.2785 249.2C87.5461 251.635 85.7671 256.157 86.8135 260.471L90.3715 274.802C91.4529 279.116 95.1504 282.281 99.6154 282.699L111.336 283.742C114.859 284.055 117.998 286.073 119.812 289.169C123.719 295.952 128.393 302.248 133.73 307.953C136.172 310.562 137.184 314.18 136.451 317.589L134.009 329.068C133.067 333.416 135.021 337.904 138.858 340.199L151.555 347.818C155.392 350.113 160.241 349.731 163.694 346.878L172.729 339.365C174.647 337.73 177.124 336.86 179.635 336.86ZM209.25 324.824C196.763 324.824 184.135 322.146 172.101 316.51C128.533 296.022 109.836 243.982 130.382 200.569C150.927 157.122 203.076 138.477 246.644 158.966C267.748 168.88 283.724 186.412 291.573 208.327C299.456 230.242 298.305 253.861 288.363 274.907C273.469 306.353 242.005 324.824 209.25 324.824ZM173.077 314.423C215.494 334.39 266.283 316.197 286.271 273.898C295.968 253.409 297.084 230.381 289.41 209.057C281.736 187.734 266.213 170.654 245.668 161.018C203.251 141.051 152.462 159.244 132.474 201.543C112.452 243.843 130.661 294.456 173.077 314.423Z" fill="#6EDCFF" fill-opacity="0.39"/>
<path d="M158.008 213.858C158.008 213.858 194.984 204.605 234.052 210.171C245.04 211.736 254.772 218.137 260.702 227.494C271.376 244.365 286.515 274.42 283.306 305.797L266.527 309.936C266.527 309.936 254.946 272.715 241.865 257.584C241.865 257.584 226.413 292.717 227.18 312.023C227.215 312.58 227.25 313.102 227.285 313.624C229.064 332.512 153.09 317.137 153.09 317.137L158.008 213.858Z" fill="#FFDB5A"/>
<path d="M197.983 182.342L190.1 207.353C189.368 209.684 190.1 212.188 191.914 213.58C196.135 216.815 204.472 221.963 214.622 221.824C216.471 221.789 218.041 220.224 218.18 218.276L220.971 176.463L197.983 182.342Z" fill="url(#paint2_linear)"/>
<path d="M228.471 154.931C228.471 154.931 231.54 174.619 229.587 184.046C227.668 193.473 228.087 200.013 216.82 199.039C205.588 198.1 197.914 190.377 195.437 179.837C195.437 179.837 191.495 163.592 194.774 158.2C198.053 152.843 228.471 154.931 228.471 154.931Z" fill="url(#paint3_linear)"/>
<path d="M200.879 174.167L202.239 174.515C202.239 174.515 199.658 161.575 205.099 160.879C210.541 160.149 231.087 161.297 237.121 155.487C242.947 149.887 241.586 140.356 236.807 136.529C236.494 136.286 236.075 136.355 235.796 136.633L235.133 137.364C234.68 137.851 233.842 137.538 233.808 136.877C233.808 136.251 233.005 135.903 232.552 136.32C230.703 138.06 226.343 140.495 216.541 139.764C202.623 138.721 192.437 141.782 189.821 150.861C189.647 151.452 188.949 151.591 188.53 151.174C187.693 150.339 186.228 149.643 183.647 150.826C179.182 152.913 178.589 161.262 184.868 169.854C185.182 170.271 185.007 170.863 184.519 171.002C182.81 171.558 180.089 173.228 184.868 177.681C189.786 182.238 193.274 182.794 194.635 182.794C195.018 182.794 195.332 182.551 195.402 182.203L197.042 173.959C197.111 173.541 197.565 173.263 197.983 173.367L200.879 174.167Z" fill="url(#paint4_linear)"/>
<path d="M200.774 175.976C200.774 175.976 200.809 163.906 194.879 165.749C188.984 167.593 194.181 179.107 198.158 180.568L200.774 175.976Z" fill="url(#paint5_linear)"/>
<path d="M158.218 289.065C156.578 277.516 168.543 260.575 173.531 254.14C174.961 252.296 175.729 250.035 175.763 247.739C175.903 231.39 169.031 220.919 158.008 213.858C158.008 213.858 117.998 260.332 128.184 296.091C129.3 299.953 130.975 303.257 133.137 306.11C134.742 292.613 150.369 289.691 158.218 289.065Z" fill="#FFDB5A"/>
<path d="M158.985 284.612L157.45 284.438C158.741 273.133 168.682 259.149 172.903 253.688L174.124 254.627C169.973 259.984 160.206 273.654 158.985 284.612Z" fill="#E2C047"/>
<path d="M158.532 290.665C158.392 290.143 158.287 289.622 158.218 289.065C150.334 289.691 134.742 292.613 133.137 306.11C150.997 329.625 200.181 321.137 200.181 321.137V311.989C200.181 311.989 162.403 304.997 158.532 290.665Z" fill="url(#paint6_linear)"/>
<path d="M195.472 318.598C195.472 318.598 202.727 301.518 215.529 307.57C228.331 313.623 227.319 317.589 227.319 317.589L195.472 318.598Z" fill="url(#paint7_linear)"/>
<path d="M193.311 323.886C193.416 325.173 194.532 326.147 195.823 326.112L262.169 323.816C263.215 323.782 264.087 323.086 264.401 322.112L266.32 315.955C266.808 314.459 265.727 312.894 264.122 312.824L239.914 311.537C239.705 311.537 239.46 311.537 239.251 311.607L195.195 321.347C194.044 321.59 193.207 322.703 193.311 323.886Z" fill="url(#paint8_linear)"/>
<path d="M238.307 319.745L240.121 311.258L264.992 312.441L263.353 319.467L238.307 319.745Z" fill="url(#paint9_linear)"/>
<path d="M225.575 228.433C224.18 239.877 217.831 286.456 216.018 299.744C215.773 301.622 217.238 303.257 219.157 303.222L326.49 300.161C327.885 300.126 329.106 299.118 329.385 297.761L346.094 222.798C346.547 220.815 344.943 218.971 342.919 219.076L228.436 225.754C226.936 225.859 225.75 226.972 225.575 228.433Z" fill="url(#paint10_linear)"/>
<path d="M268.69 275.463L252.853 320.372L289.724 321.137L292.794 275.742C292.933 273.62 291.154 271.846 289.026 271.985L271.794 273.133C270.399 273.202 269.178 274.141 268.69 275.463Z" fill="url(#paint11_linear)"/>
<path d="M237.889 320.998C237.47 322.25 238.412 323.502 239.703 323.502H297.468C298.514 323.502 299.386 322.633 299.386 321.589V319.119C299.386 318.041 298.479 317.171 297.398 317.206L239.633 319.676C238.831 319.711 238.133 320.232 237.889 320.998Z" fill="url(#paint12_linear)"/>
<path d="M223.936 275.811L223.168 275.707L228.471 234.242C228.785 231.668 230.912 229.685 233.529 229.546L332.455 223.598L332.49 224.363L233.563 230.311C231.331 230.45 229.517 232.155 229.238 234.346L223.936 275.811Z" fill="#91B3FA"/>
<path d="M221.675 287.52L220.541 296.494L221.303 296.589L222.436 287.616L221.675 287.52Z" fill="#91B3FA"/>
<path d="M217.936 188.673C206.006 189.577 199.1 177.298 199.03 177.159L199.832 176.707C199.902 176.811 206.564 188.603 217.866 187.768L217.936 188.673Z" fill="#FCCC20"/>
<path d="M222.785 188.221C222.785 188.916 222.227 189.508 221.494 189.508H218.076C217.378 189.508 216.785 188.951 216.785 188.221C216.785 187.525 217.343 186.934 218.076 186.934H221.494C222.227 186.934 222.785 187.525 222.785 188.221Z" fill="#DEB31C"/>
<path d="M199.832 163.523C199.832 163.523 204.123 141.642 216.715 139.59C216.715 139.59 213.157 137.781 209.425 139.729C205.692 141.677 196.309 152.322 196.693 164.079C199.239 164.984 199.832 163.523 199.832 163.523Z" fill="#FCCC20"/>
<path d="M197.635 162.479C191.077 163.801 191.879 172.08 191.879 172.08C191.391 178.063 193.17 181.055 195.402 182.481C196.937 183.455 198.855 183.524 200.495 182.724C202.134 181.924 203.181 180.289 203.32 178.48C203.425 176.846 203.565 175.28 203.704 174.758C204.018 173.402 204.192 161.157 197.635 162.479Z" fill="#DEB31C"/>
<path d="M198.262 164.566C196.902 164.323 195.577 165.053 195.018 166.305C191.112 175.35 195.925 181.228 198.262 181.368C200.739 181.507 200.704 169.575 200.181 166.514C199.937 165.227 199.135 164.74 198.262 164.566Z" fill="#FCCC20"/>
<path d="M273.155 183.419L259.097 197.786L275.98 193.299L273.155 183.419Z" fill="#FCCC20"/>
<path d="M356.872 189.368L276.922 193.229C274.864 193.334 273.155 191.699 273.155 189.646V156.843C273.155 153.295 275.98 150.373 279.573 150.234L351.605 148.008C356.977 148.008 361.302 152.356 361.302 157.678V184.637C361.302 187.177 359.349 189.264 356.872 189.368Z" fill="#FCCC20"/>
<path opacity="0.85" d="M355.617 188.15L279.573 191.733C276.852 191.872 274.585 189.681 274.585 186.968V157.4C274.585 154.026 277.341 151.277 280.794 151.173L350.524 149.086C355.721 149.086 359.942 153.191 359.942 158.235V183.698C359.907 186.098 358.023 188.046 355.617 188.15Z" stroke="white" stroke-miterlimit="10"/>
<path opacity="0.94" d="M350.28 155.243L286.375 157.643C285.747 157.678 285.259 158.096 285.259 158.583L285.294 159.139C285.329 159.626 285.817 159.974 286.445 159.974L350.349 157.643C350.977 157.609 351.466 157.191 351.466 156.704L351.431 156.078C351.431 155.591 350.907 155.243 350.28 155.243Z" fill="white"/>
<path opacity="0.94" d="M344.559 171.384L280.655 173.749C280.027 173.784 279.538 174.201 279.538 174.688L279.573 175.28C279.608 175.767 280.096 176.149 280.724 176.149L344.629 173.854C345.257 173.819 345.745 173.401 345.745 172.914L345.71 172.288C345.71 171.766 345.187 171.384 344.559 171.384Z" fill="white"/>
<path opacity="0.94" d="M352.024 178.132L280.759 180.811C280.061 180.846 279.503 181.263 279.538 181.785L279.573 182.376C279.608 182.863 280.166 183.281 280.864 183.246L352.128 180.637C352.826 180.602 353.384 180.185 353.349 179.663L353.314 179.002C353.314 178.515 352.721 178.132 352.024 178.132Z" fill="white"/>
<path opacity="0.94" d="M308.107 165.087L280.271 165.783C279.992 165.783 279.782 166.27 279.817 166.827L279.852 167.488C279.887 168.044 280.131 168.496 280.375 168.496L308.212 167.87C308.491 167.87 308.7 167.383 308.665 166.827L308.63 166.096C308.63 165.54 308.386 165.087 308.107 165.087Z" fill="white"/>
<path opacity="0.94" d="M353.593 163.557L318.013 164.635C317.665 164.635 317.386 165.122 317.42 165.679L317.455 166.34C317.49 166.897 317.769 167.349 318.118 167.349L353.698 166.34C354.047 166.34 354.326 165.853 354.291 165.296L354.256 164.566C354.221 164.009 353.907 163.557 353.593 163.557Z" fill="white"/>
<defs>
<linearGradient id="paint0_linear" x1="94.5894" y1="49.8322" x2="196.345" y2="66.1167" gradientUnits="userSpaceOnUse">
<stop stop-color="#6EDCFF"/>
<stop offset="1" stop-color="#2E7FFF"/>
</linearGradient>
<linearGradient id="paint1_linear" x1="114.209" y1="54.4393" x2="191.282" y2="67.2685" gradientUnits="userSpaceOnUse">
<stop stop-color="#6EDCFF"/>
<stop offset="1" stop-color="#2E7FFF"/>
</linearGradient>
<linearGradient id="paint2_linear" x1="191.613" y1="245.038" x2="209.605" y2="196.186" gradientUnits="userSpaceOnUse">
<stop stop-color="#FEBBBA"/>
<stop offset="1" stop-color="#FF928E"/>
</linearGradient>
<linearGradient id="paint3_linear" x1="225.982" y1="170.919" x2="173.051" y2="193.123" gradientUnits="userSpaceOnUse">
<stop stop-color="#FEBBBA"/>
<stop offset="1" stop-color="#FF928E"/>
</linearGradient>
<linearGradient id="paint4_linear" x1="201.994" y1="136.233" x2="228.3" y2="198.029" gradientUnits="userSpaceOnUse">
<stop stop-color="#E1473D"/>
<stop offset="1" stop-color="#E9605A"/>
</linearGradient>
<linearGradient id="paint5_linear" x1="222.39" y1="162.355" x2="169.459" y2="184.559" gradientUnits="userSpaceOnUse">
<stop stop-color="#FEBBBA"/>
<stop offset="1" stop-color="#FF928E"/>
</linearGradient>
<linearGradient id="paint6_linear" x1="154.017" y1="275.837" x2="183.037" y2="352.416" gradientUnits="userSpaceOnUse">
<stop stop-color="#FEBBBA"/>
<stop offset="1" stop-color="#FF928E"/>
</linearGradient>
<linearGradient id="paint7_linear" x1="190.197" y1="262.126" x2="219.217" y2="338.705" gradientUnits="userSpaceOnUse">
<stop stop-color="#FEBBBA"/>
<stop offset="1" stop-color="#FF928E"/>
</linearGradient>
<linearGradient id="paint8_linear" x1="252.964" y1="291.655" x2="237.924" y2="311.081" gradientUnits="userSpaceOnUse">
<stop stop-color="#4F52FF"/>
<stop offset="1" stop-color="#4042E2"/>
</linearGradient>
<linearGradient id="paint9_linear" x1="238.304" y1="315.505" x2="264.979" y2="315.505" gradientUnits="userSpaceOnUse">
<stop stop-color="#4F52FF"/>
<stop offset="1" stop-color="#4042E2"/>
</linearGradient>
<linearGradient id="paint10_linear" x1="269.868" y1="232.588" x2="296.597" y2="301.128" gradientUnits="userSpaceOnUse">
<stop stop-color="#4F52FF"/>
<stop offset="1" stop-color="#4042E2"/>
</linearGradient>
<linearGradient id="paint11_linear" x1="266.634" y1="259.816" x2="281.899" y2="353.955" gradientUnits="userSpaceOnUse">
<stop stop-color="#4F52FF"/>
<stop offset="1" stop-color="#4042E2"/>
</linearGradient>
<linearGradient id="paint12_linear" x1="259.724" y1="314.569" x2="304.924" y2="344.273" gradientUnits="userSpaceOnUse">
<stop stop-color="#4F52FF"/>
<stop offset="1" stop-color="#4042E2"/>
</linearGradient>
</defs>
</svg>
