<svg width="372" height="372" viewBox="0 0 372 372" fill="none" xmlns="http://www.w3.org/2000/svg">
<path d="M280.469 283.154C273.388 290.444 271.899 291.5 267.035 294.732C219.684 326.267 151.155 318.647 134.412 315.514C107.411 310.5 94.1419 308.752 74.5528 291.104C30.0474 251.026 32.2313 167.406 66.2143 115.618C70.2843 109.482 103.639 61.8175 157.872 54.7585C159.196 54.5935 222.033 46.314 264.454 81.7411C270.509 86.821 280.304 95.9581 289.337 109.911C322.493 160.875 322.592 239.877 280.469 283.154Z" fill="#E3EEFF"/>
<path d="M326.947 272.779C321.931 280.7 316.836 286.211 312.761 290.546C265.123 341.553 196.9 343.174 182.342 343.148C160.809 343.108 119.247 343.051 83.5666 314.969C29.5514 272.501 20.1471 190.388 43.3347 130.266C47.5704 119.268 69.4641 58.5577 134.274 36.5214C173.509 23.1809 222.631 24.3473 262.315 45.9246C345.72 91.219 364.825 212.738 326.947 272.779Z" fill="#F2F7FF" fill-opacity="0.64"/>
<path d="M312.33 53.3326C312.694 52.2441 311.403 51.3534 310.477 52.0462C301.145 59.0062 278.148 80.3812 278.479 122.34C278.909 174.985 265.905 192.699 251.081 202.727C251.081 202.727 270.24 199.395 284.104 181.484C318.153 137.48 306.043 72.6955 312.33 53.3326Z" fill="url(#paint0_linear)"/>
<path d="M312.33 53.3326C312.694 52.2441 311.403 51.3534 310.477 52.0462C301.145 59.0062 278.148 80.3812 278.479 122.34C278.909 174.985 265.905 192.699 251.081 202.727C251.081 202.727 270.24 199.395 284.104 181.484C318.153 137.48 306.043 72.6955 312.33 53.3326Z" fill="url(#paint1_linear)"/>
<path d="M304.057 68.803C302.336 74.4766 300.748 80.1502 299.358 85.8898C297.936 91.6294 296.678 97.402 295.619 103.208C294.594 109.013 293.634 114.852 292.972 120.69C292.277 126.529 291.814 132.433 291.384 138.338C290.921 144.242 290.457 150.18 289.432 156.084C288.373 161.989 286.619 167.86 283.839 173.237C283.145 174.589 282.417 175.909 281.622 177.195C280.861 178.482 280.034 179.735 279.174 180.989C277.453 183.463 275.567 185.838 273.515 188.048C269.379 192.468 264.614 196.261 259.452 199.362C258.923 199.692 258.195 199.527 257.864 198.966C257.533 198.438 257.699 197.746 258.228 197.416C259.452 196.624 260.677 195.833 261.868 194.975C262.464 194.546 263.059 194.117 263.622 193.688C264.184 193.227 264.78 192.798 265.342 192.336C267.592 190.489 269.71 188.51 271.662 186.366C275.6 182.11 278.909 177.228 281.589 172.116C282.913 169.543 284.005 166.871 284.931 164.1C285.825 161.362 286.52 158.525 287.049 155.655C288.108 149.916 288.604 144.044 289.101 138.14C289.63 132.235 290.193 126.331 290.987 120.459C291.384 117.523 291.847 114.588 292.343 111.652C292.575 110.201 292.84 108.716 293.138 107.265C293.435 105.813 293.7 104.362 293.998 102.911C295.222 97.1051 296.612 91.3325 298.2 85.6259C299.756 79.8534 301.509 74.2127 303.462 68.6051C303.528 68.4402 303.693 68.3742 303.859 68.4072C304.024 68.4731 304.09 68.6381 304.057 68.803Z" fill="white"/>
<path d="M276.13 222.683C276.494 224.761 278.876 225.784 280.663 224.662C290.557 218.428 316.83 198.307 321.595 158.426C325.632 124.748 331.025 106.836 334.036 98.8864C334.665 97.2041 332.779 95.6868 331.257 96.6764C314.547 107.43 262.861 147.409 276.13 222.683Z" fill="url(#paint2_linear)"/>
<path d="M276.13 222.683C276.494 224.761 278.876 225.784 280.663 224.662C290.557 218.428 316.83 198.307 321.595 158.426C325.632 124.748 331.025 106.836 334.036 98.8864C334.665 97.2041 332.779 95.6868 331.257 96.6764C314.547 107.43 262.861 147.409 276.13 222.683Z" fill="url(#paint3_linear)"/>
<path d="M278.975 223.178C279.008 223.211 279.041 223.244 279.108 223.277C279.505 223.508 280.001 223.409 280.233 223.013C280.497 222.584 308.061 178.976 315.771 132.367C315.837 131.905 315.539 131.509 315.076 131.411C314.613 131.345 314.216 131.641 314.116 132.103C306.473 178.383 279.108 221.693 278.843 222.155C278.611 222.485 278.677 222.914 278.975 223.178Z" fill="white"/>
<path d="M58.0742 304.365C58.0742 306.74 60.0265 308.686 62.4089 308.686H296.518C298.9 308.686 300.852 306.74 300.852 304.365L302.805 170.243C302.805 167.868 299.992 163.25 294.863 163.58L66.0488 157.708C63.0707 157.642 60.1588 158.764 58.0411 160.875C55.9234 162.986 54.7652 165.856 54.8314 168.825L58.0742 304.365Z" fill="#2E7FFF"/>
<path d="M62.3428 300.208C62.3428 302.451 64.1958 304.298 66.4459 304.298H290.859C293.109 304.298 294.962 302.451 294.962 300.208L296.815 178.456C296.584 171.134 290.164 168.495 286.26 168.66L66.9422 162.821C64.8576 162.755 62.806 163.58 61.317 165.064C59.828 166.548 59.0007 168.561 59.0669 170.672L62.3428 300.208Z" fill="#FCCC20"/>
<path d="M292.514 242.383C292.183 242.383 291.918 242.119 291.918 241.79L292.05 231.927C292.05 231.597 292.315 231.333 292.646 231.333C292.977 231.333 293.242 231.597 293.242 231.927L293.109 241.79C293.109 242.119 292.845 242.383 292.514 242.383Z" fill="#91B3FA"/>
<path d="M292.878 218.205C292.547 218.205 292.282 217.941 292.282 217.611L292.845 179.809C292.845 177.566 292.15 175.785 290.826 174.498C288.311 172.123 284.374 172.222 284.208 172.255L214.125 170.375C213.794 170.375 213.529 170.078 213.529 169.748C213.529 169.418 213.794 169.121 214.158 169.154L284.208 171.035C284.638 171.002 288.874 170.936 291.686 173.607C293.275 175.125 294.069 177.203 294.102 179.809L293.539 217.644C293.473 217.941 293.209 218.205 292.878 218.205Z" fill="#91B3FA"/>
<path d="M40.9669 319.802H313.228C314.254 319.802 315.114 318.978 315.114 317.922V309.873C315.114 308.851 314.287 307.993 313.228 307.993H40.9669C39.9411 307.993 39.0808 308.818 39.0808 309.873V317.922C39.0808 318.978 39.908 319.802 40.9669 319.802Z" fill="#2D74E6"/>
<path d="M250.722 78.5088L96.9213 77.5852C91.8586 77.5522 87.8217 81.7414 88.0533 86.7883L98.642 304.629H269.781L279.278 110.01L250.722 78.5088Z" fill="white"/>
<path d="M257.108 109.054C252.111 108.889 248.24 104.568 248.637 99.5867L250.291 78.7725L279.311 109.878L257.108 109.054Z" fill="#7D97F4"/>
<path d="M257.108 109.054C252.111 108.889 248.24 104.568 248.637 99.5867L250.291 78.7725L279.311 109.878L257.108 109.054Z" fill="#F3F3F3"/>
<g opacity="0.7">
<g opacity="0.7">
<path opacity="0.78" d="M169.222 120.104C183.02 120.071 236.03 119.906 249.431 119.873C251.119 119.873 252.475 121.489 252.376 123.403C252.31 125.25 250.986 126.734 249.398 126.734L169.255 127.427C167.7 127.427 166.409 126.107 166.277 124.326L166.244 123.864C166.045 121.852 167.435 120.104 169.222 120.104Z" fill="white"/>
</g>
<g opacity="0.7">
<path opacity="0.78" d="M168.593 135.376C182.392 135.343 235.401 135.178 248.802 135.146C250.49 135.146 251.847 136.762 251.747 138.675C251.681 140.522 250.358 142.007 248.769 142.007L168.626 142.699C167.071 142.699 165.781 141.38 165.648 139.599L165.615 139.137C165.417 137.125 166.806 135.376 168.593 135.376Z" fill="white"/>
</g>
<g opacity="0.7">
<path opacity="0.78" d="M120.713 157.147C142.022 157.147 223.886 157.147 244.567 157.114C247.181 157.114 249.299 158.731 249.233 160.677C249.199 162.524 247.181 164.008 244.699 164.008L120.911 164.47C118.529 164.47 116.51 163.118 116.246 161.369L116.179 160.908C115.882 158.896 117.966 157.147 120.713 157.147Z" fill="white"/>
</g>
<g opacity="0.7">
<path opacity="0.78" d="M119.72 173.179C136.331 173.113 200.028 172.75 216.11 172.651C218.128 172.651 219.783 174.234 219.717 176.18C219.684 178.028 218.095 179.512 216.176 179.545L119.819 180.535C117.966 180.568 116.411 179.215 116.212 177.434L116.179 176.972C115.948 174.96 117.602 173.179 119.72 173.179Z" fill="white"/>
</g>
<g opacity="0.7">
<path opacity="0.78" d="M120.481 194.191C141.791 194.191 223.654 194.191 244.335 194.158C246.949 194.158 249.067 195.774 249.001 197.72C248.968 199.567 246.949 201.052 244.468 201.052L120.68 201.514C118.297 201.514 116.279 200.161 116.014 198.413L115.948 197.951C115.65 195.939 117.768 194.191 120.481 194.191Z" fill="white"/>
</g>
<g opacity="0.7">
<path opacity="0.78" d="M118.628 210.486C135.305 210.519 199.333 210.552 215.481 210.552C217.533 210.552 219.154 212.168 219.088 214.114C219.022 215.962 217.433 217.446 215.514 217.446L118.694 217.842C116.841 217.842 115.253 216.489 115.087 214.741L115.054 214.279C114.856 212.234 116.51 210.486 118.628 210.486Z" fill="white"/>
</g>
<g opacity="0.7">
<path opacity="0.78" d="M119.422 231.96C140.732 231.96 222.595 231.96 243.276 231.927C245.89 231.927 248.008 233.543 247.942 235.489C247.909 237.336 245.89 238.821 243.409 238.821L119.621 239.283C117.238 239.283 115.22 237.93 114.955 236.182L114.889 235.72C114.624 233.708 116.709 231.96 119.422 231.96Z" fill="white"/>
</g>
<g opacity="0.7">
<path opacity="0.78" d="M118.165 248.09C134.842 248.123 198.87 248.156 215.018 248.156C217.069 248.156 218.691 249.772 218.625 251.718C218.559 253.566 216.97 255.05 215.051 255.05L118.231 255.446C116.378 255.446 114.79 254.093 114.624 252.345L114.591 251.883C114.359 249.838 116.014 248.057 118.165 248.09Z" fill="white"/>
</g>
<path opacity="0.78" d="M120.713 269.3C142.022 269.3 223.886 269.3 244.567 269.267C247.181 269.267 249.299 270.883 249.233 272.83C249.199 274.677 247.181 276.161 244.699 276.161L120.911 276.623C118.529 276.623 116.51 275.271 116.246 273.522L116.179 273.06C115.882 271.081 117.966 269.3 120.713 269.3Z" fill="white"/>
<path opacity="0.78" d="M119.488 287.179C135.967 287.179 199.168 287.113 215.117 287.08C217.136 287.08 218.757 288.696 218.691 290.642C218.625 292.489 217.07 293.974 215.15 293.974L119.555 294.534C117.702 294.534 116.179 293.182 115.981 291.434L115.948 290.972C115.749 288.927 117.404 287.179 119.488 287.179Z" fill="white"/>
</g>
<g opacity="0.78">
<path opacity="0.78" d="M166.277 90.2847V113.21H165.086C163.762 104.436 161.711 98.3663 158.865 95.0347C156.516 92.2639 153.074 90.8455 148.475 90.7795C147.317 90.7795 146.688 90.8125 146.589 90.9115C146.357 91.0764 146.258 91.7691 146.258 93.0226V136.927C146.258 138.51 146.357 139.5 146.589 139.929C146.688 140.16 147.118 140.391 147.78 140.622C148.475 140.852 149.798 141.05 151.751 141.215C153.703 141.38 156.317 141.413 159.626 141.413V142.205L121.937 142.436V141.611C125.279 141.578 127.926 141.479 129.912 141.314C131.897 141.149 133.221 140.918 133.915 140.687C134.61 140.424 135.074 140.127 135.272 139.797C135.471 139.434 135.57 138.51 135.57 136.993V92.9896C135.57 91.5712 135.404 90.8125 135.04 90.6806C134.875 90.6146 134.246 90.5816 133.221 90.5816C128.687 90.5156 125.213 91.8351 122.797 94.5399C119.852 97.9045 117.668 104.007 116.212 112.814H114.988V89.625L166.277 90.2847Z" fill="white"/>
</g>
<path d="M142.816 203.559L136.761 194.323L202.444 151.507L208.499 160.743L142.816 203.559Z" fill="#2E7FFF"/>
<path d="M140.467 205.538L145.464 195.708L215.514 231.003L210.518 240.833L140.467 205.538Z" fill="#2E7FFF"/>
<path d="M145.232 217.842C155.448 217.842 163.729 209.586 163.729 199.403C163.729 189.219 155.448 180.963 145.232 180.963C135.016 180.963 126.735 189.219 126.735 199.403C126.735 209.586 135.016 217.842 145.232 217.842Z" fill="#2E7FFF"/>
<path d="M208.863 175.488C219.079 175.488 227.36 167.232 227.36 157.049C227.36 146.865 219.079 138.609 208.863 138.609C198.648 138.609 190.366 146.865 190.366 157.049C190.366 167.232 198.648 175.488 208.863 175.488Z" fill="#2E7FFF"/>
<path d="M213.198 253.236C223.414 253.236 231.695 244.98 231.695 234.797C231.695 224.613 223.414 216.357 213.198 216.357C202.982 216.357 194.701 224.613 194.701 234.797C194.701 244.98 202.982 253.236 213.198 253.236Z" fill="#2E7FFF"/>
<path d="M263.957 168.734C278.893 168.734 291 156.664 291 141.776C291 126.887 278.893 114.818 263.957 114.818C249.022 114.818 236.915 126.887 236.915 141.776C236.915 156.664 249.022 168.734 263.957 168.734Z" fill="#2E7FFF"/>
<path d="M263.957 167.846C278.401 167.846 290.11 156.174 290.11 141.776C290.11 127.377 278.401 115.705 263.957 115.705C249.514 115.705 237.805 127.377 237.805 141.776C237.805 156.174 249.514 167.846 263.957 167.846Z" fill="#2E7FFF"/>
<path opacity="0.6" d="M239.862 140.735C239.708 140.735 239.616 140.613 239.616 140.49C239.677 139.481 239.8 138.44 239.984 137.431C240.015 137.308 240.138 137.216 240.261 137.216C240.383 137.247 240.476 137.369 240.476 137.492C240.291 138.471 240.169 139.481 240.138 140.49C240.107 140.643 239.984 140.735 239.862 140.735Z" fill="white"/>
<path opacity="0.6" d="M242.409 131.188C242.379 131.188 242.348 131.188 242.287 131.158C242.164 131.097 242.102 130.944 242.164 130.821C246.338 122.559 254.687 117.449 263.957 117.449C265.431 117.449 266.904 117.572 268.347 117.847C268.47 117.878 268.562 118 268.531 118.122C268.5 118.245 268.378 118.337 268.255 118.306C266.843 118.061 265.4 117.908 263.957 117.908C254.872 117.908 246.707 122.927 242.624 131.005C242.593 131.127 242.501 131.188 242.409 131.188Z" fill="white"/>
<path opacity="0.78" d="M286.38 145.863C288.339 133.836 280.145 122.503 268.08 120.551C256.015 118.599 244.647 126.767 242.689 138.794C240.731 150.822 248.924 162.154 260.989 164.106C273.054 166.058 284.422 157.89 286.38 145.863Z" fill="#E0ECFF"/>
<path d="M271.324 134.004C271.324 137.737 268.285 141.776 264.541 141.776C260.796 141.776 257.757 137.737 257.757 134.004C257.757 130.271 260.796 127.608 264.541 127.608C268.285 127.608 271.324 130.271 271.324 134.004Z" fill="#2E7FFF"/>
<path d="M256.099 156.158H272.675C274.425 156.158 275.959 155.025 276.481 153.373L277.371 150.588C278.016 148.569 276.972 146.366 274.946 145.631C268.193 143.183 261.226 143.489 254.104 145.846C252.109 146.519 251.004 148.63 251.557 150.68L252.232 153.189C252.723 154.934 254.288 156.158 256.099 156.158Z" fill="#2E7FFF"/>
<path d="M264.592 279.037C279.284 279.037 291.194 267.164 291.194 252.518C291.194 237.873 279.284 226 264.592 226C249.901 226 237.991 237.873 237.991 252.518C237.991 267.164 249.901 279.037 264.592 279.037Z" fill="#2E7FFF"/>
<path d="M264.592 278.164C278.8 278.164 290.318 266.682 290.318 252.519C290.318 238.355 278.8 226.873 264.592 226.873C250.384 226.873 238.867 238.355 238.867 252.519C238.867 266.682 250.384 278.164 264.592 278.164Z" fill="#2E7FFF"/>
<path opacity="0.6" d="M240.89 251.495C240.859 251.495 240.859 251.495 240.89 251.495C240.739 251.495 240.648 251.374 240.648 251.254C240.708 250.261 240.829 249.237 241.01 248.244C241.041 248.124 241.161 248.033 241.282 248.033C241.403 248.063 241.494 248.184 241.494 248.304C241.312 249.267 241.192 250.261 241.161 251.254C241.101 251.404 241.01 251.495 240.89 251.495Z" fill="white"/>
<path opacity="0.6" d="M243.366 242.103C243.335 242.103 243.305 242.103 243.245 242.073C243.124 242.013 243.064 241.863 243.124 241.742C247.231 233.615 255.443 228.588 264.562 228.588C266.012 228.588 267.461 228.709 268.88 228.98C269.001 229.01 269.091 229.13 269.061 229.251C269.031 229.371 268.91 229.461 268.79 229.431C267.401 229.19 265.981 229.04 264.562 229.04C255.625 229.04 247.593 233.976 243.577 241.923C243.547 242.043 243.456 242.103 243.366 242.103Z" fill="white"/>
<path opacity="0.78" d="M286.325 258.086C289.088 246.421 281.842 234.732 270.141 231.978C258.44 229.223 246.714 236.447 243.951 248.111C241.188 259.776 248.434 271.465 260.135 274.219C271.837 276.973 283.562 269.75 286.325 258.086Z" fill="#E0ECFF"/>
<path d="M271.809 244.873C271.809 248.545 268.82 252.518 265.136 252.518C261.452 252.518 258.463 248.545 258.463 244.873C258.463 241.201 261.452 238.582 265.136 238.582C268.82 238.582 271.809 241.201 271.809 244.873Z" fill="#2E7FFF"/>
<path d="M256.863 266.666H273.168C274.889 266.666 276.399 265.552 276.912 263.927L277.788 261.187C278.422 259.201 277.395 257.034 275.402 256.311C268.759 253.903 261.905 254.204 254.9 256.522C252.937 257.184 251.85 259.261 252.394 261.278L253.058 263.746C253.511 265.462 255.081 266.666 256.863 266.666Z" fill="#2E7FFF"/>
<path d="M93.0759 237.238C107.663 237.238 119.489 225.449 119.489 210.907C119.489 196.366 107.663 184.577 93.0759 184.577C78.4885 184.577 66.6631 196.366 66.6631 210.907C66.6631 225.449 78.4885 237.238 93.0759 237.238Z" fill="#2E7FFF"/>
<path d="M93.076 236.371C107.183 236.371 118.619 224.971 118.619 210.907C118.619 196.844 107.183 185.444 93.076 185.444C78.9688 185.444 67.5326 196.844 67.5326 210.907C67.5326 224.971 78.9688 236.371 93.076 236.371Z" fill="#2E7FFF"/>
<path opacity="0.6" d="M69.5412 209.921C69.3913 209.921 69.3014 209.802 69.3014 209.682C69.3614 208.696 69.4813 207.68 69.6612 206.694C69.6911 206.574 69.8111 206.484 69.931 206.484C70.0509 206.514 70.1408 206.634 70.1408 206.753C69.961 207.71 69.841 208.696 69.8111 209.682C69.7811 209.802 69.6612 209.921 69.5412 209.921Z" fill="white"/>
<path opacity="0.6" d="M72.0296 200.567C71.9996 200.567 71.9696 200.567 71.9097 200.537C71.7898 200.477 71.7298 200.328 71.7898 200.208C75.8671 192.139 84.0218 187.148 93.0759 187.148C94.515 187.148 95.9541 187.267 97.3632 187.536C97.4831 187.566 97.573 187.686 97.543 187.805C97.5131 187.925 97.3931 188.015 97.2732 187.985C95.8941 187.746 94.485 187.596 93.0759 187.596C84.2017 187.596 76.2269 192.498 72.2395 200.388C72.2095 200.537 72.1195 200.567 72.0296 200.567Z" fill="white"/>
<path opacity="0.78" d="M108.932 226.711C117.373 218.295 117.373 204.652 108.932 196.237C100.49 187.822 86.8039 187.822 78.3624 196.237C69.9209 204.652 69.9209 218.295 78.3624 226.711C86.8039 235.126 100.49 235.126 108.932 226.711Z" fill="#E0ECFF"/>
<path d="M100.271 203.317C100.271 206.963 97.3033 210.908 93.6457 210.908C89.9881 210.908 87.02 206.963 87.02 203.317C87.02 199.67 89.9881 197.07 93.6457 197.07C97.3033 197.1 100.271 199.67 100.271 203.317Z" fill="#2E7FFF"/>
<path d="M85.4009 224.954H101.59C103.299 224.954 104.798 223.849 105.308 222.235L106.177 219.515C106.807 217.542 105.788 215.391 103.809 214.673C97.2133 212.282 90.4077 212.581 83.4522 214.883C81.5034 215.54 80.4241 217.602 80.9638 219.605L81.6234 222.055C82.1031 223.789 83.6321 224.954 85.4009 224.954Z" fill="#2E7FFF"/>
<defs>
<linearGradient id="paint0_linear" x1="250.877" y1="53.9504" x2="292.348" y2="153.661" gradientUnits="userSpaceOnUse">
<stop stop-color="#FF928E"/>
<stop offset="1" stop-color="#FE7062"/>
</linearGradient>
<linearGradient id="paint1_linear" x1="300.783" y1="35.8515" x2="225.076" y2="50.8379" gradientUnits="userSpaceOnUse">
<stop stop-color="#6EDCFF"/>
<stop offset="1" stop-color="#2E7FFF"/>
</linearGradient>
<linearGradient id="paint2_linear" x1="271.69" y1="150.086" x2="345.107" y2="173.309" gradientUnits="userSpaceOnUse">
<stop stop-color="#FEBBBA"/>
<stop offset="1" stop-color="#FF928E"/>
</linearGradient>
<linearGradient id="paint3_linear" x1="322.764" y1="82.7543" x2="249.344" y2="99.4765" gradientUnits="userSpaceOnUse">
<stop stop-color="#6EDCFF"/>
<stop offset="1" stop-color="#2E7FFF"/>
</linearGradient>
</defs>
</svg>
