<svg width="690" height="631" viewBox="0 0 690 631" fill="none" xmlns="http://www.w3.org/2000/svg">
<path opacity="0.15" d="M126.094 331.67C25.0202 450.757 -30.1723 546.432 48.973 580.145C111.115 606.6 259.487 563.366 342.141 592.007C379.521 604.961 478.705 649.443 551.306 577.491C615.877 513.422 687.128 306.073 548.809 335.65C493.212 347.512 538.486 146.172 433.364 136.183C358.874 129.003 211.042 231.546 126.094 331.67Z" fill="#2E7FFF"/>
<path opacity="0.42" d="M585.32 494.67C568.816 525.879 548.372 554.187 529.015 572.065C448.939 645.774 362.681 611.272 323.085 595.825C235.537 561.558 105.879 621.466 39.7942 591.59C-0.41389 573.476 3.86501 524.781 40.745 450.837C56.6381 418.844 78.7118 382.224 105.811 341.292C184.801 222.18 319.009 113.42 374.703 113.185C487.652 112.793 476.853 335.411 536.758 325.217C645.292 306.633 629.399 411.081 585.32 494.67Z" fill="#2E7FFF" fill-opacity="0.15"/>
<path d="M138.106 347.742C134.634 351.358 150.331 360.701 150.331 360.701C150.331 360.701 143.615 341.94 138.106 347.742Z" fill="#FCCC20"/>
<path d="M143.464 364.544C145.124 362.359 153.048 365.75 158.406 372.983C158.406 372.983 152.671 371.702 149.124 371.476C145.501 371.175 140.898 367.859 143.464 364.544Z" fill="#FCCC20"/>
<path d="M169.651 418.265C165.878 379.387 148.973 359.42 148.822 359.269L149.275 358.817C149.426 359.043 167.84 378.709 171.613 417.813L169.651 418.265Z" fill="#FCCC20"/>
<path d="M162.029 356.181C158.784 356.934 159.237 374.414 159.237 374.414C159.237 374.414 164.066 369.894 166.18 365.298C168.217 360.702 165.123 355.427 162.029 356.181Z" fill="#FCCC20"/>
<path d="M164.368 386.319C164.368 386.319 155.237 376.825 148.143 379.236C140.973 381.647 152.143 387.901 164.368 386.319Z" fill="#FCCC20"/>
<path d="M167.764 399.58C167.764 399.58 155.463 387.524 149.803 393.628C144.143 399.806 167.764 399.58 167.764 399.58Z" fill="#FCCC20"/>
<path d="M169.727 406.361C169.727 406.361 181.424 397.169 177.952 388.881C174.481 380.593 167.387 398.977 169.727 406.361Z" fill="#FCCC20"/>
<path d="M163.991 388.353C163.991 388.353 176.292 379.914 173.274 371.4C170.33 362.886 162.104 380.743 163.991 388.353Z" fill="#FCCC20"/>
<path d="M188.292 476.96C181.575 460.384 172.67 436.575 158.557 431.978C144.445 427.382 141.049 437.177 141.351 441.773C141.653 446.37 134.936 438.383 117.428 429.191C99.9191 419.998 85.8821 421.053 80.2975 423.389C70.7886 427.382 73.279 431.376 75.0902 438.684C76.9015 446.068 35.8471 441.171 28.8286 449.308C21.8101 457.37 35.2434 469.35 51.8462 469.049C68.4491 468.747 72.9771 471.836 68.0718 477.035C63.1664 482.234 65.2795 497.831 93.5043 491.125C121.729 484.419 133.351 485.549 128.144 492.783C122.937 500.016 118.635 508.304 139.766 509.208C160.897 510.112 186.405 503.406 190.933 509.208C195.612 514.859 194.857 493.235 188.292 476.96Z" fill="url(#paint0_linear)"/>
<path d="M190.556 509.283C176.594 475.604 134.785 462.192 102.183 456.842C66.7888 451.041 34.1868 453.301 33.8849 453.301L33.8095 452.322C34.1113 452.322 66.7888 450.061 102.334 455.863C135.238 461.213 177.349 474.775 191.537 508.906L190.556 509.283Z" fill="white"/>
<path d="M84.0709 478.316L83.3162 477.638C83.4672 477.487 100.523 459.027 121.729 459.856L121.654 460.836C100.976 460.007 84.2973 478.165 84.0709 478.316Z" fill="white"/>
<path d="M126.031 461.966C108.598 456.089 92.0704 433.109 91.9195 432.883L92.7496 432.28C92.9006 432.506 109.202 455.26 126.333 460.987L126.031 461.966Z" fill="white"/>
<path d="M168.896 481.933C154.784 463.624 158.406 447.123 158.406 446.973L159.387 447.199C159.387 447.349 155.841 463.398 169.651 481.33L168.896 481.933Z" fill="white"/>
<path d="M156.067 482.46C139.615 473.871 137.2 458.802 147.162 455.637C154.105 453.377 153.803 446.746 130.71 431.903C107.617 417.06 111.843 404.929 116.296 402.368C120.748 399.731 134.559 398.073 120.748 385.264C106.862 372.38 100.9 353.996 106.032 350.153C111.164 346.31 126.182 356.407 136.672 369.969C147.237 383.531 160.746 400.107 161.953 389.257C163.236 378.408 173.651 377.428 180.896 391.292C188.141 405.155 193.197 438.684 198.253 433.109C202.932 427.835 210.781 426.328 213.422 446.294C215.611 462.946 211.46 490.296 211.46 490.296C211.46 490.296 172.519 491.05 156.067 482.46Z" fill="url(#paint1_linear)"/>
<path d="M156.067 482.46C139.615 473.871 137.2 458.802 147.162 455.637C154.105 453.377 153.803 446.746 130.71 431.903C107.617 417.06 111.843 404.929 116.296 402.368C120.748 399.731 134.559 398.073 120.748 385.264C106.862 372.38 100.9 353.996 106.032 350.153C111.164 346.31 126.182 356.407 136.672 369.969C147.237 383.531 160.746 400.107 161.953 389.257C163.236 378.408 173.651 377.428 180.896 391.292C188.141 405.155 193.197 438.684 198.253 433.109C202.932 427.835 210.781 426.328 213.422 446.294C215.611 462.946 211.46 490.296 211.46 490.296C211.46 490.296 172.519 491.05 156.067 482.46Z" fill="url(#paint2_linear)"/>
<path d="M211.083 490.447C179.764 426.629 111.013 355.578 110.334 354.9L111.088 354.222C111.768 354.9 180.594 426.026 211.988 490.07L211.083 490.447Z" fill="white"/>
<path d="M170.33 425.8C148.52 412.238 127.087 414.046 126.861 414.046L126.786 413.067C127.012 413.067 148.747 411.183 170.859 424.971L170.33 425.8Z" fill="white"/>
<path d="M203.385 475.83C177.5 461.062 154.784 470.33 154.558 470.405L154.18 469.501C154.407 469.425 177.575 460.007 203.913 474.926L203.385 475.83Z" fill="white"/>
<path d="M172.142 428.362C167.387 421.807 171.01 397.47 171.16 396.491L172.142 396.641C172.142 396.867 168.444 421.581 172.972 427.835L172.142 428.362Z" fill="white"/>
<path d="M477.181 384.511C480.653 388.127 464.956 397.47 464.956 397.47C464.956 397.47 471.672 378.709 477.181 384.511Z" fill="#FCCC20"/>
<path d="M471.823 401.313C470.163 399.128 462.239 402.519 456.881 409.752C456.881 409.752 462.616 408.471 466.163 408.245C469.786 408.019 474.389 404.704 471.823 401.313Z" fill="#FCCC20"/>
<path d="M445.636 455.034C449.409 416.156 466.314 396.189 466.465 396.038L466.012 395.586C465.861 395.812 447.447 415.478 443.674 454.582L445.636 455.034Z" fill="#FCCC20"/>
<path d="M453.258 392.949C456.503 393.703 456.051 411.183 456.051 411.183C456.051 411.183 451.221 406.662 449.108 402.066C447.07 397.47 450.164 392.196 453.258 392.949Z" fill="#FCCC20"/>
<path d="M450.919 423.163C450.919 423.163 460.05 413.67 467.144 416.081C474.314 418.492 463.145 424.67 450.919 423.163Z" fill="#FCCC20"/>
<path d="M447.523 436.349C447.523 436.349 459.824 424.294 465.484 430.397C471.144 436.575 447.523 436.349 447.523 436.349Z" fill="#FCCC20"/>
<path d="M445.561 443.13C445.561 443.13 433.863 433.938 437.335 425.65C440.806 417.437 447.9 435.746 445.561 443.13Z" fill="#FCCC20"/>
<path d="M451.296 425.122C451.296 425.122 438.995 416.684 442.014 408.17C444.957 399.731 453.258 417.512 451.296 425.122Z" fill="#FCCC20"/>
<path d="M490.162 498.208C506.614 489.618 509.029 474.549 499.067 471.385C492.124 469.124 492.426 462.494 515.519 447.651C538.612 432.808 534.386 420.677 529.933 418.115C525.481 415.553 511.67 413.82 525.481 401.012C539.367 388.128 545.329 369.743 540.197 365.9C535.065 362.058 520.047 372.154 509.557 385.716C498.992 399.279 485.483 415.855 484.276 405.005C482.993 394.155 472.578 393.176 465.333 407.039C458.088 420.903 453.032 454.432 447.976 448.856C443.297 443.582 435.448 442.075 432.807 462.042C430.618 478.693 434.769 506.044 434.769 506.044C434.769 506.044 473.71 506.797 490.162 498.208Z" fill="url(#paint3_linear)"/>
<path d="M490.162 498.208C506.614 489.618 509.029 474.549 499.067 471.385C492.124 469.124 492.426 462.494 515.519 447.651C538.612 432.808 534.386 420.677 529.933 418.115C525.481 415.553 511.67 413.82 525.481 401.012C539.367 388.128 545.329 369.743 540.197 365.9C535.065 362.058 520.047 372.154 509.557 385.716C498.992 399.279 485.483 415.855 484.276 405.005C482.993 394.155 472.578 393.176 465.333 407.039C458.088 420.903 453.032 454.432 447.976 448.856C443.297 443.582 435.448 442.075 432.807 462.042C430.618 478.693 434.769 506.044 434.769 506.044C434.769 506.044 473.71 506.797 490.162 498.208Z" fill="url(#paint4_linear)"/>
<path d="M435.146 506.194L434.24 505.742C465.635 441.774 534.461 370.647 535.141 369.894L535.895 370.572C535.216 371.325 466.541 442.301 435.146 506.194Z" fill="white"/>
<path d="M475.898 441.548L475.37 440.719C497.482 426.931 519.217 428.814 519.443 428.814L519.368 429.794C519.141 429.794 497.709 427.985 475.898 441.548Z" fill="white"/>
<path d="M442.844 491.578L442.315 490.673C468.654 475.679 491.822 485.098 492.049 485.248L491.671 486.153C491.445 486.077 468.729 476.81 442.844 491.578Z" fill="white"/>
<path d="M474.087 444.109L473.257 443.506C477.785 437.253 474.087 412.615 474.087 412.313L475.068 412.163C475.219 413.217 478.842 437.554 474.087 444.109Z" fill="white"/>
<path d="M205.196 384.511C202.178 386.846 212.97 395.511 212.97 395.511C212.97 395.511 210.026 380.743 205.196 384.511Z" fill="#091D7B"/>
<path d="M207.385 397.696C208.894 396.265 214.403 399.58 217.648 405.608C217.648 405.608 213.498 404.025 210.856 403.498C208.215 402.895 205.121 399.881 207.385 397.696Z" fill="#091D7B"/>
<path d="M221.195 440.643C222.629 411.183 212.139 394.456 211.988 394.23L212.366 393.929C212.517 394.079 224.063 410.806 222.705 440.492L221.195 440.643Z" fill="#091D7B"/>
<path d="M222.177 393.402C219.686 393.628 218.101 406.738 218.101 406.738C218.101 406.738 222.177 403.875 224.29 400.71C226.327 397.47 224.592 393.176 222.177 393.402Z" fill="#091D7B"/>
<path d="M220.667 416.232C220.667 416.232 214.856 408.169 209.272 409.149C203.687 410.204 211.385 416.081 220.667 416.232Z" fill="#091D7B"/>
<path d="M221.799 426.478C221.799 426.478 213.951 416.156 209.045 420.149C204.14 424.067 221.799 426.478 221.799 426.478Z" fill="#091D7B"/>
<path d="M222.554 431.753C222.554 431.753 232.289 426.177 230.629 419.547C228.818 413.067 221.573 425.951 222.554 431.753Z" fill="#091D7B"/>
<path d="M220.214 417.663C220.214 417.663 230.327 412.69 228.969 405.984C227.686 399.354 219.535 411.786 220.214 417.663Z" fill="#091D7B"/>
<path opacity="0.22" d="M306.096 524.88C387.372 524.88 453.258 519.247 453.258 512.298C453.258 505.348 387.372 499.715 306.096 499.715C224.821 499.715 158.935 505.348 158.935 512.298C158.935 519.247 224.821 524.88 306.096 524.88Z" fill="#9FAAD4"/>
<path d="M438.844 170.603L432.656 163.973C430.014 165.179 427.448 166.535 425.109 168.117L427.448 176.857C425.033 178.741 422.92 180.775 420.958 183.111L412.279 180.474C410.619 182.809 409.11 185.296 407.827 187.858L414.242 194.262C413.109 197.05 412.279 199.913 411.751 202.927L402.921 204.961C402.62 207.749 402.544 210.687 402.77 213.551L411.525 215.886C411.751 217.393 411.977 218.825 412.355 220.332C412.732 221.839 413.185 223.27 413.638 224.626L406.997 230.805C408.204 233.442 409.562 236.004 411.147 238.339L419.902 236.004C421.788 238.415 423.826 240.524 426.165 242.483L423.524 251.148C425.864 252.806 428.354 254.313 430.92 255.594L437.335 249.189C440.127 250.319 442.995 251.148 446.013 251.676L448.051 260.491C450.843 260.793 453.786 260.868 456.654 260.642L458.994 251.902C460.503 251.676 461.937 251.45 463.446 251.073C464.956 250.696 466.39 250.244 467.748 249.792L473.936 256.422C476.578 255.217 479.144 253.861 481.483 252.278L479.144 243.538C481.559 241.655 483.672 239.62 485.634 237.285L494.313 239.846C495.973 237.511 497.482 235.024 498.765 232.462L492.35 226.058C493.482 223.27 494.313 220.407 494.841 217.393L503.671 215.359C503.972 212.571 504.048 209.633 503.821 206.77L495.067 204.434C494.841 202.927 494.614 201.495 494.237 199.988C493.86 198.481 493.407 197.05 492.954 195.694L499.595 189.515C498.388 186.878 497.029 184.316 495.445 181.981L486.69 184.316C484.804 181.905 482.766 179.796 480.427 177.837L483.068 169.172C480.728 167.514 478.238 166.007 475.672 164.726L469.257 171.131C466.465 170.001 463.597 169.172 460.579 168.644L458.541 159.829C455.749 159.528 452.805 159.452 449.938 159.678L447.598 168.418C446.089 168.644 444.655 168.871 443.146 169.247C441.636 169.624 440.202 170.076 438.844 170.603ZM448.051 188.988C459.748 186.125 471.597 193.207 474.465 204.886C477.332 216.564 470.238 228.394 458.541 231.257C446.843 234.12 434.995 227.038 432.127 215.359C429.184 203.756 436.354 191.926 448.051 188.988Z" fill="#A9E1F2"/>
<path opacity="0.31" d="M445.183 177.46C427.071 181.906 416.053 200.215 420.505 218.298C424.958 236.381 443.297 247.381 461.409 242.936C479.521 238.491 490.539 220.181 486.087 202.098C481.559 184.015 463.295 172.94 445.183 177.46ZM448.051 188.988C459.748 186.125 471.597 193.208 474.465 204.886C477.332 216.565 470.238 228.394 458.541 231.257C446.844 234.12 434.995 227.038 432.127 215.359C429.184 203.756 436.354 191.927 448.051 188.988Z" fill="#5574D8"/>
<path d="M494.841 107.765L491.973 103.546C490.388 103.998 488.879 104.525 487.445 105.203L488.049 110.251C486.539 111.08 485.181 112.06 483.974 113.19L479.37 111.005C478.238 112.135 477.181 113.416 476.276 114.772L479.295 118.841C478.464 120.272 477.71 121.855 477.181 123.437L472.125 123.814C471.748 125.396 471.446 126.978 471.37 128.56L476.049 130.595C476.049 131.424 476.049 132.252 476.2 133.157C476.276 133.985 476.427 134.814 476.578 135.643L472.352 138.506C472.804 140.088 473.333 141.595 474.012 143.027L479.068 142.424C479.898 143.931 480.879 145.287 482.011 146.568L479.823 151.164C480.955 152.294 482.238 153.349 483.596 154.253L487.671 151.24C489.105 152.068 490.69 152.822 492.275 153.349L492.652 158.397C494.237 158.774 495.822 159.076 497.407 159.151L499.444 154.479C500.275 154.479 501.105 154.479 502.01 154.404C502.916 154.329 503.671 154.178 504.501 154.027L507.369 158.247C508.953 157.795 510.463 157.267 511.897 156.589L511.293 151.541C512.802 150.712 514.161 149.733 515.368 148.602L519.972 150.788C521.104 149.657 522.16 148.376 523.066 147.02L520.047 142.952C520.877 141.52 521.632 139.938 522.16 138.355L527.216 137.979C527.594 136.472 527.896 134.814 527.971 133.232L523.292 131.198C523.292 130.369 523.292 129.54 523.217 128.711C523.141 127.882 522.99 127.054 522.839 126.225L527.066 123.362C526.613 121.779 526.084 120.272 525.405 118.841L520.349 119.444C519.519 117.937 518.538 116.58 517.406 115.3L519.594 110.703C518.462 109.573 517.179 108.518 515.821 107.614L511.746 110.628C510.312 109.799 508.727 109.046 507.142 108.518L506.689 103.47C505.18 103.094 503.52 102.792 501.935 102.717L499.897 107.388C499.067 107.388 498.237 107.388 497.407 107.464C496.501 107.464 495.671 107.614 494.841 107.765ZM498.614 120.498C504.425 119.896 509.557 124.19 510.161 129.917C510.765 135.718 506.463 140.842 500.727 141.369C494.916 141.972 489.785 137.677 489.181 131.951C488.577 126.225 492.803 121.026 498.614 120.498Z" fill="#A9E1F2"/>
<path opacity="0.31" d="M498.086 111.759C487.521 112.813 479.823 122.156 480.804 132.705C481.86 143.253 491.218 150.938 501.784 149.959C512.349 148.904 520.047 139.561 519.066 129.013C518.085 118.464 508.651 110.704 498.086 111.759ZM498.992 120.423C504.803 119.821 509.934 124.115 510.538 129.842C511.142 135.643 506.84 140.767 501.105 141.294C495.294 141.897 490.162 137.602 489.558 131.876C488.954 126.074 493.181 120.951 498.992 120.423Z" fill="#5574D8"/>
<path d="M439.9 512.297H175.009C170.859 512.297 167.463 508.907 167.463 504.763V100.909C167.463 96.7646 170.859 93.374 175.009 93.374H439.9C444.051 93.374 447.447 96.7646 447.447 100.909V504.763C447.447 508.907 444.051 512.297 439.9 512.297Z" fill="#286FE0"/>
<path d="M188.141 489.091V116.43C188.141 115.074 189.273 113.943 190.631 113.943H424.203C425.562 113.943 426.694 115.074 426.694 116.43V489.091C426.694 490.447 425.562 491.577 424.203 491.577H190.631C189.273 491.577 188.141 490.447 188.141 489.091Z" fill="white"/>
<path opacity="0.19" d="M344.962 103.244H269.872V122.382H344.962V103.244Z" fill="white"/>
<path d="M344.962 87.3462V119.142C344.962 120.95 343.528 122.382 341.717 122.382H273.117C271.306 122.382 269.872 120.95 269.872 119.142V87.3462C269.872 85.5379 271.306 84.1063 273.117 84.1063H285.645C287.305 84.1063 288.588 82.9008 288.89 81.2432C290.248 72.277 298.021 65.3452 307.379 65.3452C316.737 65.3452 324.511 72.2017 325.869 81.2432C326.095 82.8255 327.454 84.1063 329.114 84.1063H341.642C343.528 84.1063 344.962 85.5379 344.962 87.3462Z" fill="#FFB600"/>
<path d="M307.455 89.456C310.414 89.456 312.813 87.0609 312.813 84.1064C312.813 81.1519 310.414 78.7568 307.455 78.7568C304.496 78.7568 302.097 81.1519 302.097 84.1064C302.097 87.0609 304.496 89.456 307.455 89.456Z" fill="white"/>
<path opacity="0.22" d="M83.9954 531.887C111.546 531.887 133.879 528.345 133.879 523.976C133.879 519.606 111.546 516.064 83.9954 516.064C56.4452 516.064 34.1113 519.606 34.1113 523.976C34.1113 528.345 56.4452 531.887 83.9954 531.887Z" fill="#9FAAD4"/>
<path opacity="0.22" d="M483.37 556.751C510.92 556.751 533.254 553.209 533.254 548.84C533.254 544.471 510.92 540.929 483.37 540.929C455.82 540.929 433.486 544.471 433.486 548.84C433.486 553.209 455.82 556.751 483.37 556.751Z" fill="#9FAAD4"/>
<path d="M104.9 522.544C106.183 523.072 122.71 522.77 129.653 522.62C131.087 522.62 131.691 520.887 130.71 519.907C128.974 518.25 125.955 516.366 120.748 515.914C118.484 515.688 117.126 514.935 116.296 513.729C115.164 512.071 112.673 505.441 112.899 502.05C112.975 501.297 111.39 500.317 111.466 499.489C112.069 492.406 101.428 500.543 101.428 500.543C101.428 500.543 102.259 502.352 102.183 503.783C102.108 505.818 105.126 511.092 104.523 513.503C104.447 513.88 104.372 514.181 104.221 514.482C103.013 518.626 103.24 521.942 104.9 522.544Z" fill="#FDD1B1"/>
<path d="M104.9 522.545C106.258 523.072 125.578 522.695 131.163 522.545C131.842 522.545 132.144 521.791 131.842 521.113C130.71 518.853 127.616 515.387 120.975 514.784C118.71 514.558 116.597 513.654 115.767 512.448C113.428 512.599 111.617 513.578 111.617 515.763C111.617 517.044 107.692 517.346 104.598 513.503C104.523 513.88 104.447 514.181 104.296 514.483C103.013 518.627 103.24 521.942 104.9 522.545Z" fill="#202952"/>
<path d="M40.4506 517.346C38.1866 519.229 39.545 522.846 42.4883 522.846H54.6385C56.8271 522.846 59.7703 521.113 59.2421 515.613C59.2421 515.236 59.1666 514.935 59.1666 514.558C58.9402 511.845 58.9402 508.681 59.0157 506.119C59.0911 503.03 59.2421 500.694 59.2421 500.694L50.035 495.118L48.2238 493.988C48.2238 493.988 48.2993 494.365 48.3747 495.043C48.6011 497.077 49.1294 501.824 48.9785 506.119C48.8275 508.982 48.3747 511.695 47.3182 513.126C46.9409 513.578 46.5635 513.955 46.1107 514.181C43.5448 515.161 41.7336 516.291 40.4506 517.346Z" fill="#FDD1B1"/>
<path d="M37.3565 521.188C36.9791 522.017 37.5829 522.846 38.4885 522.846H54.6385C56.8271 522.846 59.7703 521.113 59.2421 515.612C59.2421 515.236 59.1666 514.934 59.1666 514.557C57.5063 515.612 56.6007 516.215 55.1668 514.859C54.1103 513.804 51.7708 511.619 48.2993 512.071C47.3182 512.222 47.0918 513.352 46.7144 513.653C46.488 513.804 46.2616 513.955 46.0352 514.105C40.2242 516.516 38.1111 519.38 37.3565 521.188Z" fill="#202952"/>
<path d="M43.5448 466.412V466.487C44.4504 479.296 45.5824 493.31 47.0163 508.379H59.6948L68.6755 393.929L101.353 508.379H116.446C116.446 508.379 98.5606 396.641 88.448 361.982C78.3353 327.398 40.7525 359.722 40.7525 359.722C40.7525 359.722 40.677 360.777 40.6015 362.811C40.2242 372.983 39.3941 407.868 43.5448 466.412Z" fill="#2E7FFF"/>
<path opacity="0.15" d="M43.5448 466.412C40.7525 397.395 52.1481 366.654 52.1481 366.654L40.6015 362.811C40.2242 372.983 39.3941 407.868 43.5448 466.412Z" fill="url(#paint5_linear)"/>
<path d="M129.05 317.377L128.974 318.357L128.446 323.104C128.446 323.104 129.276 322.878 130.408 322.652C131.691 322.426 133.351 322.2 134.861 322.35C135.012 322.35 135.162 322.426 135.313 322.426C138.257 322.953 143.992 323.254 148.067 321.295C150.105 320.316 149.275 319.487 149.275 319.487C153.878 318.508 153.426 316.624 152.445 316.624C151.539 316.624 149.275 316.775 148.973 316.85C150.935 316.549 152.822 315.644 152.746 314.891C152.746 314.213 151.765 314.062 149.954 314.439C147.992 314.816 142.105 315.192 139.691 314.891C137.276 314.665 138.332 313.987 139.389 312.555C140.521 311.124 142.181 309.014 141.2 308.411C140.219 307.808 136.672 311.952 135.313 312.857C134.785 313.233 133.729 313.987 132.597 314.74C130.936 316.021 129.05 317.377 129.05 317.377Z" fill="#FDD1B1"/>
<path d="M87.7688 302.384C85.7312 308.185 84.0709 313.987 84.0709 313.987C84.0709 313.987 90.6366 331.09 95.6174 335.008C95.8438 335.234 96.1457 335.385 96.3721 335.536C100.07 337.495 131.615 325.59 131.615 325.59L129.351 315.569L104.598 321.069C104.07 321.22 103.466 320.843 103.391 320.316C102.259 315.418 96.3721 292.363 93.6553 289.65C91.9195 287.917 90.0328 295.979 87.7688 302.384Z" fill="#FCCC20"/>
<path opacity="0.15" d="M87.7688 302.384C85.7312 308.185 84.0709 313.987 84.0709 313.987C84.0709 313.987 90.6366 331.09 95.6174 335.008C89.4291 323.33 88.448 302.233 88.448 302.233C88.448 302.233 88.1461 302.233 87.7688 302.384Z" fill="url(#paint6_linear)"/>
<path d="M29.1305 310.295C29.8852 313.459 30.9417 316.85 32.3756 320.542C40.2997 340.735 40.677 362.057 40.677 362.057C44.224 363.112 47.9219 363.79 51.5443 364.243C70.4112 366.578 88.5234 361.982 88.5234 361.982C88.5234 334.406 97.655 290.931 92.0704 287.239C86.4104 283.622 75.3166 276.992 65.5813 276.088L55.0913 275.862C32.7529 280.609 28.5267 288.068 28.5267 288.068C28.5267 288.068 25.8099 296.281 29.1305 310.295Z" fill="#FCCC20"/>
<path d="M43.9221 247.155C45.2051 257.101 57.8836 264.56 57.8836 264.56C57.8836 264.56 59.393 257.402 62.4872 250.772C64.9021 245.648 68.2227 240.826 72.4489 239.922C82.2597 237.812 79.8447 228.997 76.2223 227.414C76.1468 227.414 64.8267 223.496 53.7329 228.017C47.5446 230.579 47.8465 237.812 47.8465 237.812C47.8465 237.812 42.5637 237.209 43.9221 247.155Z" fill="#002B3B"/>
<path d="M55.0913 275.862C55.0913 275.862 60.6759 280.684 65.5813 280.609C70.4113 280.533 72.0716 277.67 72.0716 277.67L71.7697 271.266L71.5433 265.389L56.4498 256.573H56.3743V256.649C56.3743 257.025 56.3743 258.382 56.3743 259.888C56.3743 261.998 56.2988 264.485 56.2234 265.69C55.997 268.252 55.0913 275.862 55.0913 275.862Z" fill="#FDD1B1"/>
<path d="M68.6 283.246C68.6 283.246 66.7888 285.958 65.5059 286.185C64.2229 286.411 61.5815 283.246 61.5815 283.246L65.5059 280.609L68.6 283.246Z" fill="#E34862"/>
<path d="M63.5437 341.413L70.0339 352.564L74.562 340.961C74.562 340.961 74.3356 311.727 67.3925 283.396L65.8077 283.623L63.0154 283.999C62.9399 283.999 65.053 321.898 63.5437 341.413Z" fill="#E34862"/>
<path d="M65.5058 280.609L61.7325 285.581L51.3179 276.766L55.0913 273.225L65.5058 280.609Z" fill="white"/>
<path d="M71.9961 274.882L65.5059 280.609L68.751 285.581L74.4865 278.273L71.9961 274.882Z" fill="white"/>
<path opacity="0.15" d="M29.1305 310.295C29.8852 313.46 30.9417 316.85 32.3756 320.542C40.2997 340.735 40.677 362.058 40.677 362.058C44.224 363.113 47.9219 363.791 51.5444 364.243C51.7708 363.791 51.9972 363.188 52.0726 362.66C53.6575 353.393 37.9602 305.85 37.9602 305.85C37.9602 305.85 32.9039 308.261 29.1305 310.295Z" fill="url(#paint7_linear)"/>
<path opacity="0.15" d="M56.1479 259.286C56.2233 259.512 56.2233 259.738 56.2988 259.888C58.5628 268.553 66.6379 270.964 71.6942 271.266L71.4678 265.389L56.3743 256.573C56.3743 256.573 56.3743 256.649 56.2988 256.649C55.9969 257.251 55.9215 258.155 56.1479 259.286Z" fill="url(#paint8_linear)"/>
<path d="M51.7707 254.539C52.0726 257.026 56.2988 259.512 56.2988 259.512C59.6194 264.41 67.0907 271.191 73.1281 266.218C78.1844 262.074 75.7694 246.251 74.8638 240.977C74.7129 239.922 74.562 239.319 74.562 239.319C74.562 239.319 70.1848 240.826 65.4304 240.826C60.8268 240.826 57.3553 242.107 57.5817 247.231C57.5817 247.231 57.5817 247.231 57.5817 247.306C57.5817 247.457 57.5817 247.532 57.5817 247.683C57.9591 253.108 58.11 253.635 57.3553 253.71C56.6007 253.786 55.7705 252.58 55.5441 252.203C54.3366 250.621 51.4689 252.053 51.7707 254.539Z" fill="#FDD1B1"/>
<path opacity="0.15" d="M57.5818 247.155C57.6572 246.327 58.7138 242.409 62.94 241.956C66.4869 241.58 69.3547 242.258 74.8638 240.977C74.7129 239.922 74.562 239.319 74.562 239.319C74.562 239.319 70.1848 240.826 65.4304 240.826C60.8269 240.826 57.3554 242.032 57.5818 247.155Z" fill="url(#paint9_linear)"/>
<path d="M175.993 289.627L11.8733 353.263L18.2612 369.78L182.381 306.145L175.993 289.627Z" fill="#FAD382"/>
<path d="M177.628 293.76L13.5089 357.396L18.293 369.766L182.412 306.131L177.628 293.76Z" fill="#FFB600"/>
<path d="M180.802 301.983L16.6824 365.619L18.2862 369.766L182.405 306.13L180.802 301.983Z" fill="#FAD382"/>
<path d="M20.4227 349.985L11.9107 353.286L18.2986 369.803L26.8106 366.503L20.4227 349.985Z" fill="#202952"/>
<path d="M8.3769 366.503L6.79208 362.359C5.43366 358.969 7.16942 355.126 10.5655 353.77L11.9239 353.242L18.3386 369.743L16.9802 370.27C13.5842 371.627 9.73532 369.894 8.3769 366.503Z" fill="#E34899"/>
<path d="M182.556 306.302L176.141 289.801L204.442 288.294L182.556 306.302Z" fill="#FAD382"/>
<path d="M193.499 297.26L190.329 289.047L204.442 288.294L193.499 297.26Z" fill="#202952"/>
<path d="M63.9965 338.475L63.6946 339.303L62.1098 343.372C62.1098 343.372 62.8645 343.372 63.9965 343.447C65.204 343.523 66.7133 343.749 67.9963 344.276C68.1472 344.351 68.2981 344.427 68.3736 344.427C70.864 345.557 75.8449 347.215 79.9201 346.461C81.9578 346.084 81.4295 345.18 81.4295 345.18C84.5991 344.653 85.5047 342.995 84.5991 342.694C83.769 342.468 82.0332 342.769 81.8068 342.694C83.6181 342.92 85.4293 342.543 85.5802 341.865C85.7312 341.262 84.901 340.886 83.2407 340.81C81.354 340.66 76.1468 339.454 74.0337 338.776C71.9206 338.098 73.2035 338.022 74.4865 337.043C75.8449 336.063 78.0335 335.536 77.3542 334.783C76.675 334.029 72.147 335.461 70.7131 335.913C70.1848 336.139 69.0528 336.516 67.8453 336.968C65.9586 337.721 63.9965 338.475 63.9965 338.475Z" fill="#FDD1B1"/>
<path d="M28.7532 287.013C23.6968 290.027 21.9611 303.363 23.0931 322.351C23.4704 328.303 24.9043 340.584 28.6777 345.708C28.8286 345.934 29.055 346.16 29.2814 346.386C32.3001 349.249 65.8832 346.009 65.8832 346.009L66.2605 335.762L40.9034 334.557C40.2997 334.557 39.9224 334.029 39.9224 333.502C40.1488 328.454 40.5261 307.131 40.2242 303.288C39.4696 291.911 35.6962 282.869 28.7532 287.013Z" fill="#FCCC20"/>
<path d="M377.564 140.315H237.346C236.289 140.315 235.534 139.486 235.534 138.507V137.301C235.534 136.246 236.364 135.493 237.346 135.493H377.564C378.621 135.493 379.376 136.321 379.376 137.301V138.507C379.376 139.486 378.545 140.315 377.564 140.315Z" fill="#8ED2E8"/>
<path d="M238.402 203.002H212.064C210.253 203.002 208.819 201.57 208.819 199.762V173.466C208.819 171.658 210.253 170.227 212.064 170.227H238.402C240.213 170.227 241.647 171.658 241.647 173.466V199.762C241.723 201.495 240.213 203.002 238.402 203.002Z" fill="#8ED2E8"/>
<path d="M211.309 199.461V173.617C211.309 173.09 211.762 172.638 212.29 172.638H238.176C238.704 172.638 239.157 173.09 239.157 173.617V199.461C239.157 199.988 238.704 200.44 238.176 200.44H212.29C211.762 200.516 211.309 200.064 211.309 199.461Z" fill="white"/>
<path d="M220.818 205.715C220.743 205.715 220.743 205.715 220.818 205.715C219.988 205.715 219.233 205.338 218.781 204.66L203.913 184.844C203.083 183.714 203.31 182.131 204.442 181.227C205.574 180.398 207.159 180.624 208.064 181.755L220.969 198.934L244.59 170.905C245.496 169.85 247.156 169.699 248.213 170.603C249.269 171.508 249.42 173.165 248.515 174.22L222.856 204.66C222.252 205.338 221.573 205.715 220.818 205.715Z" fill="#FCCC20"/>
<path opacity="0.35" d="M402.393 174.973H262.174C261.118 174.973 260.363 174.144 260.363 173.165V171.959C260.363 170.904 261.193 170.151 262.174 170.151H402.393C403.45 170.151 404.204 170.98 404.204 171.959V173.165C404.204 174.144 403.374 174.973 402.393 174.973Z" fill="#8ED2E8"/>
<path opacity="0.35" d="M383.149 185.07H262.174C261.118 185.07 260.363 184.241 260.363 183.261V182.056C260.363 181.001 261.193 180.248 262.174 180.248H383.149C384.205 180.248 384.96 181.076 384.96 182.056V183.261C384.96 184.241 384.13 185.07 383.149 185.07Z" fill="#8ED2E8"/>
<path opacity="0.35" d="M343.151 195.091H262.174C261.118 195.091 260.363 194.262 260.363 193.282V192.077C260.363 191.022 261.193 190.269 262.174 190.269H343.151C344.208 190.269 344.962 191.097 344.962 192.077V193.282C344.962 194.262 344.132 195.091 343.151 195.091Z" fill="#8ED2E8"/>
<path d="M347.906 150.185H266.929C265.872 150.185 265.118 149.356 265.118 148.377V147.171C265.118 146.116 265.948 145.363 266.929 145.363H347.906C348.962 145.363 349.717 146.192 349.717 147.171V148.377C349.792 149.356 348.962 150.185 347.906 150.185Z" fill="#8ED2E8"/>
<path d="M238.402 264.786H212.064C210.253 264.786 208.819 263.355 208.819 261.546V235.251C208.819 233.442 210.253 232.011 212.064 232.011H238.402C240.213 232.011 241.647 233.442 241.647 235.251V261.546C241.723 263.355 240.213 264.786 238.402 264.786Z" fill="#8ED2E8"/>
<path d="M211.309 261.32V235.477C211.309 234.949 211.762 234.497 212.29 234.497H238.176C238.704 234.497 239.157 234.949 239.157 235.477V261.32C239.157 261.848 238.704 262.3 238.176 262.3H212.29C211.762 262.3 211.309 261.848 211.309 261.32Z" fill="white"/>
<path d="M220.818 267.574C220.743 267.574 220.743 267.574 220.818 267.574C219.988 267.574 219.233 267.197 218.781 266.519L203.913 246.703C203.083 245.573 203.31 243.991 204.442 243.087C205.574 242.258 207.159 242.484 208.064 243.614L220.969 260.793L244.59 232.764C245.496 231.709 247.156 231.559 248.213 232.463C249.269 233.367 249.42 235.025 248.515 236.079L222.856 266.519C222.252 267.197 221.573 267.574 220.818 267.574Z" fill="#FCCC20"/>
<path opacity="0.35" d="M402.393 236.833H262.174C261.118 236.833 260.363 236.004 260.363 235.025V233.819C260.363 232.764 261.193 232.011 262.174 232.011H402.393C403.45 232.011 404.204 232.84 404.204 233.819V235.025C404.204 236.004 403.374 236.833 402.393 236.833Z" fill="#8ED2E8"/>
<path opacity="0.35" d="M365.565 246.929H262.174C261.118 246.929 260.363 246.1 260.363 245.121V243.915C260.363 242.86 261.193 242.107 262.174 242.107H365.565C366.621 242.107 367.376 242.936 367.376 243.915V245.121C367.376 246.1 366.546 246.929 365.565 246.929Z" fill="#8ED2E8"/>
<path opacity="0.35" d="M300.814 256.875H262.174C261.118 256.875 260.363 256.046 260.363 255.067V253.861C260.363 252.806 261.193 252.053 262.174 252.053H300.814C301.87 252.053 302.625 252.882 302.625 253.861V255.067C302.7 256.046 301.87 256.875 300.814 256.875Z" fill="#8ED2E8"/>
<path opacity="0.35" d="M392.13 298.39H262.174C261.118 298.39 260.363 297.561 260.363 296.582V295.376C260.363 294.321 261.193 293.568 262.174 293.568H392.054C393.111 293.568 393.865 294.397 393.865 295.376V296.582C393.941 297.561 393.111 298.39 392.13 298.39Z" fill="#8ED2E8"/>
<path opacity="0.35" d="M383.149 308.487H262.174C261.118 308.487 260.363 307.658 260.363 306.678V305.473C260.363 304.418 261.193 303.665 262.174 303.665H383.149C384.205 303.665 384.96 304.493 384.96 305.473V306.678C384.96 307.658 384.13 308.487 383.149 308.487Z" fill="#8ED2E8"/>
<path opacity="0.35" d="M367.225 318.508H262.174C261.118 318.508 260.363 317.679 260.363 316.699V315.494C260.363 314.439 261.193 313.686 262.174 313.686H367.225C368.282 313.686 369.036 314.514 369.036 315.494V316.699C369.036 317.679 368.206 318.508 367.225 318.508Z" fill="#8ED2E8"/>
<path d="M238.402 326.419H212.064C210.253 326.419 208.819 324.988 208.819 323.179V296.883C208.819 295.075 210.253 293.644 212.064 293.644H238.402C240.213 293.644 241.647 295.075 241.647 296.883V323.179C241.723 324.912 240.213 326.419 238.402 326.419Z" fill="#8ED2E8"/>
<path d="M211.309 322.878V297.034C211.309 296.507 211.762 296.055 212.29 296.055H238.176C238.704 296.055 239.157 296.507 239.157 297.034V322.878C239.157 323.405 238.704 323.857 238.176 323.857H212.29C211.762 323.933 211.309 323.481 211.309 322.878Z" fill="white"/>
<path d="M220.818 329.132C220.743 329.132 220.743 329.132 220.818 329.132C219.988 329.132 219.233 328.755 218.781 328.077L203.913 308.261C203.083 307.131 203.31 305.548 204.442 304.644C205.574 303.815 207.159 304.041 208.064 305.172L220.969 322.351L244.59 294.322C245.496 293.267 247.156 293.116 248.213 294.02C249.269 294.925 249.42 296.582 248.515 297.637L222.856 328.077C222.252 328.755 221.573 329.132 220.818 329.132Z" fill="#FCCC20"/>
<path opacity="0.35" d="M402.393 360.928H262.174C261.118 360.928 260.363 360.099 260.363 359.119V357.914C260.363 356.859 261.193 356.105 262.174 356.105H402.393C403.45 356.105 404.204 356.934 404.204 357.914V359.119C404.204 360.099 403.374 360.928 402.393 360.928Z" fill="#8ED2E8"/>
<path opacity="0.35" d="M383.149 371.024H262.174C261.118 371.024 260.363 370.195 260.363 369.215V368.01C260.363 366.955 261.193 366.202 262.174 366.202H383.149C384.205 366.202 384.96 367.03 384.96 368.01V369.215C384.96 370.195 384.13 371.024 383.149 371.024Z" fill="#8ED2E8"/>
<path opacity="0.35" d="M313.266 380.969H262.174C261.118 380.969 260.363 380.141 260.363 379.161V377.956C260.363 376.901 261.193 376.147 262.174 376.147H313.266C314.322 376.147 315.077 376.976 315.077 377.956V379.161C315.153 380.141 314.322 380.969 313.266 380.969Z" fill="#8ED2E8"/>
<path d="M238.402 388.881H212.064C210.253 388.881 208.819 387.449 208.819 385.641V359.345C208.819 357.537 210.253 356.105 212.064 356.105H238.402C240.213 356.105 241.647 357.537 241.647 359.345V385.641C241.723 387.449 240.213 388.881 238.402 388.881Z" fill="#8ED2E8"/>
<path d="M211.309 385.415V359.571C211.309 359.044 211.762 358.592 212.29 358.592H238.176C238.704 358.592 239.157 359.044 239.157 359.571V385.415C239.157 385.942 238.704 386.395 238.176 386.395H212.29C211.762 386.395 211.309 385.942 211.309 385.415Z" fill="white"/>
<path opacity="0.35" d="M402.393 423.69H262.174C261.118 423.69 260.363 422.861 260.363 421.882V420.676C260.363 419.622 261.193 418.868 262.174 418.868H402.393C403.45 418.868 404.204 419.697 404.204 420.676V421.882C404.204 422.861 403.374 423.69 402.393 423.69Z" fill="#8ED2E8"/>
<path opacity="0.35" d="M347.302 433.787H262.174C261.118 433.787 260.363 432.958 260.363 431.978V430.773C260.363 429.718 261.193 428.964 262.174 428.964H347.302C348.358 428.964 349.113 429.793 349.113 430.773V431.978C349.113 432.958 348.283 433.787 347.302 433.787Z" fill="#8ED2E8"/>
<path opacity="0.35" d="M363.678 443.732H262.174C261.118 443.732 260.363 442.903 260.363 441.924V440.718C260.363 439.664 261.193 438.91 262.174 438.91H363.678C364.735 438.91 365.489 439.739 365.489 440.718V441.924C365.489 442.903 364.735 443.732 363.678 443.732Z" fill="#8ED2E8"/>
<path d="M238.402 451.644H212.064C210.253 451.644 208.819 450.212 208.819 448.404V422.108C208.819 420.3 210.253 418.868 212.064 418.868H238.402C240.213 418.868 241.647 420.3 241.647 422.108V448.404C241.723 450.212 240.213 451.644 238.402 451.644Z" fill="#8ED2E8"/>
<path d="M211.309 448.178V422.334C211.309 421.807 211.762 421.354 212.29 421.354H238.176C238.704 421.354 239.157 421.807 239.157 422.334V448.178C239.157 448.705 238.704 449.157 238.176 449.157H212.29C211.762 449.157 211.309 448.705 211.309 448.178Z" fill="white"/>
<path opacity="0.24" d="M344.962 102.491V119.218C344.962 121.026 343.528 122.457 341.717 122.457H273.117C271.306 122.457 269.872 121.026 269.872 119.218V102.491H344.962Z" fill="white"/>
<g opacity="0.86">
<path d="M189.122 45.1528H259.307C259.307 45.1528 272.664 45.0774 275.306 36.488C276.966 31.1384 272.891 25.0354 264.363 23.3778C254.703 21.5695 253.345 21.4942 251.383 13.0554C249.42 4.61667 245.572 1.75352 240.364 1.07541C234.629 0.246603 229.421 3.86321 224.441 10.1169C222.026 13.1308 214.026 7.32912 210.479 4.08924C206.026 -0.0547806 195.536 -0.130126 191.386 8.68535C186.707 18.631 193.876 23.0764 185.348 27.0697C179.311 29.9329 176.821 33.3988 176.896 37.3921C176.971 41.3855 183.386 45.1528 189.122 45.1528Z" fill="#2E7FFF"/>
<path opacity="0.48" d="M199.914 45.1528C199.914 45.1528 191.763 44.0979 195.838 36.8647C200.065 29.4055 210.479 39.0497 213.649 28.426C216.894 17.5008 229.195 14.3363 233.497 24.0559C237.044 32.0426 241.496 33.8509 252.741 31.9672C263.986 30.0836 263.986 44.0979 257.722 45.2281C251.533 46.2076 199.914 45.1528 199.914 45.1528Z" fill="#89CDFF"/>
</g>
<g opacity="0.63">
<path d="M46.1861 140.842H99.7681C99.7681 140.842 109.956 140.767 111.994 134.287C113.277 130.218 110.183 125.547 103.617 124.341C96.2211 122.985 95.24 122.91 93.7307 116.43C92.2213 109.95 89.2781 107.841 85.3538 107.238C80.9767 106.635 76.9769 109.348 73.2035 114.094C71.3923 116.355 65.2794 111.985 62.5626 109.498C59.1666 106.334 51.167 106.258 47.9974 112.964C44.4504 120.574 49.9595 123.965 43.3938 127.054C38.7903 129.239 36.8282 131.876 36.9791 134.965C36.9036 137.904 41.809 140.842 46.1861 140.842Z" fill="#2E7FFF"/>
<path opacity="0.48" d="M54.4876 140.842C54.4876 140.842 48.2992 140.013 51.3934 134.513C54.6385 128.862 62.5626 136.171 64.9776 128.109C67.468 119.745 76.826 117.334 80.0711 124.718C82.7879 130.821 86.184 132.177 94.7873 130.746C103.391 129.314 103.391 140.013 98.6361 140.842C93.8817 141.671 54.4876 140.842 54.4876 140.842Z" fill="#89CDFF"/>
</g>
<path d="M516.388 82.5985L504.764 79.9414L496.561 115.71L508.184 118.367L516.388 82.5985Z" fill="#2E7FFF"/>
<path d="M574.322 121.152L567.352 111.494L537.534 132.945L544.505 142.603L574.322 121.152Z" fill="#2E7FFF"/>
<path d="M451.94 121.463L462.425 115.794L444.924 83.5299L434.439 89.1989L451.94 121.463Z" fill="#2E7FFF"/>
<path d="M488.803 256.498C533.192 256.498 569.176 220.572 569.176 176.255C569.176 131.937 533.192 96.0112 488.803 96.0112C444.415 96.0112 408.431 131.937 408.431 176.255C408.431 220.572 444.415 256.498 488.803 256.498Z" fill="#2E7FFF"/>
<path d="M553.253 190.947C545.102 226.511 509.633 248.738 474.012 240.6C438.391 232.463 416.128 197.05 424.279 161.487C432.429 125.924 467.899 103.697 503.52 111.834C530.613 118.013 550.008 140.014 554.083 165.857C555.366 173.995 555.139 182.509 553.253 190.947Z" fill="white"/>
<path d="M554.083 165.932L488.803 176.255L503.595 111.909C530.612 118.088 550.008 140.089 554.083 165.932Z" fill="#6FDCFF"/>
<path d="M497.482 178.214C496.35 183.036 491.596 186.05 486.766 184.92C481.936 183.79 478.917 179.043 480.049 174.221C481.181 169.398 485.936 166.385 490.766 167.515C495.596 168.645 498.614 173.392 497.482 178.214Z" fill="#2E7FFF"/>
<path d="M523.292 96.9155L492.275 89.833C491.747 89.7577 491.445 89.2302 491.596 88.7782L496.803 65.9483C496.878 65.4209 497.407 65.1195 497.86 65.2702L528.877 72.3528C529.405 72.4281 529.707 72.9555 529.556 73.4076L524.349 96.2374C524.273 96.6895 523.82 96.9909 523.292 96.9155Z" fill="#2E7FFF"/>
<path d="M564.573 134.965L551.14 116.28C550.838 115.903 550.913 115.3 551.366 114.999L565.026 105.204C565.403 104.902 566.007 104.978 566.309 105.43L579.742 124.04C580.044 124.417 579.968 125.02 579.516 125.321L565.856 135.116C565.403 135.418 564.799 135.342 564.573 134.965Z" fill="#2E7FFF"/>
<path d="M437.335 105.882L457.56 94.9567C458.013 94.7307 458.164 94.1279 457.937 93.7512L449.938 79.0587C449.711 78.6066 449.108 78.4559 448.73 78.682L428.505 89.6071C428.052 89.8332 427.901 90.4359 428.128 90.8127L436.127 105.505C436.354 105.957 436.882 106.108 437.335 105.882Z" fill="#2E7FFF"/>
<path d="M501.331 123.362L500.501 123.211C500.199 123.136 500.048 122.91 500.124 122.609L501.935 114.622C502.01 114.321 502.237 114.17 502.539 114.245L503.369 114.396C503.671 114.471 503.821 114.697 503.746 114.999L501.935 122.985C501.859 123.287 501.557 123.437 501.331 123.362Z" fill="#2E7FFF"/>
<path d="M474.993 238.189L474.163 238.039C473.861 237.963 473.71 237.737 473.785 237.436L475.597 229.449C475.672 229.148 475.898 228.997 476.2 229.072L477.03 229.223C477.332 229.298 477.483 229.524 477.408 229.826L475.597 237.813C475.521 238.039 475.295 238.265 474.993 238.189Z" fill="#2E7FFF"/>
<path d="M520.273 131.952L519.594 131.5C519.368 131.349 519.292 131.048 519.443 130.822L524.122 124.116C524.273 123.89 524.575 123.814 524.801 123.965L525.481 124.417C525.707 124.568 525.782 124.869 525.632 125.095L520.953 131.801C520.802 132.027 520.5 132.102 520.273 131.952Z" fill="#2E7FFF"/>
<path d="M452.73 228.47L452.051 228.018C451.824 227.867 451.749 227.566 451.9 227.34L456.579 220.634C456.73 220.408 457.032 220.332 457.258 220.483L457.937 220.935C458.164 221.086 458.239 221.387 458.088 221.613L453.409 228.319C453.258 228.545 452.956 228.621 452.73 228.47Z" fill="#2E7FFF"/>
<path d="M535.216 148L534.763 147.322C534.612 147.096 534.688 146.795 534.914 146.644L541.857 142.349C542.084 142.199 542.385 142.274 542.536 142.5L542.989 143.178C543.14 143.404 543.065 143.706 542.838 143.856L535.895 148.151C535.669 148.302 535.367 148.226 535.216 148Z" fill="#2E7FFF"/>
<path d="M434.92 209.935L434.467 209.257C434.316 209.031 434.391 208.729 434.618 208.579L441.561 204.284C441.787 204.133 442.089 204.209 442.24 204.435L442.693 205.113C442.844 205.339 442.768 205.64 442.542 205.791L435.599 210.086C435.372 210.312 435.071 210.236 434.92 209.935Z" fill="#2E7FFF"/>
<path d="M542.461 167.741L542.31 166.912C542.235 166.611 542.461 166.385 542.687 166.309L550.762 164.953C551.064 164.878 551.291 165.104 551.366 165.33L551.517 166.159C551.593 166.46 551.366 166.686 551.14 166.762L543.065 168.118C542.838 168.193 542.536 167.967 542.461 167.741Z" fill="#2E7FFF"/>
<path d="M426.165 187.03L426.014 186.201C425.939 185.899 426.165 185.673 426.392 185.598L434.467 184.242C434.769 184.166 434.995 184.393 435.071 184.619L435.221 185.447C435.297 185.749 435.071 185.975 434.844 186.05L426.769 187.406C426.467 187.482 426.165 187.331 426.165 187.03Z" fill="#2E7FFF"/>
<path d="M541.631 189.139L541.857 188.31C541.932 188.009 542.159 187.858 542.461 187.934L550.385 189.817C550.687 189.893 550.838 190.119 550.762 190.42L550.536 191.249C550.46 191.55 550.234 191.701 549.932 191.626L542.008 189.742C541.706 189.667 541.555 189.365 541.631 189.139Z" fill="#2E7FFF"/>
<path d="M426.845 162.015L427.071 161.186C427.146 160.885 427.373 160.734 427.675 160.809L435.599 162.693C435.901 162.768 436.052 162.994 435.976 163.296L435.75 164.124C435.674 164.426 435.448 164.577 435.146 164.501L427.222 162.618C426.92 162.542 426.769 162.241 426.845 162.015Z" fill="#2E7FFF"/>
<path d="M532.65 208.353L533.103 207.674C533.254 207.448 533.556 207.373 533.782 207.524L540.423 212.27C540.65 212.421 540.725 212.723 540.574 212.949L540.121 213.627C539.97 213.853 539.669 213.928 539.442 213.777L532.801 209.031C532.499 208.88 532.499 208.579 532.65 208.353Z" fill="#2E7FFF"/>
<path d="M437.033 139.411L437.485 138.733C437.636 138.507 437.938 138.432 438.165 138.582L444.806 143.329C445.032 143.48 445.108 143.781 444.957 144.007L444.504 144.685C444.353 144.911 444.051 144.987 443.825 144.836L437.184 140.089C436.882 139.939 436.806 139.637 437.033 139.411Z" fill="#2E7FFF"/>
<path d="M516.953 222.668L517.632 222.216C517.859 222.065 518.16 222.14 518.311 222.366L522.613 229.298C522.764 229.524 522.688 229.826 522.462 229.976L521.783 230.428C521.556 230.579 521.254 230.504 521.104 230.278L516.802 223.346C516.651 223.12 516.727 222.818 516.953 222.668Z" fill="#2E7FFF"/>
<path d="M455.069 122.383L455.749 121.93C455.975 121.78 456.277 121.855 456.428 122.081L460.73 129.013C460.88 129.239 460.805 129.54 460.579 129.691L459.899 130.143C459.673 130.294 459.371 130.219 459.22 129.992L454.919 123.061C454.768 122.835 454.843 122.533 455.069 122.383Z" fill="#2E7FFF"/>
<path d="M497.18 229.826L498.011 229.675C498.312 229.6 498.539 229.826 498.614 230.052L499.973 238.114C500.048 238.416 499.822 238.642 499.595 238.717L498.765 238.868C498.463 238.943 498.237 238.717 498.161 238.491L496.803 230.429C496.728 230.127 496.954 229.901 497.18 229.826Z" fill="#2E7FFF"/>
<path d="M478.087 113.643L478.917 113.492C479.219 113.416 479.446 113.643 479.521 113.869L480.879 121.931C480.955 122.232 480.729 122.458 480.502 122.533L479.672 122.684C479.37 122.759 479.144 122.533 479.068 122.307L477.71 114.245C477.559 113.944 477.785 113.718 478.087 113.643Z" fill="#2E7FFF"/>
<path d="M488.879 181.454L535.065 169.172C535.141 169.172 535.141 169.172 535.216 169.172C535.292 169.172 535.367 169.097 535.443 169.097C535.594 169.022 535.594 168.871 535.594 168.645C535.594 168.494 535.443 168.343 535.292 168.268C535.216 168.268 535.141 168.268 535.141 168.268H535.065L487.219 170.905L488.879 181.454Z" fill="#2E7FFF"/>
<path d="M493.709 177.385C493.105 180.097 490.388 181.83 487.596 181.228C484.879 180.625 483.144 177.912 483.747 175.125C484.351 172.412 487.068 170.679 489.86 171.282C492.652 171.885 494.388 174.672 493.709 177.385Z" fill="white"/>
<path d="M509.783 88.7781L507.972 88.326C507.368 88.1754 506.991 87.5726 507.142 86.9698L510.085 74.0857C510.236 73.4829 510.84 73.1062 511.444 73.2569L513.255 73.7089C513.859 73.8596 514.236 74.4624 514.085 75.0652L511.142 87.9493C510.991 88.5521 510.387 88.9288 509.783 88.7781Z" fill="#2361C1"/>
<path d="M501.935 87.0452L500.124 86.5931C499.52 86.4424 499.142 85.8397 499.293 85.2369L502.237 72.3528C502.388 71.75 502.991 71.3733 503.595 71.524L505.406 71.976C506.01 72.1267 506.387 72.7295 506.236 73.3323L503.293 86.2164C503.142 86.7438 502.539 87.1206 501.935 87.0452Z" fill="#2361C1"/>
<path d="M517.632 90.5867L515.821 90.1346C515.217 89.984 514.84 89.3812 514.991 88.7784L517.934 75.8943C518.085 75.2915 518.689 74.9148 519.292 75.0655L521.104 75.5175C521.707 75.6682 522.085 76.271 521.934 76.8738L518.991 89.7579C518.84 90.3607 518.236 90.7374 517.632 90.5867Z" fill="#2361C1"/>
<path d="M473.182 366.88C473.182 366.88 493.483 366.353 501.859 364.62C501.859 364.62 517.859 396.642 518.236 436.198C518.538 475.83 510.84 534.073 510.84 534.073H502.765C502.765 534.073 487.973 415.629 487.596 414.273C487.294 412.916 457.786 534.073 457.786 534.073L448.504 533.922C448.579 533.922 454.994 390.388 473.182 366.88Z" fill="#FDD1B1"/>
<path d="M434.09 551.176C434.542 551.703 446.542 551.628 447.674 551.025C448.806 550.423 452.504 544.395 452.504 544.395L453.107 551.101L456.201 550.95L457.786 534.073L448.504 533.922C448.504 533.922 442.844 544.772 441.787 545.902C440.806 547.107 433.486 550.423 434.09 551.176Z" fill="#212B53"/>
<path d="M475.446 288.219C475.446 288.219 476.653 297.637 470.088 302.459C462.541 308.035 465.559 337.947 475.597 338.926C485.634 339.906 504.501 342.618 513.934 335.536C520.953 330.337 522.839 308.035 518.538 301.254C514.236 294.548 510.915 291.609 510.538 286.486C510.161 281.362 510.463 268.478 500.35 265.54C491.218 262.827 493.709 259.587 485.936 260.341C479.521 261.019 475.521 267.574 479.445 271.643C486.087 278.499 475.446 288.219 475.446 288.219Z" fill="#FFB600"/>
<path d="M534.914 243.313C534.914 243.313 535.291 238.867 537.631 236.08C539.97 233.292 542.31 231.483 542.687 232.162C542.989 232.84 540.197 236.381 540.499 236.833C540.801 237.285 544.498 234.799 545.706 234.121C548.498 232.463 549.328 228.997 550.234 229.826C551.14 230.655 549.178 235.853 548.574 236.833C547.895 237.812 543.216 243.162 541.933 243.237C540.574 243.162 534.914 243.313 534.914 243.313Z" fill="#FDD1B1"/>
<path d="M442.693 242.559C442.693 242.559 442.165 238.189 439.75 235.401C437.335 232.613 434.92 230.956 434.618 231.559C434.316 232.237 437.259 235.703 436.957 236.155C436.655 236.607 432.505 234.271 431.297 233.593C428.505 232.011 427.901 228.545 427.071 229.449C426.241 230.353 428.279 235.477 428.958 236.381C429.637 237.285 434.467 242.559 435.75 242.559C436.957 242.559 442.693 242.559 442.693 242.559Z" fill="#FDD1B1"/>
<path d="M479.747 362.887L475.974 363.263C475.974 363.263 461.862 371.099 459.22 406.361C456.579 441.623 445.938 464.302 450.617 470.104C455.296 475.905 470.767 469.802 479.823 471.535C488.879 473.268 496.501 482.837 512.802 478.769C529.179 474.7 525.858 472.967 534.009 470.631C542.159 468.295 526.311 447.5 522.16 429.643C518.462 413.594 516.274 372.757 502.388 364.921C485.634 355.578 479.747 362.887 479.747 362.887Z" fill="#215EBD"/>
<path d="M482.313 310.747C478.389 310.295 472.804 310.898 467.899 307.507C462.994 304.041 448.428 284.602 447.598 282.794C446.768 280.985 442.919 241.429 442.919 241.429L435.599 242.484C435.599 242.484 435.221 282.191 435.825 286.712C436.429 291.157 464.427 325.063 465.861 328.303C467.295 331.542 464.503 334.632 467.446 343.447C469.333 349.173 474.842 355.879 472.804 364.77C470.767 373.661 502.312 365.071 502.312 365.071C502.312 365.071 506.614 342.091 508.878 333.125C511.142 324.234 533.858 290.328 535.669 287.088C537.48 283.848 542.612 243.463 542.612 243.463L535.065 242.258C535.065 242.258 524.726 281.362 523.896 283.02C523.066 284.677 505.029 308.939 502.539 308.336C502.614 308.336 492.199 311.953 482.313 310.747Z" fill="#2E7FFF"/>
<path d="M495.671 312.706C491.898 318.734 480.502 318.508 480.728 312.932C480.804 310.144 481.483 306.226 482.087 302.986C482.691 299.671 483.294 296.959 483.294 296.959C483.294 296.959 496.501 287.842 495.973 292.965C495.369 298.014 495.671 312.706 495.671 312.706Z" fill="#FDD1B1"/>
<path opacity="0.15" d="M495.973 292.965C493.407 299.973 485.332 302.308 482.087 302.986C482.691 299.671 483.294 296.959 483.294 296.959C483.294 296.959 496.501 287.917 495.973 292.965Z" fill="url(#paint10_linear)"/>
<path d="M479.974 272.095C479.974 272.095 468.503 289.952 475.521 296.733C482.54 303.589 491.369 294.322 492.954 293.267C494.464 292.212 499.067 293.418 500.275 290.555C501.407 287.767 499.067 286.863 497.633 287.164C496.199 287.39 493.784 287.541 496.199 283.397C498.614 279.253 490.539 279.102 486.992 277.143C483.445 275.109 479.974 272.095 479.974 272.095Z" fill="#FDD1B1"/>
<path d="M502.765 534.147C502.765 534.147 503.897 551.628 505.029 551.552C506.161 551.477 514.236 552.08 514.915 551.552C515.066 551.477 516.425 551.251 516.425 549.744C516.425 548.915 514.236 546.881 514.236 546.881C513.029 541.757 510.916 534.147 510.916 534.147H502.765Z" fill="#212B53"/>
<path d="M607 269H597V259H593V269H583V273H593V283H597V273H607V269Z" fill="#2E7FFF"/>
<path d="M128 203.833H117.167V193H112.833V203.833H102V208.167H112.833V219H117.167V208.167H128V203.833Z" fill="#2E7FFF"/>
<path opacity="0.59" d="M399.174 27.8964H386.501V15.2393H381.433V27.8964H368.76V32.9593H381.433V45.6164H386.501V32.9593H399.174V27.8964Z" fill="#2E7FFF"/>
<path opacity="0.12" d="M246.003 624.959C246.003 626.027 246.096 627.095 246.375 627.95H384.301C384.301 627.95 390.634 627.95 401.065 627.95H547C545.231 623.891 541.319 620.366 536.383 618.764C530.702 616.948 521.017 613.637 521.855 609.044C525.021 592.169 532.285 579.992 513.566 559.912C507.699 553.611 490.097 547.95 473.241 558.097C459.83 566.214 450.983 536.094 422.95 519.752C422.112 519.325 421.274 518.791 420.436 518.364C404.324 509.819 384.115 510.78 370.797 526.374C365.396 532.676 361.205 541.434 358.784 552.97C350.681 592.916 331.496 566.321 328.237 561.835C318.831 548.804 290.985 555.747 286.701 574.118C278.505 608.617 269.937 603.17 262.673 605.306C255.502 607.335 245.816 614.599 246.003 624.959Z" fill="#8D9294"/>
<path d="M253.174 627.63C253.174 628.698 253.267 629.766 253.546 630.62H391.472C391.472 630.62 397.805 630.62 408.236 630.62H542.437C547.093 630.62 548.118 623.037 543.647 621.541C543.554 621.541 543.554 621.541 543.461 621.541C537.78 619.726 528.095 616.415 528.933 611.822C532.099 594.946 539.363 582.77 520.644 562.69C514.777 556.388 497.175 550.727 480.319 560.874C466.908 568.991 458.061 538.871 430.028 522.529C429.19 522.102 428.352 521.568 427.514 521.141C411.402 512.596 391.193 513.557 377.875 529.152C372.474 535.453 368.283 544.212 365.862 555.747C357.759 595.694 338.574 569.098 335.315 564.612C325.909 551.582 298.063 558.524 293.779 576.895C285.583 611.395 277.015 605.947 269.751 608.084C262.58 610.006 252.987 617.269 253.174 627.63Z" fill="#F7F9FF"/>
<defs>
<linearGradient id="paint0_linear" x1="58.5467" y1="412.435" x2="174.488" y2="519.22" gradientUnits="userSpaceOnUse">
<stop stop-color="#6EDCFF"/>
<stop offset="1" stop-color="#2E7FFF"/>
</linearGradient>
<linearGradient id="paint1_linear" x1="150.508" y1="380.32" x2="190.426" y2="530.256" gradientUnits="userSpaceOnUse">
<stop stop-color="#84D5E0"/>
<stop offset="1" stop-color="#28B5C8"/>
</linearGradient>
<linearGradient id="paint2_linear" x1="125.011" y1="334.429" x2="248.208" y2="381.203" gradientUnits="userSpaceOnUse">
<stop stop-color="#6EDCFF"/>
<stop offset="1" stop-color="#2E7FFF"/>
</linearGradient>
<linearGradient id="paint3_linear" x1="495.72" y1="396.067" x2="455.801" y2="546.003" gradientUnits="userSpaceOnUse">
<stop stop-color="#84D5E0"/>
<stop offset="1" stop-color="#57ABEC"/>
</linearGradient>
<linearGradient id="paint4_linear" x1="452.97" y1="350.176" x2="576.168" y2="396.951" gradientUnits="userSpaceOnUse">
<stop stop-color="#2E7FFF"/>
<stop offset="1" stop-color="#6EDCFF"/>
</linearGradient>
<linearGradient id="paint5_linear" x1="24.894" y1="463.513" x2="52.6854" y2="384.303" gradientUnits="userSpaceOnUse">
<stop stop-color="white"/>
<stop offset="1"/>
</linearGradient>
<linearGradient id="paint6_linear" x1="101.587" y1="323.763" x2="81.9311" y2="313.174" gradientUnits="userSpaceOnUse">
<stop stop-color="white"/>
<stop offset="1"/>
</linearGradient>
<linearGradient id="paint7_linear" x1="52.1541" y1="335.062" x2="29.1254" y2="335.062" gradientUnits="userSpaceOnUse">
<stop stop-color="white"/>
<stop offset="1"/>
</linearGradient>
<linearGradient id="paint8_linear" x1="61.0771" y1="275.648" x2="65.4184" y2="258.062" gradientUnits="userSpaceOnUse">
<stop stop-color="white"/>
<stop offset="1"/>
</linearGradient>
<linearGradient id="paint9_linear" x1="63.8537" y1="249.868" x2="67.5935" y2="239.209" gradientUnits="userSpaceOnUse">
<stop stop-color="white"/>
<stop offset="1"/>
</linearGradient>
<linearGradient id="paint10_linear" x1="482.37" y1="296.935" x2="495.749" y2="297.573" gradientUnits="userSpaceOnUse">
<stop stop-color="white"/>
<stop offset="1"/>
</linearGradient>
</defs>
</svg>
